M48
; DRILL file {KiCad 9.0.0} date 2025-04-11T10:11:47-0400
; FORMAT={-:-/ absolute / metric / decimal}
; #@! TF.CreationDate,2025-04-11T10:11:47-04:00
; #@! TF.GenerationSoftware,Kicad,Pcbnew,9.0.0
; #@! TF.FileFunction,Plated,1,2,PTH
FMAT,2
METRIC
; #@! TA.AperFunction,Plated,PTH,ViaDrill
T1C0.300
; #@! TA.AperFunction,Plated,PTH,ComponentDrill
T2C1.000
%
G90
G05
T1
X155.079Y-100.2
X155.079Y-111.579
X155.079Y-113.579
X155.1Y-102.579
X155.179Y-106.179
X155.2Y-107.879
X158.779Y-104.379
X158.779Y-110.0
X159.479Y-109.179
X159.579Y-105.579
X159.979Y-103.479
X160.579Y-107.479
X161.15Y-100.85
X161.179Y-106.279
X161.8Y-99.879
X163.279Y-103.9
X164.079Y-102.679
X165.679Y-104.3
T2
X152.779Y-94.979
X152.779Y-97.519
X152.779Y-100.059
X152.779Y-102.599
X152.779Y-105.139
X152.779Y-107.679
X152.779Y-110.219
X152.779Y-112.759
X159.279Y-95.679
M30
