%TF.GenerationSoftware,KiCad,Pcbnew,9.0.0*%
%TF.CreationDate,2025-04-11T10:11:51-04:00*%
%TF.ProjectId,lsm6dso_breakout,6c736d36-6473-46f5-9f62-7265616b6f75,rev?*%
%TF.SameCoordinates,Original*%
%TF.FileFunction,Legend,Top*%
%TF.FilePolarity,Positive*%
%FSLAX46Y46*%
G04 Gerber Fmt 4.6, Leading zero omitted, Abs format (unit mm)*
G04 Created by KiCad (PCBNEW 9.0.0) date 2025-04-11 10:11:51*
%MOMM*%
%LPD*%
G01*
G04 APERTURE LIST*
%ADD10C,0.200000*%
%ADD11C,0.160000*%
%ADD12C,0.150000*%
%ADD13C,0.120000*%
G04 APERTURE END LIST*
D10*
G36*
X154889603Y-96471140D02*
G01*
X154930871Y-96480774D01*
X154964315Y-96495681D01*
X154994163Y-96516904D01*
X155020707Y-96544411D01*
X155044121Y-96579028D01*
X155056375Y-96608365D01*
X155064795Y-96649161D01*
X155067996Y-96704691D01*
X155067996Y-96853618D01*
X154520892Y-96853618D01*
X154520892Y-96706035D01*
X154524424Y-96657115D01*
X154534324Y-96616265D01*
X154549895Y-96582081D01*
X154572555Y-96552335D01*
X154607113Y-96522651D01*
X154656630Y-96492933D01*
X154709310Y-96474243D01*
X154772584Y-96467654D01*
X154838774Y-96467654D01*
X154889603Y-96471140D01*
G37*
G36*
X155343238Y-98845399D02*
G01*
X154249557Y-98845399D01*
X154249557Y-98336722D01*
X154360668Y-98336722D01*
X154366965Y-98414336D01*
X154385115Y-98482988D01*
X154414624Y-98544254D01*
X154455835Y-98599326D01*
X154509901Y-98648925D01*
X154567212Y-98686447D01*
X154627538Y-98712913D01*
X154691630Y-98728868D01*
X154760433Y-98734288D01*
X154861794Y-98734288D01*
X154921694Y-98730263D01*
X154976300Y-98718562D01*
X155026413Y-98699484D01*
X155093746Y-98661111D01*
X155137666Y-98623280D01*
X155170802Y-98576572D01*
X155199948Y-98510196D01*
X155217606Y-98448417D01*
X155228426Y-98382362D01*
X155232127Y-98311443D01*
X155227283Y-98235941D01*
X155213259Y-98167645D01*
X155188316Y-98098620D01*
X155143039Y-98006078D01*
X154954667Y-98006078D01*
X154949534Y-97979254D01*
X154935250Y-97961382D01*
X154913606Y-97950589D01*
X154884325Y-97946666D01*
X154855613Y-97952156D01*
X154833461Y-97968160D01*
X154819608Y-97994267D01*
X154813983Y-98040211D01*
X154813983Y-98288912D01*
X154819604Y-98334812D01*
X154833461Y-98360963D01*
X154855613Y-98376967D01*
X154884325Y-98382457D01*
X154913047Y-98376969D01*
X154935250Y-98360963D01*
X154949062Y-98334818D01*
X154954667Y-98288912D01*
X154954667Y-98146091D01*
X155055356Y-98146091D01*
X155075166Y-98199984D01*
X155087287Y-98258244D01*
X155091443Y-98321640D01*
X155086982Y-98394295D01*
X155074885Y-98451146D01*
X155056630Y-98495219D01*
X155033008Y-98529002D01*
X155001744Y-98556587D01*
X154963779Y-98576802D01*
X154917720Y-98589625D01*
X154861671Y-98594215D01*
X154760494Y-98594215D01*
X154712279Y-98590080D01*
X154666944Y-98577832D01*
X154623779Y-98557334D01*
X154583774Y-98530243D01*
X154555053Y-98503423D01*
X154535546Y-98476734D01*
X154516945Y-98434498D01*
X154505388Y-98386589D01*
X154501352Y-98331898D01*
X154505405Y-98275631D01*
X154516923Y-98227118D01*
X154534978Y-98184839D01*
X154552460Y-98161844D01*
X154568310Y-98151907D01*
X154600515Y-98141022D01*
X154632034Y-98129502D01*
X154646371Y-98118125D01*
X154657725Y-98098783D01*
X154661576Y-98075749D01*
X154656055Y-98047682D01*
X154639777Y-98025557D01*
X154613275Y-98011710D01*
X154566626Y-98006078D01*
X154474486Y-98006078D01*
X154427861Y-98011645D01*
X154401701Y-98025251D01*
X154385674Y-98047050D01*
X154380208Y-98075077D01*
X154386363Y-98100650D01*
X154407563Y-98129726D01*
X154387081Y-98177379D01*
X154372392Y-98227790D01*
X154363659Y-98280240D01*
X154360668Y-98336722D01*
X154249557Y-98336722D01*
X154249557Y-97203741D01*
X154380208Y-97203741D01*
X154380208Y-97387472D01*
X154385830Y-97433426D01*
X154399686Y-97459585D01*
X154421838Y-97475589D01*
X154450550Y-97481078D01*
X154479272Y-97475591D01*
X154501474Y-97459585D01*
X154515285Y-97433433D01*
X154520892Y-97387472D01*
X154520892Y-97336975D01*
X154942088Y-97336975D01*
X154380208Y-97694913D01*
X154380208Y-97856785D01*
X154385830Y-97902739D01*
X154399686Y-97928898D01*
X154421838Y-97944902D01*
X154450550Y-97950391D01*
X154479272Y-97944904D01*
X154501474Y-97928898D01*
X154515285Y-97902745D01*
X154520892Y-97856785D01*
X154520892Y-97834925D01*
X155067996Y-97834925D01*
X155073443Y-97875388D01*
X155087474Y-97900504D01*
X155109600Y-97916270D01*
X155138338Y-97921692D01*
X155167060Y-97916205D01*
X155189262Y-97900199D01*
X155203073Y-97874047D01*
X155208680Y-97828086D01*
X155208680Y-97644355D01*
X155203070Y-97598404D01*
X155189262Y-97572303D01*
X155167055Y-97556249D01*
X155138338Y-97550749D01*
X155109631Y-97556251D01*
X155087474Y-97572303D01*
X155073620Y-97598410D01*
X155067996Y-97644355D01*
X155067996Y-97694913D01*
X154644723Y-97694913D01*
X155208680Y-97334899D01*
X155208680Y-97196230D01*
X154520892Y-97196230D01*
X154515481Y-97156352D01*
X154501474Y-97131323D01*
X154479298Y-97115555D01*
X154450550Y-97110134D01*
X154421843Y-97115637D01*
X154399686Y-97131689D01*
X154385833Y-97157796D01*
X154380208Y-97203741D01*
X154249557Y-97203741D01*
X154249557Y-96986853D01*
X154380208Y-96986853D01*
X154385830Y-97032807D01*
X154399686Y-97058966D01*
X154421838Y-97074970D01*
X154450550Y-97080459D01*
X154479298Y-97075039D01*
X154501474Y-97059271D01*
X154515459Y-97034160D01*
X154520892Y-96993692D01*
X155067996Y-96993692D01*
X155073407Y-97033623D01*
X155087474Y-97058966D01*
X155109626Y-97074970D01*
X155138338Y-97080459D01*
X155167060Y-97074972D01*
X155189262Y-97058966D01*
X155203073Y-97032813D01*
X155208680Y-96986853D01*
X155208680Y-96705424D01*
X155204628Y-96633349D01*
X155193513Y-96575162D01*
X155176562Y-96528470D01*
X155151696Y-96485890D01*
X155112753Y-96436635D01*
X155063981Y-96393157D01*
X155000707Y-96357744D01*
X154954048Y-96341379D01*
X154901872Y-96331189D01*
X154843292Y-96327641D01*
X154776370Y-96327641D01*
X154706332Y-96332099D01*
X154652722Y-96344067D01*
X154602839Y-96364057D01*
X154550934Y-96392915D01*
X154503226Y-96426257D01*
X154470333Y-96455380D01*
X154435791Y-96499878D01*
X154406159Y-96560283D01*
X154387164Y-96626463D01*
X154380879Y-96693823D01*
X154380851Y-96706035D01*
X154380513Y-96853618D01*
X154380208Y-96986853D01*
X154249557Y-96986853D01*
X154249557Y-96216530D01*
X155343238Y-96216530D01*
X155343238Y-98845399D01*
G37*
G36*
X154889603Y-105449577D02*
G01*
X154930871Y-105459211D01*
X154964315Y-105474117D01*
X154994163Y-105495341D01*
X155020707Y-105522848D01*
X155044121Y-105557465D01*
X155056375Y-105586802D01*
X155064795Y-105627598D01*
X155067996Y-105683128D01*
X155067996Y-105832055D01*
X154520892Y-105832055D01*
X154520892Y-105684472D01*
X154524424Y-105635552D01*
X154534324Y-105594702D01*
X154549895Y-105560518D01*
X154572555Y-105530772D01*
X154607113Y-105501088D01*
X154656630Y-105471370D01*
X154709310Y-105452680D01*
X154772584Y-105446091D01*
X154838774Y-105446091D01*
X154889603Y-105449577D01*
G37*
G36*
X155319791Y-106170007D02*
G01*
X154269097Y-106170007D01*
X154269097Y-105965290D01*
X154380208Y-105965290D01*
X154385830Y-106011244D01*
X154399686Y-106037402D01*
X154421838Y-106053407D01*
X154450550Y-106058896D01*
X154479298Y-106053476D01*
X154501474Y-106037708D01*
X154515459Y-106012597D01*
X154520892Y-105972129D01*
X155067996Y-105972129D01*
X155073407Y-106012060D01*
X155087474Y-106037402D01*
X155109626Y-106053407D01*
X155138338Y-106058896D01*
X155167060Y-106053409D01*
X155189262Y-106037402D01*
X155203073Y-106011250D01*
X155208680Y-105965290D01*
X155208680Y-105683861D01*
X155204628Y-105611786D01*
X155193513Y-105553599D01*
X155176562Y-105506907D01*
X155151696Y-105464327D01*
X155112753Y-105415072D01*
X155063981Y-105371594D01*
X155000707Y-105336181D01*
X154954048Y-105319816D01*
X154901872Y-105309626D01*
X154843292Y-105306078D01*
X154776370Y-105306078D01*
X154706332Y-105310536D01*
X154652722Y-105322504D01*
X154602839Y-105342494D01*
X154550934Y-105371352D01*
X154503226Y-105404694D01*
X154470333Y-105433817D01*
X154435791Y-105478315D01*
X154406159Y-105538720D01*
X154387164Y-105604899D01*
X154380879Y-105672259D01*
X154380851Y-105684472D01*
X154380513Y-105832055D01*
X154380208Y-105965290D01*
X154269097Y-105965290D01*
X154269097Y-104521509D01*
X154380208Y-104521509D01*
X154380208Y-104649920D01*
X154385830Y-104695874D01*
X154399686Y-104722033D01*
X154421838Y-104738037D01*
X154450550Y-104743526D01*
X154480608Y-104740000D01*
X154506176Y-104729848D01*
X154516586Y-104717098D01*
X154520892Y-104690220D01*
X154676963Y-104818875D01*
X154520892Y-104948446D01*
X154516591Y-104921609D01*
X154506176Y-104908817D01*
X154480608Y-104898665D01*
X154450550Y-104895140D01*
X154421843Y-104900642D01*
X154399686Y-104916694D01*
X154385833Y-104942802D01*
X154380208Y-104988746D01*
X154380208Y-105117889D01*
X154385828Y-105163789D01*
X154399686Y-105189941D01*
X154421838Y-105205945D01*
X154450550Y-105211434D01*
X154479384Y-105206245D01*
X154501474Y-105191284D01*
X154515534Y-105167461D01*
X154520892Y-105130162D01*
X154786811Y-104909367D01*
X155067996Y-105141092D01*
X155073329Y-105178555D01*
X155087474Y-105203252D01*
X155109600Y-105219018D01*
X155138338Y-105224440D01*
X155167060Y-105218953D01*
X155189262Y-105202947D01*
X155203073Y-105176795D01*
X155208680Y-105130834D01*
X155208680Y-104973725D01*
X155203070Y-104927774D01*
X155189262Y-104901673D01*
X155167055Y-104885619D01*
X155138338Y-104880119D01*
X155109488Y-104885242D01*
X155087474Y-104899964D01*
X155073311Y-104923235D01*
X155067996Y-104958704D01*
X154896781Y-104818020D01*
X155067996Y-104675871D01*
X155073333Y-104711937D01*
X155087474Y-104735344D01*
X155109483Y-104750018D01*
X155138338Y-104755128D01*
X155167060Y-104749640D01*
X155189262Y-104733634D01*
X155203094Y-104707568D01*
X155208680Y-104662254D01*
X155208680Y-104504412D01*
X155203070Y-104458461D01*
X155189262Y-104432361D01*
X155167060Y-104416354D01*
X155138338Y-104410867D01*
X155109570Y-104416208D01*
X155087474Y-104431689D01*
X155073366Y-104456163D01*
X155067996Y-104494154D01*
X154786750Y-104727650D01*
X154520892Y-104509236D01*
X154515606Y-104473003D01*
X154501474Y-104448786D01*
X154479323Y-104433256D01*
X154450550Y-104427903D01*
X154421843Y-104433406D01*
X154399686Y-104449458D01*
X154385833Y-104475565D01*
X154380208Y-104521509D01*
X154269097Y-104521509D01*
X154269097Y-104299756D01*
X155319791Y-104299756D01*
X155319791Y-106170007D01*
G37*
G36*
X154889603Y-110249577D02*
G01*
X154930871Y-110259211D01*
X154964315Y-110274117D01*
X154994163Y-110295341D01*
X155020707Y-110322848D01*
X155044121Y-110357465D01*
X155056375Y-110386802D01*
X155064795Y-110427598D01*
X155067996Y-110483128D01*
X155067996Y-110632055D01*
X154520892Y-110632055D01*
X154520892Y-110484472D01*
X154524424Y-110435552D01*
X154534324Y-110394702D01*
X154549895Y-110360518D01*
X154572555Y-110330772D01*
X154607113Y-110301088D01*
X154656630Y-110271370D01*
X154709310Y-110252680D01*
X154772584Y-110246091D01*
X154838774Y-110246091D01*
X154889603Y-110249577D01*
G37*
G36*
X154916804Y-109461855D02*
G01*
X154980767Y-109482313D01*
X155035817Y-109515499D01*
X155064901Y-109545359D01*
X155081785Y-109579234D01*
X155087535Y-109618631D01*
X155082011Y-109660466D01*
X155066399Y-109693703D01*
X155040579Y-109720419D01*
X154981503Y-109755854D01*
X154915809Y-109777279D01*
X154841705Y-109784655D01*
X154688564Y-109784655D01*
X154613465Y-109777483D01*
X154549502Y-109757024D01*
X154494452Y-109723838D01*
X154465411Y-109693961D01*
X154448506Y-109659875D01*
X154442734Y-109620035D01*
X154448223Y-109578623D01*
X154463809Y-109545348D01*
X154489690Y-109518247D01*
X154549133Y-109483151D01*
X154614853Y-109461962D01*
X154688564Y-109454683D01*
X154841705Y-109454683D01*
X154916804Y-109461855D01*
G37*
G36*
X155339330Y-110970007D02*
G01*
X154190939Y-110970007D01*
X154190939Y-110765290D01*
X154380208Y-110765290D01*
X154385830Y-110811244D01*
X154399686Y-110837402D01*
X154421838Y-110853407D01*
X154450550Y-110858896D01*
X154479298Y-110853476D01*
X154501474Y-110837708D01*
X154515459Y-110812597D01*
X154520892Y-110772129D01*
X155067996Y-110772129D01*
X155073407Y-110812060D01*
X155087474Y-110837402D01*
X155109626Y-110853407D01*
X155138338Y-110858896D01*
X155167060Y-110853409D01*
X155189262Y-110837402D01*
X155203073Y-110811250D01*
X155208680Y-110765290D01*
X155208680Y-110483861D01*
X155204628Y-110411786D01*
X155193513Y-110353599D01*
X155176562Y-110306907D01*
X155151696Y-110264327D01*
X155112753Y-110215072D01*
X155063981Y-110171594D01*
X155000707Y-110136181D01*
X154954048Y-110119816D01*
X154901872Y-110109626D01*
X154843292Y-110106078D01*
X154776370Y-110106078D01*
X154706332Y-110110536D01*
X154652722Y-110122504D01*
X154602839Y-110142494D01*
X154550934Y-110171352D01*
X154503226Y-110204694D01*
X154470333Y-110233817D01*
X154435791Y-110278315D01*
X154406159Y-110338720D01*
X154387164Y-110404899D01*
X154380879Y-110472259D01*
X154380851Y-110484472D01*
X154380513Y-110632055D01*
X154380208Y-110765290D01*
X154190939Y-110765290D01*
X154190939Y-109620707D01*
X154302050Y-109620707D01*
X154307259Y-109677767D01*
X154322258Y-109727670D01*
X154346748Y-109771805D01*
X154381296Y-109811141D01*
X154427286Y-109846143D01*
X154491878Y-109881099D01*
X154556547Y-109905445D01*
X154621838Y-109919865D01*
X154688381Y-109924667D01*
X154841888Y-109924667D01*
X154915274Y-109918850D01*
X154985651Y-109901514D01*
X155053891Y-109872399D01*
X155118191Y-109833646D01*
X155162456Y-109796852D01*
X155191033Y-109761757D01*
X155211178Y-109721263D01*
X155223776Y-109674040D01*
X155228219Y-109618631D01*
X155223024Y-109561554D01*
X155208065Y-109511606D01*
X155183640Y-109467406D01*
X155149191Y-109427990D01*
X155103350Y-109392889D01*
X155038910Y-109357798D01*
X154974235Y-109333336D01*
X154908773Y-109318833D01*
X154841888Y-109313999D01*
X154688381Y-109313999D01*
X154614581Y-109319898D01*
X154544010Y-109337462D01*
X154475768Y-109366938D01*
X154411429Y-109406135D01*
X154367287Y-109443161D01*
X154338931Y-109478313D01*
X154318938Y-109518740D01*
X154306449Y-109565734D01*
X154302104Y-109620035D01*
X154302050Y-109620707D01*
X154190939Y-109620707D01*
X154190939Y-109202888D01*
X155339330Y-109202888D01*
X155339330Y-110970007D01*
G37*
G36*
X155319791Y-113674996D02*
G01*
X154190939Y-113674996D01*
X154190939Y-113047495D01*
X154380208Y-113047495D01*
X154380208Y-113470340D01*
X154385833Y-113516285D01*
X154399686Y-113542392D01*
X154421838Y-113558396D01*
X154450550Y-113563885D01*
X154479272Y-113558398D01*
X154501474Y-113542392D01*
X154515283Y-113516291D01*
X154520892Y-113470340D01*
X154520892Y-113328924D01*
X155067996Y-113328924D01*
X155067996Y-113470340D01*
X155073620Y-113516285D01*
X155087474Y-113542392D01*
X155109626Y-113558396D01*
X155138338Y-113563885D01*
X155167060Y-113558398D01*
X155189262Y-113542392D01*
X155203070Y-113516291D01*
X155208680Y-113470340D01*
X155208680Y-113047495D01*
X155203070Y-113001544D01*
X155189262Y-112975443D01*
X155167055Y-112959390D01*
X155138338Y-112953889D01*
X155109631Y-112959392D01*
X155087474Y-112975443D01*
X155073620Y-113001551D01*
X155067996Y-113047495D01*
X155067996Y-113188912D01*
X154520892Y-113188912D01*
X154520892Y-113047495D01*
X154515283Y-113001544D01*
X154501474Y-112975443D01*
X154479267Y-112959390D01*
X154450550Y-112953889D01*
X154421843Y-112959392D01*
X154399686Y-112975443D01*
X154385833Y-113001551D01*
X154380208Y-113047495D01*
X154190939Y-113047495D01*
X154190939Y-112348289D01*
X154302050Y-112348289D01*
X154381063Y-112649562D01*
X154395990Y-112690497D01*
X154409822Y-112709646D01*
X154428373Y-112720154D01*
X154454519Y-112723995D01*
X154483539Y-112719034D01*
X154507214Y-112704517D01*
X154523454Y-112682994D01*
X154528707Y-112658416D01*
X154520403Y-112613353D01*
X154487125Y-112488362D01*
X155067996Y-112488362D01*
X155067996Y-112629718D01*
X155073618Y-112675671D01*
X155087474Y-112701830D01*
X155109626Y-112717834D01*
X155138338Y-112723324D01*
X155167060Y-112717836D01*
X155189262Y-112701830D01*
X155203073Y-112675678D01*
X155208680Y-112629718D01*
X155208680Y-112206872D01*
X155203070Y-112160921D01*
X155189262Y-112134820D01*
X155167060Y-112118814D01*
X155138338Y-112113327D01*
X155109626Y-112118816D01*
X155087474Y-112134820D01*
X155073620Y-112160928D01*
X155067996Y-112206872D01*
X155067996Y-112348289D01*
X154302050Y-112348289D01*
X154190939Y-112348289D01*
X154190939Y-112002216D01*
X155319791Y-112002216D01*
X155319791Y-113674996D01*
G37*
G36*
X154889603Y-102749577D02*
G01*
X154930871Y-102759211D01*
X154964315Y-102774117D01*
X154994163Y-102795341D01*
X155020707Y-102822848D01*
X155044121Y-102857465D01*
X155056375Y-102886802D01*
X155064795Y-102927598D01*
X155067996Y-102983128D01*
X155067996Y-103132055D01*
X154520892Y-103132055D01*
X154520892Y-102984472D01*
X154524424Y-102935552D01*
X154534324Y-102894702D01*
X154549895Y-102860518D01*
X154572555Y-102830772D01*
X154607113Y-102801088D01*
X154656630Y-102771370D01*
X154709310Y-102752680D01*
X154772584Y-102746091D01*
X154838774Y-102746091D01*
X154889603Y-102749577D01*
G37*
G36*
X154837430Y-102232753D02*
G01*
X154565161Y-102119363D01*
X154837430Y-102006645D01*
X154837430Y-102232753D01*
G37*
G36*
X155319791Y-103470007D02*
G01*
X154269097Y-103470007D01*
X154269097Y-103265290D01*
X154380208Y-103265290D01*
X154385830Y-103311244D01*
X154399686Y-103337402D01*
X154421838Y-103353407D01*
X154450550Y-103358896D01*
X154479298Y-103353476D01*
X154501474Y-103337708D01*
X154515459Y-103312597D01*
X154520892Y-103272129D01*
X155067996Y-103272129D01*
X155073407Y-103312060D01*
X155087474Y-103337402D01*
X155109626Y-103353407D01*
X155138338Y-103358896D01*
X155167060Y-103353409D01*
X155189262Y-103337402D01*
X155203073Y-103311250D01*
X155208680Y-103265290D01*
X155208680Y-102983861D01*
X155204628Y-102911786D01*
X155193513Y-102853599D01*
X155176562Y-102806907D01*
X155151696Y-102764327D01*
X155112753Y-102715072D01*
X155063981Y-102671594D01*
X155000707Y-102636181D01*
X154954048Y-102619816D01*
X154901872Y-102609626D01*
X154843292Y-102606078D01*
X154776370Y-102606078D01*
X154706332Y-102610536D01*
X154652722Y-102622504D01*
X154602839Y-102642494D01*
X154550934Y-102671352D01*
X154503226Y-102704694D01*
X154470333Y-102733817D01*
X154435791Y-102778315D01*
X154406159Y-102838720D01*
X154387164Y-102904899D01*
X154380879Y-102972259D01*
X154380851Y-102984472D01*
X154380513Y-103132055D01*
X154380208Y-103265290D01*
X154269097Y-103265290D01*
X154269097Y-102042854D01*
X154380208Y-102042854D01*
X154380208Y-102119363D01*
X154380208Y-102345471D01*
X154385833Y-102391415D01*
X154399686Y-102417523D01*
X154421838Y-102433527D01*
X154450550Y-102439016D01*
X154479272Y-102433529D01*
X154501474Y-102417523D01*
X154515283Y-102391422D01*
X154520892Y-102345471D01*
X154520892Y-102253941D01*
X155067996Y-102473882D01*
X155073619Y-102521176D01*
X155087474Y-102548315D01*
X155109718Y-102565179D01*
X155138338Y-102570907D01*
X155167055Y-102565407D01*
X155189262Y-102549353D01*
X155203070Y-102523252D01*
X155208680Y-102477301D01*
X155208680Y-102288746D01*
X155203070Y-102242795D01*
X155189262Y-102216694D01*
X155167055Y-102200640D01*
X155138338Y-102195140D01*
X155109631Y-102200642D01*
X155087474Y-102216694D01*
X155073620Y-102242802D01*
X155067996Y-102288746D01*
X155067996Y-102322940D01*
X154978114Y-102288746D01*
X154978114Y-101948577D01*
X155067996Y-101915115D01*
X155067996Y-101949248D01*
X155073618Y-101995202D01*
X155087474Y-102021361D01*
X155109626Y-102037365D01*
X155138338Y-102042854D01*
X155167060Y-102037367D01*
X155189262Y-102021361D01*
X155203073Y-101995209D01*
X155208680Y-101949248D01*
X155208680Y-101760693D01*
X155203056Y-101714800D01*
X155189262Y-101689007D01*
X155167086Y-101673240D01*
X155138338Y-101667819D01*
X155109218Y-101675138D01*
X155080696Y-101699266D01*
X155071974Y-101719572D01*
X155067996Y-101764112D01*
X154380208Y-102042854D01*
X154269097Y-102042854D01*
X154269097Y-101556708D01*
X155319791Y-101556708D01*
X155319791Y-103470007D01*
G37*
G36*
X155343238Y-100946071D02*
G01*
X154249557Y-100946071D01*
X154249557Y-100451682D01*
X154360668Y-100451682D01*
X154366353Y-100517758D01*
X154383339Y-100581228D01*
X154412020Y-100642985D01*
X154450947Y-100698584D01*
X154499338Y-100745406D01*
X154558200Y-100784096D01*
X154622965Y-100812336D01*
X154690761Y-100829250D01*
X154762509Y-100834960D01*
X154857641Y-100834960D01*
X154925852Y-100828636D01*
X154989957Y-100809867D01*
X155051082Y-100778296D01*
X155106211Y-100736628D01*
X155148953Y-100690959D01*
X155180775Y-100640970D01*
X155208965Y-100572790D01*
X155226203Y-100498492D01*
X155232127Y-100416877D01*
X155227843Y-100346607D01*
X155215359Y-100281961D01*
X155195002Y-100222155D01*
X155161798Y-100161824D01*
X155119348Y-100114932D01*
X155085651Y-100092640D01*
X155057432Y-100086234D01*
X155030572Y-100091477D01*
X155007240Y-100107422D01*
X154991159Y-100130533D01*
X154985930Y-100156576D01*
X154992525Y-100184663D01*
X155021101Y-100218796D01*
X155052941Y-100255076D01*
X155070072Y-100285719D01*
X155085685Y-100343161D01*
X155091443Y-100417549D01*
X155086683Y-100482756D01*
X155073328Y-100537319D01*
X155052286Y-100583082D01*
X155023788Y-100621492D01*
X154987522Y-100653854D01*
X154947836Y-100676520D01*
X154903975Y-100690234D01*
X154854833Y-100694948D01*
X154763913Y-100694948D01*
X154708618Y-100690227D01*
X154660275Y-100676667D01*
X154617612Y-100654648D01*
X154579082Y-100625263D01*
X154549870Y-100594360D01*
X154528707Y-100561774D01*
X154508288Y-100506998D01*
X154501352Y-100446309D01*
X154505841Y-100396174D01*
X154519548Y-100345558D01*
X154541524Y-100299575D01*
X154567969Y-100267279D01*
X154585760Y-100255710D01*
X154611689Y-100248167D01*
X154649732Y-100236678D01*
X154669574Y-100222887D01*
X154680963Y-100203627D01*
X154685023Y-100177764D01*
X154679569Y-100149672D01*
X154663529Y-100127572D01*
X154637436Y-100113715D01*
X154591600Y-100108093D01*
X154472959Y-100108093D01*
X154427127Y-100113731D01*
X154401335Y-100127572D01*
X154385581Y-100149641D01*
X154380208Y-100177764D01*
X154382635Y-100194885D01*
X154389977Y-100210920D01*
X154401712Y-100225201D01*
X154419287Y-100239252D01*
X154393427Y-100286799D01*
X154375140Y-100337987D01*
X154364377Y-100392170D01*
X154360668Y-100451682D01*
X154249557Y-100451682D01*
X154249557Y-99596099D01*
X154380208Y-99596099D01*
X154380208Y-99899449D01*
X154385828Y-99945349D01*
X154399686Y-99971501D01*
X154421838Y-99987505D01*
X154450550Y-99992994D01*
X154479272Y-99987507D01*
X154501474Y-99971501D01*
X154515287Y-99945355D01*
X154520892Y-99899449D01*
X154520892Y-99818116D01*
X155067996Y-99818116D01*
X155067996Y-99899449D01*
X155073616Y-99945349D01*
X155087474Y-99971501D01*
X155109626Y-99987505D01*
X155138338Y-99992994D01*
X155167060Y-99987507D01*
X155189262Y-99971501D01*
X155203075Y-99945355D01*
X155208680Y-99899449D01*
X155208680Y-99236085D01*
X154935128Y-99236085D01*
X154889022Y-99241715D01*
X154862893Y-99255564D01*
X154846808Y-99277677D01*
X154841338Y-99305817D01*
X154846836Y-99334481D01*
X154862893Y-99356680D01*
X154889022Y-99370529D01*
X154935128Y-99376159D01*
X155067996Y-99376159D01*
X155067996Y-99678104D01*
X154520892Y-99678104D01*
X154520892Y-99596099D01*
X154515283Y-99550148D01*
X154501474Y-99524048D01*
X154479272Y-99508042D01*
X154450550Y-99502554D01*
X154421838Y-99508044D01*
X154399686Y-99524048D01*
X154385833Y-99550155D01*
X154380208Y-99596099D01*
X154249557Y-99596099D01*
X154249557Y-99124974D01*
X155343238Y-99124974D01*
X155343238Y-100946071D01*
G37*
G36*
X155219791Y-95921908D02*
G01*
X154169097Y-95921908D01*
X154169097Y-95000583D01*
X154280208Y-95000583D01*
X154280208Y-95188467D01*
X154285830Y-95234421D01*
X154299686Y-95260579D01*
X154321838Y-95276583D01*
X154350550Y-95282073D01*
X154379272Y-95276585D01*
X154401474Y-95260579D01*
X154415285Y-95234427D01*
X154420892Y-95188467D01*
X154420892Y-95156349D01*
X154904309Y-95359253D01*
X154420892Y-95560754D01*
X154420892Y-95527964D01*
X154415268Y-95482072D01*
X154401474Y-95456279D01*
X154379298Y-95440511D01*
X154350550Y-95435091D01*
X154321838Y-95440580D01*
X154299686Y-95456584D01*
X154285813Y-95482613D01*
X154280208Y-95527964D01*
X154280208Y-95717191D01*
X154285833Y-95763136D01*
X154299686Y-95789243D01*
X154321843Y-95805295D01*
X154350550Y-95810797D01*
X154370041Y-95807454D01*
X154388832Y-95797057D01*
X154407641Y-95778008D01*
X154416758Y-95757590D01*
X154420892Y-95713100D01*
X155108680Y-95426176D01*
X155108680Y-95291598D01*
X154420892Y-95004002D01*
X154416856Y-94960083D01*
X154407947Y-94939827D01*
X154379522Y-94914620D01*
X154350550Y-94907038D01*
X154321843Y-94912541D01*
X154299686Y-94928592D01*
X154285831Y-94954692D01*
X154280208Y-95000583D01*
X154169097Y-95000583D01*
X154169097Y-94519363D01*
X154311471Y-94519363D01*
X154317049Y-94547998D01*
X154333392Y-94570227D01*
X154359801Y-94584111D01*
X154405382Y-94589705D01*
X154639733Y-94589705D01*
X154639733Y-94789862D01*
X154644812Y-94835807D01*
X154658601Y-94861975D01*
X154680870Y-94877978D01*
X154709709Y-94883468D01*
X154738558Y-94877980D01*
X154760878Y-94861975D01*
X154774779Y-94835810D01*
X154780417Y-94789862D01*
X154780417Y-94589705D01*
X155015012Y-94589705D01*
X155060966Y-94584083D01*
X155087125Y-94570227D01*
X155103182Y-94548028D01*
X155108680Y-94519363D01*
X155103167Y-94490711D01*
X155087125Y-94468805D01*
X155061006Y-94455221D01*
X155015012Y-94449693D01*
X154780417Y-94449693D01*
X154780417Y-94249536D01*
X154774777Y-94203598D01*
X154760878Y-94177484D01*
X154738553Y-94161432D01*
X154709709Y-94155930D01*
X154680940Y-94161447D01*
X154658967Y-94177484D01*
X154645295Y-94203566D01*
X154639733Y-94249536D01*
X154639733Y-94449693D01*
X154405382Y-94448960D01*
X154359267Y-94454588D01*
X154333086Y-94468439D01*
X154316985Y-94490651D01*
X154311471Y-94519363D01*
X154169097Y-94519363D01*
X154169097Y-94044819D01*
X155219791Y-94044819D01*
X155219791Y-95921908D01*
G37*
G36*
X155343238Y-108546071D02*
G01*
X154249557Y-108546071D01*
X154249557Y-108051682D01*
X154360668Y-108051682D01*
X154366353Y-108117758D01*
X154383339Y-108181228D01*
X154412020Y-108242985D01*
X154450947Y-108298584D01*
X154499338Y-108345406D01*
X154558200Y-108384096D01*
X154622965Y-108412336D01*
X154690761Y-108429250D01*
X154762509Y-108434960D01*
X154857641Y-108434960D01*
X154925852Y-108428636D01*
X154989957Y-108409867D01*
X155051082Y-108378296D01*
X155106211Y-108336628D01*
X155148953Y-108290959D01*
X155180775Y-108240970D01*
X155208965Y-108172790D01*
X155226203Y-108098492D01*
X155232127Y-108016877D01*
X155227843Y-107946607D01*
X155215359Y-107881961D01*
X155195002Y-107822155D01*
X155161798Y-107761824D01*
X155119348Y-107714932D01*
X155085651Y-107692640D01*
X155057432Y-107686234D01*
X155030572Y-107691477D01*
X155007240Y-107707422D01*
X154991159Y-107730533D01*
X154985930Y-107756576D01*
X154992525Y-107784663D01*
X155021101Y-107818796D01*
X155052941Y-107855076D01*
X155070072Y-107885719D01*
X155085685Y-107943161D01*
X155091443Y-108017549D01*
X155086683Y-108082756D01*
X155073328Y-108137319D01*
X155052286Y-108183082D01*
X155023788Y-108221492D01*
X154987522Y-108253854D01*
X154947836Y-108276520D01*
X154903975Y-108290234D01*
X154854833Y-108294948D01*
X154763913Y-108294948D01*
X154708618Y-108290227D01*
X154660275Y-108276667D01*
X154617612Y-108254648D01*
X154579082Y-108225263D01*
X154549870Y-108194360D01*
X154528707Y-108161774D01*
X154508288Y-108106998D01*
X154501352Y-108046309D01*
X154505841Y-107996174D01*
X154519548Y-107945558D01*
X154541524Y-107899575D01*
X154567969Y-107867279D01*
X154585760Y-107855710D01*
X154611689Y-107848167D01*
X154649732Y-107836678D01*
X154669574Y-107822887D01*
X154680963Y-107803627D01*
X154685023Y-107777764D01*
X154679569Y-107749672D01*
X154663529Y-107727572D01*
X154637436Y-107713715D01*
X154591600Y-107708093D01*
X154472959Y-107708093D01*
X154427127Y-107713731D01*
X154401335Y-107727572D01*
X154385581Y-107749641D01*
X154380208Y-107777764D01*
X154382635Y-107794885D01*
X154389977Y-107810920D01*
X154401712Y-107825201D01*
X154419287Y-107839252D01*
X154393427Y-107886799D01*
X154375140Y-107937987D01*
X154364377Y-107992170D01*
X154360668Y-108051682D01*
X154249557Y-108051682D01*
X154249557Y-106921509D01*
X154380208Y-106921509D01*
X154380208Y-107049920D01*
X154385830Y-107095874D01*
X154399686Y-107122033D01*
X154421838Y-107138037D01*
X154450550Y-107143526D01*
X154480608Y-107140000D01*
X154506176Y-107129848D01*
X154516586Y-107117098D01*
X154520892Y-107090220D01*
X154676963Y-107218875D01*
X154520892Y-107348446D01*
X154516591Y-107321609D01*
X154506176Y-107308817D01*
X154480608Y-107298665D01*
X154450550Y-107295140D01*
X154421843Y-107300642D01*
X154399686Y-107316694D01*
X154385833Y-107342802D01*
X154380208Y-107388746D01*
X154380208Y-107517889D01*
X154385828Y-107563789D01*
X154399686Y-107589941D01*
X154421838Y-107605945D01*
X154450550Y-107611434D01*
X154479384Y-107606245D01*
X154501474Y-107591284D01*
X154515534Y-107567461D01*
X154520892Y-107530162D01*
X154786811Y-107309367D01*
X155067996Y-107541092D01*
X155073329Y-107578555D01*
X155087474Y-107603252D01*
X155109600Y-107619018D01*
X155138338Y-107624440D01*
X155167060Y-107618953D01*
X155189262Y-107602947D01*
X155203073Y-107576795D01*
X155208680Y-107530834D01*
X155208680Y-107373725D01*
X155203070Y-107327774D01*
X155189262Y-107301673D01*
X155167055Y-107285619D01*
X155138338Y-107280119D01*
X155109488Y-107285242D01*
X155087474Y-107299964D01*
X155073311Y-107323235D01*
X155067996Y-107358704D01*
X154896781Y-107218020D01*
X155067996Y-107075871D01*
X155073333Y-107111937D01*
X155087474Y-107135344D01*
X155109483Y-107150018D01*
X155138338Y-107155128D01*
X155167060Y-107149640D01*
X155189262Y-107133634D01*
X155203094Y-107107568D01*
X155208680Y-107062254D01*
X155208680Y-106904412D01*
X155203070Y-106858461D01*
X155189262Y-106832361D01*
X155167060Y-106816354D01*
X155138338Y-106810867D01*
X155109570Y-106816208D01*
X155087474Y-106831689D01*
X155073366Y-106856163D01*
X155067996Y-106894154D01*
X154786750Y-107127650D01*
X154520892Y-106909236D01*
X154515606Y-106873003D01*
X154501474Y-106848786D01*
X154479323Y-106833256D01*
X154450550Y-106827903D01*
X154421843Y-106833406D01*
X154399686Y-106849458D01*
X154385833Y-106875565D01*
X154380208Y-106921509D01*
X154249557Y-106921509D01*
X154249557Y-106699756D01*
X155343238Y-106699756D01*
X155343238Y-108546071D01*
G37*
D11*
G36*
X159011085Y-109752085D02*
G01*
X159060460Y-109763769D01*
X159101468Y-109782064D01*
X159135505Y-109806667D01*
X159164553Y-109838270D01*
X159184670Y-109872183D01*
X159196711Y-109908995D01*
X159200816Y-109949598D01*
X159197394Y-109983600D01*
X159187261Y-110015163D01*
X159170188Y-110044950D01*
X159147618Y-110071230D01*
X159117295Y-110096647D01*
X159077815Y-110121203D01*
X159113104Y-110155167D01*
X159153774Y-110200924D01*
X159221576Y-110298132D01*
X159260228Y-110301460D01*
X159277850Y-110308733D01*
X159296705Y-110331146D01*
X159302469Y-110354406D01*
X159298133Y-110377404D01*
X159285519Y-110395146D01*
X159264844Y-110406183D01*
X159228122Y-110410680D01*
X159164179Y-110410680D01*
X159087512Y-110300470D01*
X159026126Y-110227238D01*
X158977308Y-110182074D01*
X158938499Y-110157449D01*
X158827564Y-110157449D01*
X158827564Y-110298132D01*
X158867961Y-110298132D01*
X158904717Y-110302632D01*
X158925603Y-110313715D01*
X158938444Y-110331441D01*
X158942846Y-110354406D01*
X158938446Y-110377380D01*
X158925603Y-110395146D01*
X158904722Y-110406192D01*
X158867961Y-110410680D01*
X158698017Y-110410680D01*
X158661249Y-110406194D01*
X158640327Y-110395146D01*
X158627522Y-110377384D01*
X158623132Y-110354406D01*
X158627588Y-110331461D01*
X158640620Y-110313715D01*
X158661690Y-110302605D01*
X158698017Y-110298132D01*
X158715505Y-110298132D01*
X158715505Y-110044901D01*
X158827564Y-110044901D01*
X158915003Y-110044901D01*
X158961946Y-110041067D01*
X159001855Y-110030198D01*
X159047866Y-110008212D01*
X159070976Y-109988872D01*
X159084632Y-109966444D01*
X159088757Y-109945885D01*
X159085347Y-109926337D01*
X159074643Y-109907096D01*
X159054856Y-109887414D01*
X159030785Y-109873249D01*
X158998612Y-109863917D01*
X158955987Y-109860449D01*
X158827564Y-109860449D01*
X158827564Y-110044901D01*
X158715505Y-110044901D01*
X158715505Y-109860449D01*
X158698017Y-109860449D01*
X158661249Y-109855964D01*
X158640327Y-109844915D01*
X158627522Y-109827154D01*
X158623132Y-109804176D01*
X158627524Y-109781206D01*
X158640327Y-109763485D01*
X158661254Y-109752400D01*
X158698017Y-109747902D01*
X158951590Y-109747902D01*
X159011085Y-109752085D01*
G37*
G36*
X159778743Y-110141817D02*
G01*
X159811105Y-110146177D01*
X159831158Y-110157400D01*
X159843770Y-110175101D01*
X159848108Y-110198091D01*
X159843718Y-110221069D01*
X159830913Y-110238830D01*
X159810685Y-110250045D01*
X159778743Y-110254364D01*
X159778743Y-110298132D01*
X159811105Y-110302492D01*
X159831158Y-110313715D01*
X159843770Y-110331416D01*
X159848108Y-110354406D01*
X159843718Y-110377384D01*
X159830913Y-110395146D01*
X159810033Y-110406192D01*
X159773272Y-110410680D01*
X159622965Y-110410680D01*
X159586197Y-110406194D01*
X159565275Y-110395146D01*
X159552470Y-110377384D01*
X159548080Y-110354406D01*
X159552472Y-110331437D01*
X159565275Y-110313715D01*
X159586202Y-110302630D01*
X159622965Y-110298132D01*
X159666684Y-110298132D01*
X159666684Y-110254364D01*
X159362309Y-110254364D01*
X159362309Y-110160477D01*
X159373281Y-110141817D01*
X159504361Y-110141817D01*
X159666684Y-110141817D01*
X159666684Y-109865823D01*
X159504361Y-110141817D01*
X159373281Y-110141817D01*
X159630634Y-109704134D01*
X159778743Y-109704134D01*
X159778743Y-110141817D01*
G37*
G36*
X158911085Y-105852085D02*
G01*
X158960460Y-105863769D01*
X159001468Y-105882064D01*
X159035505Y-105906667D01*
X159064553Y-105938270D01*
X159084670Y-105972183D01*
X159096711Y-106008995D01*
X159100816Y-106049598D01*
X159097394Y-106083600D01*
X159087261Y-106115163D01*
X159070188Y-106144950D01*
X159047618Y-106171230D01*
X159017295Y-106196647D01*
X158977815Y-106221203D01*
X159013104Y-106255167D01*
X159053774Y-106300924D01*
X159121576Y-106398132D01*
X159160228Y-106401460D01*
X159177850Y-106408733D01*
X159196705Y-106431146D01*
X159202469Y-106454406D01*
X159198133Y-106477404D01*
X159185519Y-106495146D01*
X159164844Y-106506183D01*
X159128122Y-106510680D01*
X159064179Y-106510680D01*
X158987512Y-106400470D01*
X158926126Y-106327238D01*
X158877308Y-106282074D01*
X158838499Y-106257449D01*
X158727564Y-106257449D01*
X158727564Y-106398132D01*
X158767961Y-106398132D01*
X158804717Y-106402632D01*
X158825603Y-106413715D01*
X158838444Y-106431441D01*
X158842846Y-106454406D01*
X158838446Y-106477380D01*
X158825603Y-106495146D01*
X158804722Y-106506192D01*
X158767961Y-106510680D01*
X158598017Y-106510680D01*
X158561249Y-106506194D01*
X158540327Y-106495146D01*
X158527522Y-106477384D01*
X158523132Y-106454406D01*
X158527588Y-106431461D01*
X158540620Y-106413715D01*
X158561690Y-106402605D01*
X158598017Y-106398132D01*
X158615505Y-106398132D01*
X158615505Y-106144901D01*
X158727564Y-106144901D01*
X158815003Y-106144901D01*
X158861946Y-106141067D01*
X158901855Y-106130198D01*
X158947866Y-106108212D01*
X158970976Y-106088872D01*
X158984632Y-106066444D01*
X158988757Y-106045885D01*
X158985347Y-106026337D01*
X158974643Y-106007096D01*
X158954856Y-105987414D01*
X158930785Y-105973249D01*
X158898612Y-105963917D01*
X158855987Y-105960449D01*
X158727564Y-105960449D01*
X158727564Y-106144901D01*
X158615505Y-106144901D01*
X158615505Y-105960449D01*
X158598017Y-105960449D01*
X158561249Y-105955964D01*
X158540327Y-105944915D01*
X158527522Y-105927154D01*
X158523132Y-105904176D01*
X158527524Y-105881206D01*
X158540327Y-105863485D01*
X158561254Y-105852400D01*
X158598017Y-105847902D01*
X158851590Y-105847902D01*
X158911085Y-105852085D01*
G37*
G36*
X159571618Y-105785376D02*
G01*
X159571618Y-106398132D01*
X159684751Y-106398132D01*
X159721507Y-106402632D01*
X159742393Y-106413715D01*
X159755196Y-106431437D01*
X159759587Y-106454406D01*
X159755198Y-106477384D01*
X159742393Y-106495146D01*
X159721512Y-106506192D01*
X159684751Y-106510680D01*
X159346475Y-106510680D01*
X159309707Y-106506194D01*
X159288785Y-106495146D01*
X159275980Y-106477384D01*
X159271590Y-106454406D01*
X159275982Y-106431437D01*
X159288785Y-106413715D01*
X159309712Y-106402630D01*
X159346475Y-106398132D01*
X159459560Y-106398132D01*
X159459560Y-105933436D01*
X159359566Y-105960058D01*
X159323516Y-105966702D01*
X159303854Y-105962499D01*
X159286636Y-105949507D01*
X159275022Y-105930567D01*
X159271053Y-105907351D01*
X159274126Y-105886434D01*
X159282532Y-105871594D01*
X159297852Y-105860528D01*
X159330599Y-105848586D01*
X159571618Y-105785376D01*
G37*
D10*
G36*
X158090011Y-93665417D02*
G01*
X158090011Y-93900012D01*
X158084483Y-93946006D01*
X158070899Y-93972125D01*
X158048994Y-93988167D01*
X158020341Y-93993680D01*
X157991676Y-93988182D01*
X157969478Y-93972125D01*
X157955622Y-93945966D01*
X157949999Y-93900012D01*
X157949999Y-93665417D01*
X157749842Y-93665417D01*
X157703895Y-93659779D01*
X157677730Y-93645878D01*
X157661725Y-93623558D01*
X157656236Y-93594709D01*
X157661727Y-93565870D01*
X157677730Y-93543601D01*
X157703898Y-93529812D01*
X157749842Y-93524733D01*
X157949999Y-93524733D01*
X157949999Y-93290382D01*
X157955593Y-93244801D01*
X157969478Y-93218392D01*
X157991707Y-93202049D01*
X158020341Y-93196471D01*
X158049053Y-93201985D01*
X158071266Y-93218086D01*
X158085117Y-93244267D01*
X158090744Y-93290382D01*
X158090011Y-93524733D01*
X158290168Y-93524733D01*
X158336139Y-93530295D01*
X158362220Y-93543967D01*
X158378258Y-93565940D01*
X158383775Y-93594709D01*
X158378272Y-93623553D01*
X158362220Y-93645878D01*
X158336106Y-93659777D01*
X158290168Y-93665417D01*
X158090011Y-93665417D01*
G37*
G36*
X159059045Y-93526260D02*
G01*
X159098032Y-93556846D01*
X159128666Y-93589381D01*
X159151918Y-93624018D01*
X159168867Y-93662061D01*
X159179167Y-93703249D01*
X159182693Y-93748276D01*
X159178162Y-93796590D01*
X159164703Y-93842077D01*
X159142026Y-93885541D01*
X159111423Y-93923573D01*
X159072552Y-93955259D01*
X159024179Y-93980857D01*
X158971669Y-93997827D01*
X158905244Y-94009085D01*
X158822007Y-94013219D01*
X158738029Y-94009312D01*
X158671158Y-93998689D01*
X158618483Y-93982732D01*
X158577459Y-93962416D01*
X158550696Y-93940547D01*
X158536295Y-93917993D01*
X158531664Y-93893784D01*
X158536749Y-93865803D01*
X158551814Y-93842676D01*
X158574141Y-93826951D01*
X158600662Y-93821733D01*
X158620203Y-93824961D01*
X158641634Y-93835471D01*
X158671906Y-93853129D01*
X158698359Y-93862949D01*
X158743169Y-93869796D01*
X158811077Y-93872535D01*
X158892989Y-93868141D01*
X158949896Y-93856876D01*
X158988031Y-93841028D01*
X159019054Y-93816354D01*
X159036682Y-93787179D01*
X159042681Y-93751879D01*
X159035075Y-93710826D01*
X159010868Y-93669508D01*
X158974392Y-93634792D01*
X158925872Y-93608142D01*
X158889686Y-93598674D01*
X158822007Y-93591167D01*
X158790265Y-93584392D01*
X158768335Y-93569674D01*
X158754348Y-93548076D01*
X158749589Y-93521497D01*
X158754753Y-93493729D01*
X158770045Y-93471000D01*
X158793024Y-93455720D01*
X158822007Y-93450483D01*
X158896440Y-93449812D01*
X158923362Y-93444146D01*
X158951090Y-93432104D01*
X158975800Y-93414279D01*
X158995175Y-93390888D01*
X159007837Y-93363850D01*
X159011906Y-93336727D01*
X159007691Y-93308997D01*
X158995008Y-93283767D01*
X158972644Y-93260096D01*
X158944589Y-93243170D01*
X158906339Y-93231938D01*
X158854797Y-93227734D01*
X158804692Y-93231918D01*
X158763288Y-93243643D01*
X158728937Y-93262201D01*
X158700435Y-93287634D01*
X158675156Y-93309922D01*
X158660125Y-93315650D01*
X158643038Y-93317615D01*
X158616439Y-93312448D01*
X158593823Y-93296855D01*
X158578541Y-93273813D01*
X158573368Y-93245625D01*
X158579294Y-93216525D01*
X158598664Y-93186083D01*
X158636200Y-93152812D01*
X158683213Y-93124820D01*
X158736309Y-93104328D01*
X158796510Y-93091527D01*
X158865055Y-93087050D01*
X158929376Y-93092092D01*
X158984544Y-93106420D01*
X159032147Y-93129355D01*
X159073394Y-93160934D01*
X159108292Y-93200473D01*
X159132519Y-93242766D01*
X159147034Y-93288527D01*
X159151979Y-93338803D01*
X159146118Y-93391252D01*
X159128715Y-93439737D01*
X159100372Y-93483941D01*
X159059045Y-93526260D01*
G37*
G36*
X159698106Y-93789309D02*
G01*
X159901011Y-93305892D01*
X159868893Y-93305892D01*
X159822933Y-93300285D01*
X159796780Y-93286474D01*
X159780774Y-93264272D01*
X159775287Y-93235550D01*
X159780776Y-93206838D01*
X159796780Y-93184686D01*
X159822939Y-93170830D01*
X159868893Y-93165208D01*
X160056777Y-93165208D01*
X160102667Y-93170831D01*
X160128768Y-93184686D01*
X160144819Y-93206843D01*
X160150322Y-93235550D01*
X160142740Y-93264522D01*
X160117532Y-93292947D01*
X160097277Y-93301856D01*
X160053358Y-93305892D01*
X159765762Y-93993680D01*
X159631184Y-93993680D01*
X159344260Y-93305892D01*
X159299770Y-93301758D01*
X159279352Y-93292641D01*
X159260303Y-93273832D01*
X159249906Y-93255041D01*
X159246562Y-93235550D01*
X159252065Y-93206843D01*
X159268117Y-93184686D01*
X159294224Y-93170833D01*
X159340168Y-93165208D01*
X159529396Y-93165208D01*
X159574747Y-93170813D01*
X159600776Y-93184686D01*
X159616780Y-93206838D01*
X159622269Y-93235550D01*
X159616849Y-93264298D01*
X159601081Y-93286474D01*
X159575288Y-93300268D01*
X159529396Y-93305892D01*
X159496606Y-93305892D01*
X159698106Y-93789309D01*
G37*
G36*
X160737482Y-93526260D02*
G01*
X160776469Y-93556846D01*
X160807103Y-93589381D01*
X160830355Y-93624018D01*
X160847304Y-93662061D01*
X160857604Y-93703249D01*
X160861130Y-93748276D01*
X160856599Y-93796590D01*
X160843139Y-93842077D01*
X160820463Y-93885541D01*
X160789860Y-93923573D01*
X160750989Y-93955259D01*
X160702616Y-93980857D01*
X160650106Y-93997827D01*
X160583681Y-94009085D01*
X160500444Y-94013219D01*
X160416466Y-94009312D01*
X160349595Y-93998689D01*
X160296920Y-93982732D01*
X160255896Y-93962416D01*
X160229133Y-93940547D01*
X160214731Y-93917993D01*
X160210100Y-93893784D01*
X160215186Y-93865803D01*
X160230250Y-93842676D01*
X160252578Y-93826951D01*
X160279099Y-93821733D01*
X160298640Y-93824961D01*
X160320071Y-93835471D01*
X160350343Y-93853129D01*
X160376796Y-93862949D01*
X160421605Y-93869796D01*
X160489514Y-93872535D01*
X160571426Y-93868141D01*
X160628333Y-93856876D01*
X160666468Y-93841028D01*
X160697491Y-93816354D01*
X160715119Y-93787179D01*
X160721118Y-93751879D01*
X160713512Y-93710826D01*
X160689305Y-93669508D01*
X160652829Y-93634792D01*
X160604308Y-93608142D01*
X160568123Y-93598674D01*
X160500444Y-93591167D01*
X160468702Y-93584392D01*
X160446772Y-93569674D01*
X160432785Y-93548076D01*
X160428026Y-93521497D01*
X160433190Y-93493729D01*
X160448481Y-93471000D01*
X160471460Y-93455720D01*
X160500444Y-93450483D01*
X160574877Y-93449812D01*
X160601798Y-93444146D01*
X160629526Y-93432104D01*
X160654236Y-93414279D01*
X160673612Y-93390888D01*
X160686274Y-93363850D01*
X160690343Y-93336727D01*
X160686128Y-93308997D01*
X160673444Y-93283767D01*
X160651081Y-93260096D01*
X160623026Y-93243170D01*
X160584776Y-93231938D01*
X160533234Y-93227734D01*
X160483128Y-93231918D01*
X160441725Y-93243643D01*
X160407374Y-93262201D01*
X160378872Y-93287634D01*
X160353593Y-93309922D01*
X160338562Y-93315650D01*
X160321475Y-93317615D01*
X160294876Y-93312448D01*
X160272260Y-93296855D01*
X160256977Y-93273813D01*
X160251805Y-93245625D01*
X160257730Y-93216525D01*
X160277101Y-93186083D01*
X160314636Y-93152812D01*
X160361650Y-93124820D01*
X160414746Y-93104328D01*
X160474947Y-93091527D01*
X160543492Y-93087050D01*
X160607812Y-93092092D01*
X160662981Y-93106420D01*
X160710584Y-93129355D01*
X160751831Y-93160934D01*
X160786728Y-93200473D01*
X160810956Y-93242766D01*
X160825471Y-93288527D01*
X160830416Y-93338803D01*
X160824555Y-93391252D01*
X160807152Y-93439737D01*
X160778809Y-93483941D01*
X160737482Y-93526260D01*
G37*
D11*
G36*
X164799120Y-100260449D02*
G01*
X164799120Y-100698132D01*
X164912253Y-100698132D01*
X164949009Y-100702632D01*
X164969894Y-100713715D01*
X164982736Y-100731441D01*
X164987138Y-100754406D01*
X164982737Y-100777380D01*
X164969894Y-100795146D01*
X164949014Y-100806192D01*
X164912253Y-100810680D01*
X164573977Y-100810680D01*
X164537216Y-100806192D01*
X164516336Y-100795146D01*
X164503531Y-100777384D01*
X164499141Y-100754406D01*
X164503532Y-100731437D01*
X164516336Y-100713715D01*
X164537221Y-100702632D01*
X164573977Y-100698132D01*
X164687110Y-100698132D01*
X164687110Y-100260449D01*
X164573977Y-100260449D01*
X164537216Y-100255962D01*
X164516336Y-100244915D01*
X164503531Y-100227154D01*
X164499141Y-100204176D01*
X164503532Y-100181206D01*
X164516336Y-100163485D01*
X164537221Y-100152402D01*
X164573977Y-100147902D01*
X164912253Y-100147902D01*
X164949009Y-100152402D01*
X164969894Y-100163485D01*
X164982736Y-100181210D01*
X164987138Y-100204176D01*
X164982737Y-100227150D01*
X164969894Y-100244915D01*
X164949014Y-100255962D01*
X164912253Y-100260449D01*
X164799120Y-100260449D01*
G37*
G36*
X165309832Y-100698132D02*
G01*
X165555247Y-100698132D01*
X165575793Y-100686060D01*
X165593495Y-100682501D01*
X165616849Y-100686892D01*
X165634186Y-100699500D01*
X165644843Y-100720197D01*
X165649232Y-100757532D01*
X165649232Y-100810680D01*
X165138813Y-100810680D01*
X165138813Y-100691880D01*
X165345779Y-100518094D01*
X165455734Y-100419947D01*
X165504396Y-100370945D01*
X165523028Y-100345248D01*
X165533011Y-100322432D01*
X165536098Y-100301629D01*
X165532273Y-100275893D01*
X165520709Y-100252070D01*
X165500292Y-100229333D01*
X165474757Y-100212354D01*
X165443485Y-100201722D01*
X165404940Y-100197923D01*
X165366145Y-100201975D01*
X165333213Y-100213562D01*
X165304898Y-100232508D01*
X165286891Y-100254196D01*
X165271583Y-100287072D01*
X165261970Y-100307318D01*
X165250530Y-100319507D01*
X165235934Y-100326689D01*
X165217459Y-100329228D01*
X165196115Y-100325165D01*
X165177843Y-100312913D01*
X165165273Y-100295028D01*
X165161185Y-100274811D01*
X165163930Y-100253676D01*
X165173304Y-100226982D01*
X165191520Y-100193136D01*
X165214372Y-100163155D01*
X165243587Y-100137093D01*
X165280034Y-100114783D01*
X165319745Y-100098518D01*
X165361735Y-100088705D01*
X165406552Y-100085376D01*
X165458807Y-100089656D01*
X165504464Y-100101933D01*
X165544689Y-100121803D01*
X165580355Y-100149465D01*
X165610377Y-100183704D01*
X165631273Y-100220497D01*
X165643824Y-100260474D01*
X165648108Y-100304559D01*
X165643198Y-100349479D01*
X165628715Y-100390435D01*
X165600583Y-100431770D01*
X165535512Y-100500003D01*
X165463494Y-100565434D01*
X165309832Y-100698132D01*
G37*
G36*
X158936085Y-104052085D02*
G01*
X158985460Y-104063769D01*
X159026468Y-104082064D01*
X159060505Y-104106667D01*
X159089553Y-104138270D01*
X159109670Y-104172183D01*
X159121711Y-104208995D01*
X159125816Y-104249598D01*
X159122394Y-104283600D01*
X159112261Y-104315163D01*
X159095188Y-104344950D01*
X159072618Y-104371230D01*
X159042295Y-104396647D01*
X159002815Y-104421203D01*
X159038104Y-104455167D01*
X159078774Y-104500924D01*
X159146576Y-104598132D01*
X159185228Y-104601460D01*
X159202850Y-104608733D01*
X159221705Y-104631146D01*
X159227469Y-104654406D01*
X159223133Y-104677404D01*
X159210519Y-104695146D01*
X159189844Y-104706183D01*
X159153122Y-104710680D01*
X159089179Y-104710680D01*
X159012512Y-104600470D01*
X158951126Y-104527238D01*
X158902308Y-104482074D01*
X158863499Y-104457449D01*
X158752564Y-104457449D01*
X158752564Y-104598132D01*
X158792961Y-104598132D01*
X158829717Y-104602632D01*
X158850603Y-104613715D01*
X158863444Y-104631441D01*
X158867846Y-104654406D01*
X158863446Y-104677380D01*
X158850603Y-104695146D01*
X158829722Y-104706192D01*
X158792961Y-104710680D01*
X158623017Y-104710680D01*
X158586249Y-104706194D01*
X158565327Y-104695146D01*
X158552522Y-104677384D01*
X158548132Y-104654406D01*
X158552588Y-104631461D01*
X158565620Y-104613715D01*
X158586690Y-104602605D01*
X158623017Y-104598132D01*
X158640505Y-104598132D01*
X158640505Y-104344901D01*
X158752564Y-104344901D01*
X158840003Y-104344901D01*
X158886946Y-104341067D01*
X158926855Y-104330198D01*
X158972866Y-104308212D01*
X158995976Y-104288872D01*
X159009632Y-104266444D01*
X159013757Y-104245885D01*
X159010347Y-104226337D01*
X158999643Y-104207096D01*
X158979856Y-104187414D01*
X158955785Y-104173249D01*
X158923612Y-104163917D01*
X158880987Y-104160449D01*
X158752564Y-104160449D01*
X158752564Y-104344901D01*
X158640505Y-104344901D01*
X158640505Y-104160449D01*
X158623017Y-104160449D01*
X158586249Y-104155964D01*
X158565327Y-104144915D01*
X158552522Y-104127154D01*
X158548132Y-104104176D01*
X158552524Y-104081206D01*
X158565327Y-104063485D01*
X158586254Y-104052400D01*
X158623017Y-104047902D01*
X158876590Y-104047902D01*
X158936085Y-104052085D01*
G37*
G36*
X159434832Y-104598132D02*
G01*
X159680247Y-104598132D01*
X159700793Y-104586060D01*
X159718495Y-104582501D01*
X159741849Y-104586892D01*
X159759186Y-104599500D01*
X159769843Y-104620197D01*
X159774232Y-104657532D01*
X159774232Y-104710680D01*
X159263813Y-104710680D01*
X159263813Y-104591880D01*
X159470779Y-104418094D01*
X159580734Y-104319947D01*
X159629396Y-104270945D01*
X159648028Y-104245248D01*
X159658011Y-104222432D01*
X159661098Y-104201629D01*
X159657273Y-104175893D01*
X159645709Y-104152070D01*
X159625292Y-104129333D01*
X159599757Y-104112354D01*
X159568485Y-104101722D01*
X159529940Y-104097923D01*
X159491145Y-104101975D01*
X159458213Y-104113562D01*
X159429898Y-104132508D01*
X159411891Y-104154196D01*
X159396583Y-104187072D01*
X159386970Y-104207318D01*
X159375530Y-104219507D01*
X159360934Y-104226689D01*
X159342459Y-104229228D01*
X159321115Y-104225165D01*
X159302843Y-104212913D01*
X159290273Y-104195028D01*
X159286185Y-104174811D01*
X159288930Y-104153676D01*
X159298304Y-104126982D01*
X159316520Y-104093136D01*
X159339372Y-104063155D01*
X159368587Y-104037093D01*
X159405034Y-104014783D01*
X159444745Y-103998518D01*
X159486735Y-103988705D01*
X159531552Y-103985376D01*
X159583807Y-103989656D01*
X159629464Y-104001933D01*
X159669689Y-104021803D01*
X159705355Y-104049465D01*
X159735377Y-104083704D01*
X159756273Y-104120497D01*
X159768824Y-104160474D01*
X159773108Y-104204559D01*
X159768198Y-104249479D01*
X159753715Y-104290435D01*
X159725583Y-104331770D01*
X159660512Y-104400003D01*
X159588494Y-104465434D01*
X159434832Y-104598132D01*
G37*
G36*
X159279165Y-98538511D02*
G01*
X159265105Y-98527271D01*
X159255718Y-98515846D01*
X159249844Y-98503018D01*
X159247902Y-98489321D01*
X159252201Y-98466823D01*
X159264804Y-98449167D01*
X159285438Y-98438094D01*
X159322103Y-98433585D01*
X159417016Y-98433585D01*
X159453685Y-98438082D01*
X159474559Y-98449167D01*
X159487391Y-98466847D01*
X159491754Y-98489321D01*
X159488506Y-98510011D01*
X159479395Y-98525420D01*
X159463522Y-98536452D01*
X159433087Y-98545643D01*
X159412344Y-98551678D01*
X159398111Y-98560933D01*
X159376955Y-98586770D01*
X159359375Y-98623557D01*
X159348409Y-98664049D01*
X159344818Y-98704157D01*
X159350366Y-98752709D01*
X159366702Y-98796529D01*
X159383632Y-98822598D01*
X159407001Y-98847320D01*
X159437825Y-98870828D01*
X159471956Y-98888443D01*
X159510630Y-98899292D01*
X159554867Y-98903068D01*
X159627602Y-98903068D01*
X159666916Y-98899297D01*
X159702005Y-98888326D01*
X159733754Y-98870193D01*
X159762766Y-98844303D01*
X159785565Y-98813575D01*
X159802399Y-98776965D01*
X159813083Y-98733314D01*
X159816890Y-98681149D01*
X159812284Y-98621639D01*
X159799793Y-98575685D01*
X159786088Y-98551170D01*
X159760617Y-98522147D01*
X159737756Y-98494841D01*
X159732480Y-98472370D01*
X159736663Y-98451536D01*
X159749528Y-98433047D01*
X159768193Y-98420291D01*
X159789682Y-98416097D01*
X159812256Y-98421222D01*
X159839214Y-98439056D01*
X159873175Y-98476569D01*
X159899737Y-98524834D01*
X159916023Y-98572679D01*
X159926010Y-98624396D01*
X159929437Y-98680612D01*
X159924698Y-98745904D01*
X159910908Y-98805342D01*
X159888356Y-98859886D01*
X159862898Y-98899877D01*
X159828704Y-98936412D01*
X159784601Y-98969746D01*
X159735701Y-98995003D01*
X159684417Y-99010019D01*
X159629849Y-99015078D01*
X159553743Y-99015078D01*
X159496345Y-99010510D01*
X159442108Y-98996978D01*
X159390296Y-98974387D01*
X159343206Y-98943435D01*
X159304493Y-98905977D01*
X159273352Y-98861498D01*
X159250407Y-98812093D01*
X159236818Y-98761317D01*
X159232271Y-98708455D01*
X159235238Y-98660846D01*
X159243848Y-98617499D01*
X159258478Y-98576549D01*
X159279165Y-98538511D01*
G37*
G36*
X159798132Y-98147527D02*
G01*
X159798132Y-97902112D01*
X159786060Y-97881566D01*
X159782501Y-97863864D01*
X159786892Y-97840510D01*
X159799500Y-97823173D01*
X159820197Y-97812516D01*
X159857532Y-97808127D01*
X159910680Y-97808127D01*
X159910680Y-98318546D01*
X159791880Y-98318546D01*
X159618094Y-98111580D01*
X159519947Y-98001625D01*
X159470945Y-97952963D01*
X159445248Y-97934331D01*
X159422432Y-97924348D01*
X159401629Y-97921261D01*
X159375893Y-97925086D01*
X159352070Y-97936650D01*
X159329333Y-97957067D01*
X159312354Y-97982602D01*
X159301722Y-98013874D01*
X159297923Y-98052419D01*
X159301975Y-98091214D01*
X159313562Y-98124146D01*
X159332508Y-98152461D01*
X159354196Y-98170468D01*
X159387072Y-98185776D01*
X159407318Y-98195389D01*
X159419507Y-98206829D01*
X159426689Y-98221425D01*
X159429228Y-98239900D01*
X159425165Y-98261244D01*
X159412913Y-98279516D01*
X159395028Y-98292086D01*
X159374811Y-98296174D01*
X159353676Y-98293429D01*
X159326982Y-98284055D01*
X159293136Y-98265839D01*
X159263155Y-98242987D01*
X159237093Y-98213772D01*
X159214783Y-98177325D01*
X159198518Y-98137614D01*
X159188705Y-98095624D01*
X159185376Y-98050807D01*
X159189656Y-97998552D01*
X159201933Y-97952895D01*
X159221803Y-97912670D01*
X159249465Y-97877004D01*
X159283704Y-97846982D01*
X159320497Y-97826086D01*
X159360474Y-97813535D01*
X159404559Y-97809251D01*
X159449479Y-97814161D01*
X159490435Y-97828644D01*
X159531770Y-97856776D01*
X159600003Y-97921847D01*
X159665434Y-97993865D01*
X159798132Y-98147527D01*
G37*
G36*
X159048964Y-113273514D02*
G01*
X159096884Y-113285636D01*
X159137671Y-113304895D01*
X159172477Y-113331211D01*
X159201903Y-113364372D01*
X159222390Y-113400116D01*
X159234703Y-113439069D01*
X159238911Y-113482153D01*
X159233305Y-113529940D01*
X159216489Y-113575014D01*
X159195051Y-113606188D01*
X159159923Y-113639690D01*
X159119192Y-113668081D01*
X159079030Y-113687708D01*
X159034220Y-113699294D01*
X158970000Y-113703779D01*
X158863998Y-113703779D01*
X158863998Y-113819452D01*
X158977131Y-113819452D01*
X159013887Y-113823952D01*
X159034773Y-113835035D01*
X159047614Y-113852761D01*
X159052016Y-113875726D01*
X159047616Y-113898700D01*
X159034773Y-113916466D01*
X159013892Y-113927512D01*
X158977131Y-113932000D01*
X158734501Y-113932000D01*
X158697732Y-113927514D01*
X158676810Y-113916466D01*
X158664006Y-113898704D01*
X158659616Y-113875726D01*
X158664071Y-113852781D01*
X158677104Y-113835035D01*
X158698173Y-113823925D01*
X158734501Y-113819452D01*
X158751988Y-113819452D01*
X158751988Y-113591232D01*
X158863998Y-113591232D01*
X158967850Y-113591232D01*
X159015670Y-113587159D01*
X159053704Y-113575927D01*
X159083963Y-113558406D01*
X159108472Y-113534147D01*
X159122275Y-113508177D01*
X159126852Y-113479466D01*
X159123141Y-113454960D01*
X159111932Y-113432435D01*
X159092121Y-113411078D01*
X159067356Y-113395541D01*
X159035020Y-113385470D01*
X158992958Y-113381769D01*
X158863998Y-113381769D01*
X158863998Y-113591232D01*
X158751988Y-113591232D01*
X158751988Y-113381769D01*
X158734501Y-113381769D01*
X158697732Y-113377284D01*
X158676810Y-113366235D01*
X158664006Y-113348474D01*
X158659616Y-113325496D01*
X158664007Y-113302526D01*
X158676810Y-113284805D01*
X158697737Y-113273720D01*
X158734501Y-113269222D01*
X158992421Y-113269222D01*
X159048964Y-113273514D01*
G37*
G36*
X159600390Y-113612432D02*
G01*
X159496587Y-113932000D01*
X159370900Y-113932000D01*
X159304222Y-113381769D01*
X159280993Y-113377820D01*
X159265387Y-113367017D01*
X159255777Y-113350250D01*
X159252295Y-113327059D01*
X159256661Y-113303952D01*
X159269490Y-113285586D01*
X159290502Y-113273919D01*
X159327180Y-113269222D01*
X159476364Y-113269222D01*
X159513119Y-113273722D01*
X159534005Y-113284805D01*
X159546808Y-113302526D01*
X159551200Y-113325496D01*
X159546810Y-113348474D01*
X159534005Y-113366235D01*
X159513125Y-113377282D01*
X159476364Y-113381769D01*
X159417892Y-113381769D01*
X159455017Y-113693716D01*
X159543042Y-113431790D01*
X159659448Y-113431790D01*
X159746887Y-113693716D01*
X159784012Y-113381769D01*
X159725540Y-113381769D01*
X159688780Y-113377282D01*
X159667899Y-113366235D01*
X159655094Y-113348474D01*
X159650704Y-113325496D01*
X159655096Y-113302526D01*
X159667899Y-113284805D01*
X159688785Y-113273722D01*
X159725540Y-113269222D01*
X159874187Y-113269222D01*
X159910942Y-113273722D01*
X159931828Y-113284805D01*
X159944669Y-113302530D01*
X159949071Y-113325496D01*
X159945480Y-113348765D01*
X159935394Y-113366235D01*
X159919312Y-113377659D01*
X159896071Y-113381769D01*
X159831591Y-113932000D01*
X159708053Y-113932000D01*
X159600390Y-113612432D01*
G37*
G36*
X160339466Y-113273405D02*
G01*
X160388841Y-113285089D01*
X160429850Y-113303384D01*
X160463887Y-113327987D01*
X160492934Y-113359590D01*
X160513052Y-113393503D01*
X160525093Y-113430315D01*
X160529197Y-113470918D01*
X160525775Y-113504920D01*
X160515643Y-113536483D01*
X160498569Y-113566270D01*
X160475999Y-113592550D01*
X160445676Y-113617967D01*
X160406196Y-113642523D01*
X160441486Y-113676487D01*
X160482156Y-113722244D01*
X160549958Y-113819452D01*
X160588610Y-113822780D01*
X160606231Y-113830053D01*
X160625086Y-113852466D01*
X160630851Y-113875726D01*
X160626515Y-113898724D01*
X160613901Y-113916466D01*
X160593225Y-113927503D01*
X160556503Y-113932000D01*
X160492561Y-113932000D01*
X160415894Y-113821790D01*
X160354507Y-113748558D01*
X160305689Y-113703394D01*
X160266880Y-113678769D01*
X160155945Y-113678769D01*
X160155945Y-113819452D01*
X160196343Y-113819452D01*
X160233098Y-113823952D01*
X160253984Y-113835035D01*
X160266826Y-113852761D01*
X160271228Y-113875726D01*
X160266827Y-113898700D01*
X160253984Y-113916466D01*
X160233104Y-113927512D01*
X160196343Y-113932000D01*
X160026399Y-113932000D01*
X159989630Y-113927514D01*
X159968709Y-113916466D01*
X159955904Y-113898704D01*
X159951514Y-113875726D01*
X159955970Y-113852781D01*
X159969002Y-113835035D01*
X159990071Y-113823925D01*
X160026399Y-113819452D01*
X160043887Y-113819452D01*
X160043887Y-113566221D01*
X160155945Y-113566221D01*
X160243384Y-113566221D01*
X160290327Y-113562387D01*
X160330237Y-113551518D01*
X160376247Y-113529532D01*
X160399358Y-113510192D01*
X160413013Y-113487764D01*
X160417138Y-113467205D01*
X160413729Y-113447657D01*
X160403025Y-113428416D01*
X160383238Y-113408734D01*
X160359166Y-113394569D01*
X160326994Y-113385237D01*
X160284368Y-113381769D01*
X160155945Y-113381769D01*
X160155945Y-113566221D01*
X160043887Y-113566221D01*
X160043887Y-113381769D01*
X160026399Y-113381769D01*
X159989630Y-113377284D01*
X159968709Y-113366235D01*
X159955904Y-113348474D01*
X159951514Y-113325496D01*
X159955905Y-113302526D01*
X159968709Y-113284805D01*
X159989636Y-113273720D01*
X160026399Y-113269222D01*
X160279972Y-113269222D01*
X160339466Y-113273405D01*
G37*
G36*
X160281769Y-106779524D02*
G01*
X160600555Y-106779524D01*
X160651192Y-106784278D01*
X160696970Y-106798167D01*
X160738923Y-106821198D01*
X160777778Y-106854116D01*
X160809934Y-106893651D01*
X160832487Y-106936228D01*
X160846100Y-106982559D01*
X160850757Y-107033634D01*
X160846093Y-107084304D01*
X160832341Y-107131185D01*
X160809765Y-107174317D01*
X160778315Y-107213153D01*
X160741182Y-107246010D01*
X160703967Y-107269720D01*
X160677371Y-107280347D01*
X160643459Y-107287364D01*
X160600555Y-107289943D01*
X160281769Y-107289943D01*
X160277423Y-107322318D01*
X160266235Y-107342406D01*
X160248494Y-107355021D01*
X160225496Y-107359357D01*
X160202506Y-107355019D01*
X160184805Y-107342406D01*
X160173747Y-107321663D01*
X160169222Y-107284472D01*
X160169222Y-107137487D01*
X160173722Y-107100731D01*
X160184805Y-107079845D01*
X160202530Y-107067004D01*
X160225496Y-107062602D01*
X160248470Y-107067002D01*
X160266235Y-107079845D01*
X160277282Y-107100726D01*
X160281769Y-107137487D01*
X160281769Y-107177933D01*
X160610374Y-107177933D01*
X160642252Y-107173422D01*
X160671642Y-107159855D01*
X160699522Y-107136119D01*
X160721001Y-107106358D01*
X160733815Y-107073120D01*
X160738210Y-107035295D01*
X160733539Y-106997133D01*
X160719550Y-106961485D01*
X160696859Y-106930425D01*
X160665230Y-106905212D01*
X160641002Y-106895136D01*
X160610374Y-106891534D01*
X160281769Y-106891534D01*
X160281769Y-106931981D01*
X160277284Y-106968749D01*
X160266235Y-106989671D01*
X160248474Y-107002476D01*
X160225496Y-107006865D01*
X160202526Y-107002474D01*
X160184805Y-106989671D01*
X160173720Y-106968744D01*
X160169222Y-106931981D01*
X160169222Y-106784995D01*
X160173722Y-106748240D01*
X160184805Y-106727354D01*
X160202530Y-106714513D01*
X160225496Y-106710110D01*
X160248494Y-106714446D01*
X160266235Y-106727061D01*
X160277423Y-106747149D01*
X160281769Y-106779524D01*
G37*
G36*
X160106696Y-106307061D02*
G01*
X160719452Y-106307061D01*
X160719452Y-106193928D01*
X160723952Y-106157172D01*
X160735035Y-106136286D01*
X160752757Y-106123483D01*
X160775726Y-106119092D01*
X160798704Y-106123481D01*
X160816466Y-106136286D01*
X160827512Y-106157167D01*
X160832000Y-106193928D01*
X160832000Y-106532204D01*
X160827514Y-106568972D01*
X160816466Y-106589894D01*
X160798704Y-106602699D01*
X160775726Y-106607089D01*
X160752757Y-106602697D01*
X160735035Y-106589894D01*
X160723950Y-106568967D01*
X160719452Y-106532204D01*
X160719452Y-106419119D01*
X160254756Y-106419119D01*
X160281378Y-106519113D01*
X160288022Y-106555163D01*
X160283819Y-106574825D01*
X160270827Y-106592043D01*
X160251887Y-106603657D01*
X160228671Y-106607626D01*
X160207754Y-106604553D01*
X160192914Y-106596147D01*
X160181848Y-106580827D01*
X160169906Y-106548080D01*
X160106696Y-106307061D01*
G37*
G36*
X161181769Y-110460725D02*
G01*
X161619452Y-110460725D01*
X161619452Y-110219168D01*
X161513158Y-110219168D01*
X161476273Y-110214664D01*
X161455370Y-110203586D01*
X161442525Y-110185827D01*
X161438127Y-110162895D01*
X161442502Y-110140383D01*
X161455370Y-110122693D01*
X161476273Y-110111614D01*
X161513158Y-110107110D01*
X161732000Y-110107110D01*
X161732000Y-110637801D01*
X161727516Y-110674526D01*
X161716466Y-110695442D01*
X161698704Y-110708247D01*
X161675726Y-110712637D01*
X161652757Y-110708245D01*
X161635035Y-110695442D01*
X161623949Y-110674521D01*
X161619452Y-110637801D01*
X161619452Y-110572734D01*
X161181769Y-110572734D01*
X161181769Y-110637801D01*
X161177285Y-110674526D01*
X161166235Y-110695442D01*
X161148474Y-110708247D01*
X161125496Y-110712637D01*
X161102526Y-110708245D01*
X161084805Y-110695442D01*
X161073719Y-110674521D01*
X161069222Y-110637801D01*
X161069222Y-110395121D01*
X161073722Y-110358366D01*
X161084805Y-110337480D01*
X161102526Y-110324676D01*
X161125496Y-110320285D01*
X161148474Y-110324675D01*
X161166235Y-110337480D01*
X161177282Y-110358360D01*
X161181769Y-110395121D01*
X161181769Y-110460725D01*
G37*
G36*
X161703863Y-109906293D02*
G01*
X161726968Y-109930083D01*
X161732000Y-109952211D01*
X161727577Y-109975606D01*
X161714756Y-109993439D01*
X161693881Y-110004537D01*
X161657505Y-110009022D01*
X161581937Y-110009022D01*
X161545087Y-110004521D01*
X161524149Y-109993439D01*
X161511330Y-109975599D01*
X161506905Y-109952162D01*
X161509627Y-109933788D01*
X161517408Y-109919141D01*
X161530457Y-109907888D01*
X161552432Y-109898673D01*
X161574702Y-109890647D01*
X161585796Y-109883872D01*
X161601568Y-109864227D01*
X161620576Y-109827598D01*
X161633708Y-109785704D01*
X161638210Y-109739036D01*
X161633979Y-109690240D01*
X161622090Y-109649794D01*
X161603186Y-109616084D01*
X161587216Y-109598548D01*
X161569956Y-109588749D01*
X161550674Y-109585505D01*
X161530833Y-109589077D01*
X161511595Y-109600257D01*
X161495634Y-109618375D01*
X161481211Y-109648324D01*
X161473078Y-109676971D01*
X161458789Y-109746168D01*
X161438516Y-109831868D01*
X161417757Y-109884947D01*
X161399381Y-109914261D01*
X161376851Y-109938898D01*
X161349857Y-109959294D01*
X161319699Y-109974525D01*
X161288285Y-109983563D01*
X161255091Y-109986600D01*
X161216524Y-109982495D01*
X161180668Y-109970304D01*
X161146710Y-109949638D01*
X161114114Y-109919385D01*
X161088204Y-109884213D01*
X161069408Y-109844015D01*
X161057697Y-109797853D01*
X161053591Y-109744507D01*
X161055985Y-109702265D01*
X161062872Y-109664444D01*
X161074662Y-109629000D01*
X161091106Y-109597522D01*
X161074204Y-109574674D01*
X161069222Y-109553802D01*
X161073606Y-109531337D01*
X161086515Y-109513649D01*
X161107442Y-109502552D01*
X161143912Y-109498066D01*
X161228468Y-109498066D01*
X161265412Y-109502568D01*
X161286403Y-109513649D01*
X161299311Y-109531337D01*
X161303695Y-109553802D01*
X161300542Y-109573320D01*
X161291239Y-109589901D01*
X161278967Y-109599647D01*
X161254456Y-109607926D01*
X161229117Y-109615396D01*
X161214889Y-109623216D01*
X161196597Y-109642130D01*
X161180255Y-109670746D01*
X161169828Y-109704081D01*
X161166138Y-109743970D01*
X161169626Y-109783514D01*
X161179256Y-109814928D01*
X161194323Y-109839908D01*
X161214852Y-109860661D01*
X161234170Y-109871682D01*
X161253088Y-109875128D01*
X161273168Y-109871651D01*
X161293339Y-109860669D01*
X161310212Y-109843392D01*
X161323674Y-109818317D01*
X161331594Y-109791464D01*
X161348294Y-109713683D01*
X161367406Y-109632889D01*
X161385517Y-109581402D01*
X161401485Y-109552510D01*
X161422514Y-109527037D01*
X161449069Y-109504660D01*
X161479184Y-109487870D01*
X161513179Y-109477597D01*
X161551993Y-109474032D01*
X161592554Y-109477891D01*
X161627578Y-109488960D01*
X161658165Y-109507006D01*
X161685056Y-109532504D01*
X161713202Y-109572910D01*
X161733620Y-109618658D01*
X161746318Y-109670721D01*
X161750757Y-109730341D01*
X161747813Y-109776292D01*
X161739034Y-109820808D01*
X161724478Y-109863920D01*
X161703863Y-109906293D01*
G37*
G36*
X161285914Y-109246398D02*
G01*
X161619452Y-109246398D01*
X161619452Y-109205951D01*
X161623952Y-109169196D01*
X161635035Y-109148310D01*
X161652761Y-109135469D01*
X161675726Y-109131067D01*
X161698700Y-109135467D01*
X161716466Y-109148310D01*
X161727512Y-109169191D01*
X161732000Y-109205951D01*
X161732000Y-109352937D01*
X161727512Y-109389697D01*
X161716466Y-109410578D01*
X161698700Y-109423421D01*
X161675726Y-109427822D01*
X161652736Y-109423484D01*
X161635035Y-109410871D01*
X161623810Y-109390778D01*
X161619452Y-109358408D01*
X161181769Y-109358408D01*
X161177560Y-109385206D01*
X161166235Y-109402958D01*
X161148652Y-109414095D01*
X161125496Y-109418003D01*
X161102526Y-109413612D01*
X161084805Y-109400808D01*
X161073720Y-109379881D01*
X161069222Y-109343118D01*
X161069222Y-109220166D01*
X161406863Y-109067710D01*
X161069222Y-108917940D01*
X161069222Y-108793914D01*
X161073722Y-108757158D01*
X161084805Y-108736272D01*
X161102530Y-108723431D01*
X161125496Y-108719029D01*
X161148632Y-108722993D01*
X161166235Y-108734319D01*
X161177589Y-108752204D01*
X161181769Y-108778575D01*
X161619452Y-108778575D01*
X161623812Y-108746213D01*
X161635035Y-108726161D01*
X161652736Y-108713548D01*
X161675726Y-108709210D01*
X161698704Y-108713600D01*
X161716466Y-108726405D01*
X161727512Y-108747286D01*
X161732000Y-108784046D01*
X161732000Y-108931618D01*
X161727528Y-108967904D01*
X161716466Y-108988722D01*
X161698704Y-109001527D01*
X161675726Y-109005917D01*
X161652757Y-109001525D01*
X161635035Y-108988722D01*
X161623937Y-108967899D01*
X161619452Y-108931618D01*
X161619452Y-108890634D01*
X161285914Y-108890634D01*
X161574609Y-109019057D01*
X161574609Y-109116314D01*
X161285914Y-109246398D01*
G37*
G36*
X161577568Y-108133733D02*
G01*
X161619119Y-108145500D01*
X161655445Y-108164544D01*
X161687401Y-108191122D01*
X161713074Y-108223520D01*
X161731765Y-108261374D01*
X161743488Y-108305747D01*
X161747631Y-108358038D01*
X161742689Y-108415420D01*
X161728794Y-108463077D01*
X161706696Y-108502874D01*
X161675908Y-108536413D01*
X161634587Y-108565060D01*
X161580569Y-108588652D01*
X161523083Y-108604429D01*
X161459984Y-108614228D01*
X161390548Y-108617619D01*
X161327697Y-108613689D01*
X161272667Y-108602478D01*
X161224324Y-108584593D01*
X161181720Y-108560271D01*
X161129382Y-108518877D01*
X161086635Y-108473941D01*
X161052565Y-108425254D01*
X161026884Y-108372018D01*
X161011746Y-108317640D01*
X161006696Y-108261318D01*
X161010203Y-108216452D01*
X161019718Y-108181828D01*
X161034247Y-108155268D01*
X161048049Y-108141392D01*
X161063566Y-108133402D01*
X161081483Y-108130697D01*
X161104964Y-108134870D01*
X161123981Y-108147110D01*
X161136876Y-108165204D01*
X161141127Y-108186433D01*
X161138336Y-108200549D01*
X161127303Y-108224144D01*
X161121154Y-108238998D01*
X161119243Y-108252574D01*
X161122357Y-108287620D01*
X161132022Y-108324412D01*
X161148992Y-108363509D01*
X161171762Y-108399316D01*
X161201904Y-108432398D01*
X161240339Y-108462965D01*
X161286916Y-108487331D01*
X161347464Y-108505072D01*
X161318446Y-108464214D01*
X161299934Y-108428038D01*
X161288730Y-108390407D01*
X161285188Y-108352567D01*
X161397484Y-108352567D01*
X161400685Y-108374125D01*
X161411068Y-108397962D01*
X161430506Y-108425009D01*
X161454361Y-108448333D01*
X161484669Y-108469580D01*
X161522488Y-108488659D01*
X161564766Y-108474107D01*
X161593216Y-108458198D01*
X161611295Y-108441374D01*
X161623865Y-108420211D01*
X161632063Y-108392492D01*
X161635084Y-108356377D01*
X161631530Y-108320665D01*
X161621762Y-108292952D01*
X161606410Y-108271429D01*
X161585578Y-108255199D01*
X161560047Y-108245189D01*
X161528448Y-108241632D01*
X161492266Y-108245609D01*
X161461463Y-108257027D01*
X161434854Y-108275826D01*
X161413490Y-108300432D01*
X161401443Y-108325733D01*
X161397484Y-108352567D01*
X161285188Y-108352567D01*
X161284937Y-108349880D01*
X161289240Y-108307509D01*
X161301981Y-108268218D01*
X161323462Y-108231161D01*
X161354693Y-108195763D01*
X161391462Y-108167030D01*
X161432293Y-108146542D01*
X161477985Y-108133976D01*
X161529620Y-108129622D01*
X161577568Y-108133733D01*
G37*
G36*
X161486554Y-107449068D02*
G01*
X161528294Y-107457221D01*
X161565621Y-107470313D01*
X161616241Y-107498643D01*
X161655258Y-107533425D01*
X161686413Y-107572830D01*
X161706305Y-107606894D01*
X161719866Y-107644247D01*
X161728759Y-107690797D01*
X161732000Y-107748457D01*
X161732000Y-107973600D01*
X161727514Y-108010368D01*
X161716466Y-108031290D01*
X161698704Y-108044095D01*
X161675726Y-108048485D01*
X161652757Y-108044093D01*
X161635035Y-108031290D01*
X161623782Y-108011016D01*
X161619452Y-107979071D01*
X161181769Y-107979071D01*
X161177423Y-108011446D01*
X161166235Y-108031534D01*
X161148494Y-108044149D01*
X161125496Y-108048485D01*
X161102526Y-108044093D01*
X161084805Y-108031290D01*
X161073720Y-108010363D01*
X161069222Y-107973600D01*
X161069737Y-107748945D01*
X161181769Y-107748945D01*
X161181769Y-107867012D01*
X161619452Y-107867012D01*
X161619452Y-107747871D01*
X161616892Y-107703446D01*
X161610156Y-107670809D01*
X161600353Y-107647340D01*
X161581622Y-107619647D01*
X161560386Y-107597641D01*
X161536508Y-107580662D01*
X161509753Y-107568737D01*
X161476738Y-107561029D01*
X161436075Y-107558240D01*
X161383123Y-107558240D01*
X161332504Y-107563512D01*
X161290360Y-107578464D01*
X161250746Y-107602238D01*
X161223100Y-107625985D01*
X161204972Y-107649783D01*
X161192515Y-107677129D01*
X161184595Y-107709809D01*
X161181769Y-107748945D01*
X161069737Y-107748945D01*
X161069759Y-107739175D01*
X161074787Y-107685288D01*
X161089983Y-107632344D01*
X161113689Y-107584020D01*
X161141323Y-107548422D01*
X161167637Y-107525123D01*
X161205803Y-107498450D01*
X161247327Y-107475363D01*
X161287233Y-107459371D01*
X161330122Y-107449797D01*
X161386152Y-107446231D01*
X161439690Y-107446231D01*
X161486554Y-107449068D01*
G37*
G36*
X161703863Y-107220794D02*
G01*
X161726968Y-107244584D01*
X161732000Y-107266712D01*
X161727577Y-107290107D01*
X161714756Y-107307940D01*
X161693881Y-107319038D01*
X161657505Y-107323523D01*
X161581937Y-107323523D01*
X161545087Y-107319022D01*
X161524149Y-107307940D01*
X161511330Y-107290100D01*
X161506905Y-107266663D01*
X161509627Y-107248289D01*
X161517408Y-107233642D01*
X161530457Y-107222389D01*
X161552432Y-107213174D01*
X161574702Y-107205148D01*
X161585796Y-107198373D01*
X161601568Y-107178728D01*
X161620576Y-107142099D01*
X161633708Y-107100205D01*
X161638210Y-107053537D01*
X161633979Y-107004741D01*
X161622090Y-106964295D01*
X161603186Y-106930585D01*
X161587216Y-106913049D01*
X161569956Y-106903250D01*
X161550674Y-106900006D01*
X161530833Y-106903578D01*
X161511595Y-106914758D01*
X161495634Y-106932876D01*
X161481211Y-106962825D01*
X161473078Y-106991472D01*
X161458789Y-107060669D01*
X161438516Y-107146369D01*
X161417757Y-107199448D01*
X161399381Y-107228762D01*
X161376851Y-107253399D01*
X161349857Y-107273795D01*
X161319699Y-107289026D01*
X161288285Y-107298064D01*
X161255091Y-107301101D01*
X161216524Y-107296996D01*
X161180668Y-107284805D01*
X161146710Y-107264139D01*
X161114114Y-107233886D01*
X161088204Y-107198714D01*
X161069408Y-107158516D01*
X161057697Y-107112354D01*
X161053591Y-107059008D01*
X161055985Y-107016766D01*
X161062872Y-106978945D01*
X161074662Y-106943501D01*
X161091106Y-106912023D01*
X161074204Y-106889175D01*
X161069222Y-106868303D01*
X161073606Y-106845838D01*
X161086515Y-106828150D01*
X161107442Y-106817053D01*
X161143912Y-106812567D01*
X161228468Y-106812567D01*
X161265412Y-106817069D01*
X161286403Y-106828150D01*
X161299311Y-106845838D01*
X161303695Y-106868303D01*
X161300542Y-106887821D01*
X161291239Y-106904402D01*
X161278967Y-106914148D01*
X161254456Y-106922427D01*
X161229117Y-106929897D01*
X161214889Y-106937717D01*
X161196597Y-106956631D01*
X161180255Y-106985247D01*
X161169828Y-107018582D01*
X161166138Y-107058471D01*
X161169626Y-107098015D01*
X161179256Y-107129429D01*
X161194323Y-107154409D01*
X161214852Y-107175162D01*
X161234170Y-107186183D01*
X161253088Y-107189629D01*
X161273168Y-107186152D01*
X161293339Y-107175170D01*
X161310212Y-107157893D01*
X161323674Y-107132818D01*
X161331594Y-107105965D01*
X161348294Y-107028185D01*
X161367406Y-106947390D01*
X161385517Y-106895903D01*
X161401485Y-106867011D01*
X161422514Y-106841538D01*
X161449069Y-106819162D01*
X161479184Y-106802371D01*
X161513179Y-106792098D01*
X161551993Y-106788533D01*
X161592554Y-106792392D01*
X161627578Y-106803461D01*
X161658165Y-106821507D01*
X161685056Y-106847005D01*
X161713202Y-106887411D01*
X161733620Y-106933159D01*
X161746318Y-106985222D01*
X161750757Y-107044842D01*
X161747813Y-107090793D01*
X161739034Y-107135309D01*
X161724478Y-107178421D01*
X161703863Y-107220794D01*
G37*
G36*
X161358064Y-106225896D02*
G01*
X161382533Y-106194706D01*
X161408561Y-106170199D01*
X161436270Y-106151597D01*
X161466704Y-106138038D01*
X161499655Y-106129798D01*
X161535677Y-106126977D01*
X161574328Y-106130602D01*
X161610717Y-106141370D01*
X161645489Y-106159510D01*
X161675914Y-106183993D01*
X161701263Y-106215090D01*
X161721741Y-106253788D01*
X161735317Y-106295796D01*
X161744324Y-106348936D01*
X161747631Y-106415526D01*
X161744506Y-106482708D01*
X161736007Y-106536205D01*
X161723241Y-106578345D01*
X161706989Y-106611164D01*
X161689494Y-106632575D01*
X161671450Y-106644096D01*
X161652083Y-106647801D01*
X161629698Y-106643732D01*
X161611197Y-106631681D01*
X161598617Y-106613819D01*
X161594442Y-106592602D01*
X161597025Y-106576969D01*
X161605433Y-106559824D01*
X161619559Y-106535607D01*
X161627415Y-106514444D01*
X161632893Y-106478597D01*
X161635084Y-106424270D01*
X161631569Y-106358741D01*
X161622557Y-106313215D01*
X161609878Y-106282707D01*
X161590139Y-106257888D01*
X161566799Y-106243786D01*
X161538559Y-106238987D01*
X161505716Y-106245072D01*
X161472662Y-106264437D01*
X161444890Y-106293618D01*
X161423570Y-106332434D01*
X161415995Y-106361383D01*
X161409990Y-106415526D01*
X161404570Y-106440919D01*
X161392795Y-106458464D01*
X161375516Y-106469653D01*
X161354254Y-106473460D01*
X161332039Y-106469329D01*
X161313856Y-106457096D01*
X161301632Y-106438713D01*
X161297443Y-106415526D01*
X161296905Y-106355979D01*
X161292373Y-106334442D01*
X161282739Y-106312260D01*
X161268479Y-106292492D01*
X161249766Y-106276991D01*
X161228136Y-106266862D01*
X161206438Y-106263607D01*
X161184253Y-106266979D01*
X161164069Y-106277126D01*
X161145133Y-106295016D01*
X161131592Y-106317461D01*
X161122607Y-106348061D01*
X161119243Y-106389294D01*
X161122590Y-106429378D01*
X161131971Y-106462501D01*
X161146817Y-106489982D01*
X161167163Y-106512783D01*
X161184993Y-106533007D01*
X161189576Y-106545031D01*
X161191148Y-106558701D01*
X161187014Y-106579980D01*
X161174540Y-106598073D01*
X161156107Y-106610299D01*
X161133556Y-106614437D01*
X161110276Y-106609697D01*
X161085923Y-106594200D01*
X161059306Y-106564172D01*
X161036912Y-106526561D01*
X161020518Y-106484084D01*
X161010278Y-106435924D01*
X161006696Y-106381088D01*
X161010729Y-106329631D01*
X161022192Y-106285496D01*
X161040540Y-106247414D01*
X161065803Y-106214416D01*
X161097434Y-106186498D01*
X161131268Y-106167116D01*
X161167877Y-106155504D01*
X161208099Y-106151548D01*
X161250058Y-106156237D01*
X161288845Y-106170159D01*
X161324209Y-106192834D01*
X161358064Y-106225896D01*
G37*
G36*
X159011085Y-107552085D02*
G01*
X159060460Y-107563769D01*
X159101468Y-107582064D01*
X159135505Y-107606667D01*
X159164553Y-107638270D01*
X159184670Y-107672183D01*
X159196711Y-107708995D01*
X159200816Y-107749598D01*
X159197394Y-107783600D01*
X159187261Y-107815163D01*
X159170188Y-107844950D01*
X159147618Y-107871230D01*
X159117295Y-107896647D01*
X159077815Y-107921203D01*
X159113104Y-107955167D01*
X159153774Y-108000924D01*
X159221576Y-108098132D01*
X159260228Y-108101460D01*
X159277850Y-108108733D01*
X159296705Y-108131146D01*
X159302469Y-108154406D01*
X159298133Y-108177404D01*
X159285519Y-108195146D01*
X159264844Y-108206183D01*
X159228122Y-108210680D01*
X159164179Y-108210680D01*
X159087512Y-108100470D01*
X159026126Y-108027238D01*
X158977308Y-107982074D01*
X158938499Y-107957449D01*
X158827564Y-107957449D01*
X158827564Y-108098132D01*
X158867961Y-108098132D01*
X158904717Y-108102632D01*
X158925603Y-108113715D01*
X158938444Y-108131441D01*
X158942846Y-108154406D01*
X158938446Y-108177380D01*
X158925603Y-108195146D01*
X158904722Y-108206192D01*
X158867961Y-108210680D01*
X158698017Y-108210680D01*
X158661249Y-108206194D01*
X158640327Y-108195146D01*
X158627522Y-108177384D01*
X158623132Y-108154406D01*
X158627588Y-108131461D01*
X158640620Y-108113715D01*
X158661690Y-108102605D01*
X158698017Y-108098132D01*
X158715505Y-108098132D01*
X158715505Y-107844901D01*
X158827564Y-107844901D01*
X158915003Y-107844901D01*
X158961946Y-107841067D01*
X159001855Y-107830198D01*
X159047866Y-107808212D01*
X159070976Y-107788872D01*
X159084632Y-107766444D01*
X159088757Y-107745885D01*
X159085347Y-107726337D01*
X159074643Y-107707096D01*
X159054856Y-107687414D01*
X159030785Y-107673249D01*
X158998612Y-107663917D01*
X158955987Y-107660449D01*
X158827564Y-107660449D01*
X158827564Y-107844901D01*
X158715505Y-107844901D01*
X158715505Y-107660449D01*
X158698017Y-107660449D01*
X158661249Y-107655964D01*
X158640327Y-107644915D01*
X158627522Y-107627154D01*
X158623132Y-107604176D01*
X158627524Y-107581206D01*
X158640327Y-107563485D01*
X158661254Y-107552400D01*
X158698017Y-107547902D01*
X158951590Y-107547902D01*
X159011085Y-107552085D01*
G37*
G36*
X159774347Y-107836744D02*
G01*
X159805536Y-107861213D01*
X159830043Y-107887241D01*
X159848645Y-107914950D01*
X159862204Y-107945384D01*
X159870444Y-107978335D01*
X159873265Y-108014357D01*
X159869641Y-108053008D01*
X159858873Y-108089397D01*
X159840732Y-108124169D01*
X159816249Y-108154594D01*
X159785152Y-108179943D01*
X159746454Y-108200421D01*
X159704446Y-108213997D01*
X159651306Y-108223004D01*
X159584717Y-108226311D01*
X159517534Y-108223186D01*
X159464037Y-108214687D01*
X159421897Y-108201921D01*
X159389078Y-108185669D01*
X159367668Y-108168174D01*
X159356146Y-108150130D01*
X159352442Y-108130763D01*
X159356510Y-108108378D01*
X159368562Y-108089877D01*
X159386423Y-108077297D01*
X159407640Y-108073122D01*
X159423273Y-108075705D01*
X159440418Y-108084113D01*
X159464636Y-108098239D01*
X159485798Y-108106095D01*
X159521646Y-108111573D01*
X159575973Y-108113764D01*
X159641502Y-108110249D01*
X159687028Y-108101237D01*
X159717536Y-108088558D01*
X159742354Y-108068819D01*
X159756456Y-108045479D01*
X159761255Y-108017239D01*
X159755171Y-107984396D01*
X159735805Y-107951342D01*
X159706624Y-107923570D01*
X159667808Y-107902250D01*
X159638860Y-107894675D01*
X159584717Y-107888670D01*
X159559323Y-107883250D01*
X159541779Y-107871475D01*
X159530589Y-107854196D01*
X159526782Y-107832934D01*
X159530913Y-107810719D01*
X159543146Y-107792536D01*
X159561530Y-107780312D01*
X159584717Y-107776123D01*
X159644263Y-107775585D01*
X159665800Y-107771053D01*
X159687982Y-107761419D01*
X159707750Y-107747159D01*
X159723251Y-107728446D01*
X159733380Y-107706816D01*
X159736636Y-107685118D01*
X159733264Y-107662933D01*
X159723117Y-107642749D01*
X159705226Y-107623813D01*
X159682782Y-107610272D01*
X159652182Y-107601287D01*
X159610948Y-107597923D01*
X159570864Y-107601270D01*
X159537741Y-107610651D01*
X159510261Y-107625497D01*
X159487459Y-107645843D01*
X159467236Y-107663673D01*
X159455211Y-107668256D01*
X159441541Y-107669828D01*
X159420262Y-107665694D01*
X159402169Y-107653220D01*
X159389943Y-107634787D01*
X159385805Y-107612236D01*
X159390546Y-107588956D01*
X159406042Y-107564603D01*
X159436070Y-107537986D01*
X159473681Y-107515592D01*
X159516158Y-107499198D01*
X159564319Y-107488958D01*
X159619155Y-107485376D01*
X159670611Y-107489409D01*
X159714746Y-107500872D01*
X159752828Y-107519220D01*
X159785826Y-107544483D01*
X159813744Y-107576114D01*
X159833126Y-107609948D01*
X159844738Y-107646557D01*
X159848694Y-107686779D01*
X159844005Y-107728738D01*
X159830083Y-107767525D01*
X159807409Y-107802889D01*
X159774347Y-107836744D01*
G37*
G36*
X158961085Y-111552085D02*
G01*
X159010460Y-111563769D01*
X159051468Y-111582064D01*
X159085505Y-111606667D01*
X159114553Y-111638270D01*
X159134670Y-111672183D01*
X159146711Y-111708995D01*
X159150816Y-111749598D01*
X159147394Y-111783600D01*
X159137261Y-111815163D01*
X159120188Y-111844950D01*
X159097618Y-111871230D01*
X159067295Y-111896647D01*
X159027815Y-111921203D01*
X159063104Y-111955167D01*
X159103774Y-112000924D01*
X159171576Y-112098132D01*
X159210228Y-112101460D01*
X159227850Y-112108733D01*
X159246705Y-112131146D01*
X159252469Y-112154406D01*
X159248133Y-112177404D01*
X159235519Y-112195146D01*
X159214844Y-112206183D01*
X159178122Y-112210680D01*
X159114179Y-112210680D01*
X159037512Y-112100470D01*
X158976126Y-112027238D01*
X158927308Y-111982074D01*
X158888499Y-111957449D01*
X158777564Y-111957449D01*
X158777564Y-112098132D01*
X158817961Y-112098132D01*
X158854717Y-112102632D01*
X158875603Y-112113715D01*
X158888444Y-112131441D01*
X158892846Y-112154406D01*
X158888446Y-112177380D01*
X158875603Y-112195146D01*
X158854722Y-112206192D01*
X158817961Y-112210680D01*
X158648017Y-112210680D01*
X158611249Y-112206194D01*
X158590327Y-112195146D01*
X158577522Y-112177384D01*
X158573132Y-112154406D01*
X158577588Y-112131461D01*
X158590620Y-112113715D01*
X158611690Y-112102605D01*
X158648017Y-112098132D01*
X158665505Y-112098132D01*
X158665505Y-111844901D01*
X158777564Y-111844901D01*
X158865003Y-111844901D01*
X158911946Y-111841067D01*
X158951855Y-111830198D01*
X158997866Y-111808212D01*
X159020976Y-111788872D01*
X159034632Y-111766444D01*
X159038757Y-111745885D01*
X159035347Y-111726337D01*
X159024643Y-111707096D01*
X159004856Y-111687414D01*
X158980785Y-111673249D01*
X158948612Y-111663917D01*
X158905987Y-111660449D01*
X158777564Y-111660449D01*
X158777564Y-111844901D01*
X158665505Y-111844901D01*
X158665505Y-111660449D01*
X158648017Y-111660449D01*
X158611249Y-111655964D01*
X158590327Y-111644915D01*
X158577522Y-111627154D01*
X158573132Y-111604176D01*
X158577524Y-111581206D01*
X158590327Y-111563485D01*
X158611254Y-111552400D01*
X158648017Y-111547902D01*
X158901590Y-111547902D01*
X158961085Y-111552085D01*
G37*
G36*
X159470236Y-111616681D02*
G01*
X159470236Y-111754238D01*
X159531569Y-111737462D01*
X159583370Y-111732354D01*
X159633787Y-111736908D01*
X159678500Y-111750091D01*
X159718617Y-111771717D01*
X159754926Y-111802305D01*
X159784458Y-111839251D01*
X159805633Y-111880985D01*
X159818706Y-111928433D01*
X159823265Y-111982850D01*
X159818534Y-112039072D01*
X159805144Y-112086596D01*
X159783730Y-112127028D01*
X159754144Y-112161538D01*
X159718100Y-112188115D01*
X159672349Y-112208308D01*
X159614689Y-112221498D01*
X159542386Y-112226311D01*
X159478575Y-112222817D01*
X159425175Y-112213073D01*
X159380597Y-112197956D01*
X159343474Y-112178000D01*
X159318438Y-112157099D01*
X159305080Y-112136116D01*
X159300830Y-112114155D01*
X159304952Y-112092921D01*
X159317487Y-112074441D01*
X159335808Y-112061690D01*
X159357103Y-112057490D01*
X159375881Y-112061728D01*
X159398624Y-112076541D01*
X159421990Y-112092894D01*
X159445666Y-112102968D01*
X159483194Y-112110770D01*
X159535303Y-112113764D01*
X159603011Y-112109190D01*
X159646957Y-112097743D01*
X159674081Y-112081866D01*
X159693971Y-112058090D01*
X159706614Y-112026289D01*
X159711255Y-111983876D01*
X159706905Y-111942006D01*
X159694788Y-111908651D01*
X159675449Y-111881929D01*
X159649566Y-111861510D01*
X159619312Y-111849193D01*
X159583370Y-111844901D01*
X159543661Y-111848632D01*
X159497988Y-111860714D01*
X159445079Y-111882857D01*
X159427872Y-111889791D01*
X159414451Y-111891796D01*
X159392373Y-111887402D01*
X159374298Y-111874259D01*
X159362377Y-111854582D01*
X159358178Y-111828733D01*
X159358178Y-111504134D01*
X159700851Y-111504134D01*
X159737595Y-111508659D01*
X159758492Y-111519814D01*
X159771332Y-111537634D01*
X159775735Y-111560700D01*
X159771360Y-111583271D01*
X159758492Y-111601049D01*
X159737601Y-111612169D01*
X159700851Y-111616681D01*
X159470236Y-111616681D01*
G37*
D12*
X-236904Y968180D02*
X334523Y968180D01*
X48809Y-31819D02*
X48809Y968180D01*
X667857Y-31819D02*
X667857Y968180D01*
X667857Y968180D02*
X1048809Y968180D01*
X1048809Y968180D02*
X1144047Y920561D01*
X1144047Y920561D02*
X1191666Y872942D01*
X1191666Y872942D02*
X1239285Y777704D01*
X1239285Y777704D02*
X1239285Y634847D01*
X1239285Y634847D02*
X1191666Y539609D01*
X1191666Y539609D02*
X1144047Y491990D01*
X1144047Y491990D02*
X1048809Y444371D01*
X1048809Y444371D02*
X667857Y444371D01*
X2191666Y-31819D02*
X1620238Y-31819D01*
X1905952Y-31819D02*
X1905952Y968180D01*
X1905952Y968180D02*
X1810714Y825323D01*
X1810714Y825323D02*
X1715476Y730085D01*
X1715476Y730085D02*
X1620238Y682466D01*
D11*
G36*
X164918848Y-102379165D02*
G01*
X164930088Y-102365105D01*
X164941513Y-102355718D01*
X164954341Y-102349844D01*
X164968038Y-102347902D01*
X164990536Y-102352201D01*
X165008192Y-102364804D01*
X165019265Y-102385438D01*
X165023774Y-102422103D01*
X165023774Y-102517016D01*
X165019277Y-102553685D01*
X165008192Y-102574559D01*
X164990512Y-102587391D01*
X164968038Y-102591754D01*
X164947348Y-102588506D01*
X164931939Y-102579395D01*
X164920907Y-102563522D01*
X164911716Y-102533087D01*
X164905681Y-102512344D01*
X164896426Y-102498111D01*
X164870589Y-102476955D01*
X164833802Y-102459375D01*
X164793310Y-102448409D01*
X164753202Y-102444818D01*
X164704650Y-102450366D01*
X164660830Y-102466702D01*
X164634761Y-102483632D01*
X164610039Y-102507001D01*
X164586531Y-102537825D01*
X164568916Y-102571956D01*
X164558067Y-102610630D01*
X164554291Y-102654867D01*
X164554291Y-102727602D01*
X164558062Y-102766916D01*
X164569033Y-102802005D01*
X164587166Y-102833754D01*
X164613056Y-102862766D01*
X164643784Y-102885565D01*
X164680394Y-102902399D01*
X164724045Y-102913083D01*
X164776210Y-102916890D01*
X164835720Y-102912284D01*
X164881674Y-102899793D01*
X164906189Y-102886088D01*
X164935212Y-102860617D01*
X164962518Y-102837756D01*
X164984989Y-102832480D01*
X165005823Y-102836663D01*
X165024312Y-102849528D01*
X165037068Y-102868193D01*
X165041262Y-102889682D01*
X165036137Y-102912256D01*
X165018303Y-102939214D01*
X164980790Y-102973175D01*
X164932525Y-102999737D01*
X164884680Y-103016023D01*
X164832963Y-103026010D01*
X164776747Y-103029437D01*
X164711455Y-103024698D01*
X164652017Y-103010908D01*
X164597473Y-102988356D01*
X164557482Y-102962898D01*
X164520947Y-102928704D01*
X164487613Y-102884601D01*
X164462356Y-102835701D01*
X164447340Y-102784417D01*
X164442281Y-102729849D01*
X164442281Y-102653743D01*
X164446849Y-102596345D01*
X164460381Y-102542108D01*
X164482972Y-102490296D01*
X164513924Y-102443206D01*
X164551382Y-102404493D01*
X164595861Y-102373352D01*
X164645266Y-102350407D01*
X164696042Y-102336818D01*
X164748904Y-102332271D01*
X164796513Y-102335238D01*
X164839860Y-102343848D01*
X164880810Y-102358478D01*
X164918848Y-102379165D01*
G37*
G36*
X165250823Y-102982543D02*
G01*
X165227033Y-103005648D01*
X165204905Y-103010680D01*
X165181510Y-103006257D01*
X165163677Y-102993436D01*
X165152579Y-102972561D01*
X165148094Y-102936185D01*
X165148094Y-102860617D01*
X165152595Y-102823767D01*
X165163677Y-102802829D01*
X165181517Y-102790010D01*
X165204954Y-102785585D01*
X165223328Y-102788307D01*
X165237975Y-102796088D01*
X165249228Y-102809137D01*
X165258443Y-102831112D01*
X165266469Y-102853382D01*
X165273244Y-102864476D01*
X165292889Y-102880248D01*
X165329518Y-102899256D01*
X165371412Y-102912388D01*
X165418080Y-102916890D01*
X165466876Y-102912659D01*
X165507322Y-102900770D01*
X165541032Y-102881866D01*
X165558568Y-102865896D01*
X165568367Y-102848636D01*
X165571611Y-102829354D01*
X165568039Y-102809513D01*
X165556859Y-102790275D01*
X165538741Y-102774314D01*
X165508792Y-102759891D01*
X165480145Y-102751758D01*
X165410948Y-102737469D01*
X165325248Y-102717196D01*
X165272169Y-102696437D01*
X165242855Y-102678061D01*
X165218218Y-102655531D01*
X165197822Y-102628537D01*
X165182591Y-102598379D01*
X165173553Y-102566965D01*
X165170516Y-102533771D01*
X165174621Y-102495204D01*
X165186812Y-102459348D01*
X165207478Y-102425390D01*
X165237731Y-102392794D01*
X165272903Y-102366884D01*
X165313101Y-102348088D01*
X165359263Y-102336377D01*
X165412609Y-102332271D01*
X165454851Y-102334665D01*
X165492672Y-102341552D01*
X165528116Y-102353342D01*
X165559594Y-102369786D01*
X165582442Y-102352884D01*
X165603314Y-102347902D01*
X165625779Y-102352286D01*
X165643467Y-102365195D01*
X165654564Y-102386122D01*
X165659050Y-102422592D01*
X165659050Y-102507148D01*
X165654548Y-102544092D01*
X165643467Y-102565083D01*
X165625779Y-102577991D01*
X165603314Y-102582375D01*
X165583796Y-102579222D01*
X165567215Y-102569919D01*
X165557469Y-102557647D01*
X165549190Y-102533136D01*
X165541720Y-102507797D01*
X165533900Y-102493569D01*
X165514986Y-102475277D01*
X165486370Y-102458935D01*
X165453035Y-102448508D01*
X165413146Y-102444818D01*
X165373602Y-102448306D01*
X165342188Y-102457936D01*
X165317208Y-102473003D01*
X165296455Y-102493532D01*
X165285434Y-102512850D01*
X165281988Y-102531768D01*
X165285465Y-102551848D01*
X165296447Y-102572019D01*
X165313724Y-102588892D01*
X165338799Y-102602354D01*
X165365652Y-102610274D01*
X165443433Y-102626974D01*
X165524227Y-102646086D01*
X165575714Y-102664197D01*
X165604606Y-102680165D01*
X165630079Y-102701194D01*
X165652456Y-102727749D01*
X165669246Y-102757864D01*
X165679519Y-102791859D01*
X165683084Y-102830673D01*
X165679225Y-102871234D01*
X165668156Y-102906258D01*
X165650110Y-102936845D01*
X165624612Y-102963736D01*
X165584206Y-102991882D01*
X165538458Y-103012300D01*
X165486395Y-103024998D01*
X165426775Y-103029437D01*
X165380824Y-103026493D01*
X165336308Y-103017714D01*
X165293196Y-103003158D01*
X165250823Y-102982543D01*
G37*
G36*
X164802972Y-104836744D02*
G01*
X164834162Y-104861213D01*
X164858669Y-104887241D01*
X164877271Y-104914950D01*
X164890829Y-104945384D01*
X164899069Y-104978335D01*
X164901890Y-105014357D01*
X164898266Y-105053008D01*
X164887498Y-105089397D01*
X164869357Y-105124169D01*
X164844874Y-105154594D01*
X164813777Y-105179943D01*
X164775079Y-105200421D01*
X164733071Y-105213997D01*
X164679931Y-105223004D01*
X164613342Y-105226311D01*
X164546160Y-105223186D01*
X164492662Y-105214687D01*
X164450522Y-105201921D01*
X164417703Y-105185669D01*
X164396293Y-105168174D01*
X164384772Y-105150130D01*
X164381067Y-105130763D01*
X164385135Y-105108378D01*
X164397187Y-105089877D01*
X164415049Y-105077297D01*
X164436266Y-105073122D01*
X164451898Y-105075705D01*
X164469043Y-105084113D01*
X164493261Y-105098239D01*
X164514423Y-105106095D01*
X164550271Y-105111573D01*
X164604598Y-105113764D01*
X164670127Y-105110249D01*
X164715653Y-105101237D01*
X164746161Y-105088558D01*
X164770979Y-105068819D01*
X164785081Y-105045479D01*
X164789881Y-105017239D01*
X164783796Y-104984396D01*
X164764430Y-104951342D01*
X164735250Y-104923570D01*
X164696433Y-104902250D01*
X164667485Y-104894675D01*
X164613342Y-104888670D01*
X164587948Y-104883250D01*
X164570404Y-104871475D01*
X164559214Y-104854196D01*
X164555407Y-104832934D01*
X164559538Y-104810719D01*
X164571772Y-104792536D01*
X164590155Y-104780312D01*
X164613342Y-104776123D01*
X164672888Y-104775585D01*
X164694425Y-104771053D01*
X164716608Y-104761419D01*
X164736376Y-104747159D01*
X164751876Y-104728446D01*
X164762006Y-104706816D01*
X164765261Y-104685118D01*
X164761889Y-104662933D01*
X164751742Y-104642749D01*
X164733851Y-104623813D01*
X164711407Y-104610272D01*
X164680807Y-104601287D01*
X164639573Y-104597923D01*
X164599489Y-104601270D01*
X164566367Y-104610651D01*
X164538886Y-104625497D01*
X164516084Y-104645843D01*
X164495861Y-104663673D01*
X164483836Y-104668256D01*
X164470167Y-104669828D01*
X164448887Y-104665694D01*
X164430795Y-104653220D01*
X164418568Y-104634787D01*
X164414430Y-104612236D01*
X164419171Y-104588956D01*
X164434667Y-104564603D01*
X164464696Y-104537986D01*
X164502306Y-104515592D01*
X164544783Y-104499198D01*
X164592944Y-104488958D01*
X164647780Y-104485376D01*
X164699236Y-104489409D01*
X164743371Y-104500872D01*
X164781453Y-104519220D01*
X164814451Y-104544483D01*
X164842369Y-104576114D01*
X164861752Y-104609948D01*
X164873363Y-104646557D01*
X164877319Y-104686779D01*
X164872630Y-104728738D01*
X164858708Y-104767525D01*
X164836034Y-104802889D01*
X164802972Y-104836744D01*
G37*
G36*
X165314221Y-105047183D02*
G01*
X165476545Y-104660449D01*
X165450851Y-104660449D01*
X165414082Y-104655964D01*
X165393160Y-104644915D01*
X165380355Y-104627154D01*
X165375966Y-104604176D01*
X165380357Y-104581206D01*
X165393160Y-104563485D01*
X165414087Y-104552400D01*
X165450851Y-104547902D01*
X165601158Y-104547902D01*
X165637870Y-104552401D01*
X165658750Y-104563485D01*
X165671591Y-104581210D01*
X165675994Y-104604176D01*
X165669928Y-104627354D01*
X165649762Y-104650093D01*
X165633557Y-104657220D01*
X165598422Y-104660449D01*
X165368345Y-105210680D01*
X165260683Y-105210680D01*
X165031144Y-104660449D01*
X164995552Y-104657142D01*
X164979218Y-104649849D01*
X164963978Y-104634801D01*
X164955660Y-104619768D01*
X164952986Y-104604176D01*
X164957388Y-104581210D01*
X164970229Y-104563485D01*
X164991115Y-104552402D01*
X165027871Y-104547902D01*
X165179252Y-104547902D01*
X165215534Y-104552386D01*
X165236356Y-104563485D01*
X165249160Y-104581206D01*
X165253551Y-104604176D01*
X165249215Y-104627174D01*
X165236601Y-104644915D01*
X165215966Y-104655951D01*
X165179252Y-104660449D01*
X165153021Y-104660449D01*
X165314221Y-105047183D01*
G37*
G36*
X161579165Y-100938511D02*
G01*
X161565105Y-100927271D01*
X161555718Y-100915846D01*
X161549844Y-100903018D01*
X161547902Y-100889321D01*
X161552201Y-100866823D01*
X161564804Y-100849167D01*
X161585438Y-100838094D01*
X161622103Y-100833585D01*
X161717016Y-100833585D01*
X161753685Y-100838082D01*
X161774559Y-100849167D01*
X161787391Y-100866847D01*
X161791754Y-100889321D01*
X161788506Y-100910011D01*
X161779395Y-100925420D01*
X161763522Y-100936452D01*
X161733087Y-100945643D01*
X161712344Y-100951678D01*
X161698111Y-100960933D01*
X161676955Y-100986770D01*
X161659375Y-101023557D01*
X161648409Y-101064049D01*
X161644818Y-101104157D01*
X161650366Y-101152709D01*
X161666702Y-101196529D01*
X161683632Y-101222598D01*
X161707001Y-101247320D01*
X161737825Y-101270828D01*
X161771956Y-101288443D01*
X161810630Y-101299292D01*
X161854867Y-101303068D01*
X161927602Y-101303068D01*
X161966916Y-101299297D01*
X162002005Y-101288326D01*
X162033754Y-101270193D01*
X162062766Y-101244303D01*
X162085565Y-101213575D01*
X162102399Y-101176965D01*
X162113083Y-101133314D01*
X162116890Y-101081149D01*
X162112284Y-101021639D01*
X162099793Y-100975685D01*
X162086088Y-100951170D01*
X162060617Y-100922147D01*
X162037756Y-100894841D01*
X162032480Y-100872370D01*
X162036663Y-100851536D01*
X162049528Y-100833047D01*
X162068193Y-100820291D01*
X162089682Y-100816097D01*
X162112256Y-100821222D01*
X162139214Y-100839056D01*
X162173175Y-100876569D01*
X162199737Y-100924834D01*
X162216023Y-100972679D01*
X162226010Y-101024396D01*
X162229437Y-101080612D01*
X162224698Y-101145904D01*
X162210908Y-101205342D01*
X162188356Y-101259886D01*
X162162898Y-101299877D01*
X162128704Y-101336412D01*
X162084601Y-101369746D01*
X162035701Y-101395003D01*
X161984417Y-101410019D01*
X161929849Y-101415078D01*
X161853743Y-101415078D01*
X161796345Y-101410510D01*
X161742108Y-101396978D01*
X161690296Y-101374387D01*
X161643206Y-101343435D01*
X161604493Y-101305977D01*
X161573352Y-101261498D01*
X161550407Y-101212093D01*
X161536818Y-101161317D01*
X161532271Y-101108455D01*
X161535238Y-101060846D01*
X161543848Y-101017499D01*
X161558478Y-100976549D01*
X161579165Y-100938511D01*
G37*
G36*
X161836744Y-100283012D02*
G01*
X161861213Y-100251823D01*
X161887241Y-100227316D01*
X161914950Y-100208714D01*
X161945384Y-100195155D01*
X161978335Y-100186915D01*
X162014357Y-100184094D01*
X162053008Y-100187718D01*
X162089397Y-100198486D01*
X162124169Y-100216627D01*
X162154594Y-100241110D01*
X162179943Y-100272207D01*
X162200421Y-100310905D01*
X162213997Y-100352913D01*
X162223004Y-100406053D01*
X162226311Y-100472642D01*
X162223186Y-100539825D01*
X162214687Y-100593322D01*
X162201921Y-100635462D01*
X162185669Y-100668281D01*
X162168174Y-100689691D01*
X162150130Y-100701213D01*
X162130763Y-100704917D01*
X162108378Y-100700849D01*
X162089877Y-100688797D01*
X162077297Y-100670936D01*
X162073122Y-100649719D01*
X162075705Y-100634086D01*
X162084113Y-100616941D01*
X162098239Y-100592723D01*
X162106095Y-100571561D01*
X162111573Y-100535713D01*
X162113764Y-100481386D01*
X162110249Y-100415857D01*
X162101237Y-100370331D01*
X162088558Y-100339823D01*
X162068819Y-100315005D01*
X162045479Y-100300903D01*
X162017239Y-100296104D01*
X161984396Y-100302188D01*
X161951342Y-100321554D01*
X161923570Y-100350735D01*
X161902250Y-100389551D01*
X161894675Y-100418499D01*
X161888670Y-100472642D01*
X161883250Y-100498036D01*
X161871475Y-100515580D01*
X161854196Y-100526770D01*
X161832934Y-100530577D01*
X161810719Y-100526446D01*
X161792536Y-100514213D01*
X161780312Y-100495829D01*
X161776123Y-100472642D01*
X161775585Y-100413096D01*
X161771053Y-100391559D01*
X161761419Y-100369377D01*
X161747159Y-100349609D01*
X161728446Y-100334108D01*
X161706816Y-100323979D01*
X161685118Y-100320723D01*
X161662933Y-100324095D01*
X161642749Y-100334242D01*
X161623813Y-100352133D01*
X161610272Y-100374577D01*
X161601287Y-100405177D01*
X161597923Y-100446411D01*
X161601270Y-100486495D01*
X161610651Y-100519618D01*
X161625497Y-100547098D01*
X161645843Y-100569900D01*
X161663673Y-100590123D01*
X161668256Y-100602148D01*
X161669828Y-100615818D01*
X161665694Y-100637097D01*
X161653220Y-100655190D01*
X161634787Y-100667416D01*
X161612236Y-100671554D01*
X161588956Y-100666813D01*
X161564603Y-100651317D01*
X161537986Y-100621289D01*
X161515592Y-100583678D01*
X161499198Y-100541201D01*
X161488958Y-100493040D01*
X161485376Y-100438204D01*
X161489409Y-100386748D01*
X161500872Y-100342613D01*
X161519220Y-100304531D01*
X161544483Y-100271533D01*
X161576114Y-100243615D01*
X161609948Y-100224233D01*
X161646557Y-100212621D01*
X161686779Y-100208665D01*
X161728738Y-100213354D01*
X161767525Y-100227276D01*
X161802889Y-100249950D01*
X161836744Y-100283012D01*
G37*
G36*
X156318848Y-93279165D02*
G01*
X156330088Y-93265105D01*
X156341513Y-93255718D01*
X156354341Y-93249844D01*
X156368038Y-93247902D01*
X156390536Y-93252201D01*
X156408192Y-93264804D01*
X156419265Y-93285438D01*
X156423774Y-93322103D01*
X156423774Y-93417016D01*
X156419277Y-93453685D01*
X156408192Y-93474559D01*
X156390512Y-93487391D01*
X156368038Y-93491754D01*
X156347348Y-93488506D01*
X156331939Y-93479395D01*
X156320907Y-93463522D01*
X156311716Y-93433087D01*
X156305681Y-93412344D01*
X156296426Y-93398111D01*
X156270589Y-93376955D01*
X156233802Y-93359375D01*
X156193310Y-93348409D01*
X156153202Y-93344818D01*
X156104650Y-93350366D01*
X156060830Y-93366702D01*
X156034761Y-93383632D01*
X156010039Y-93407001D01*
X155986531Y-93437825D01*
X155968916Y-93471956D01*
X155958067Y-93510630D01*
X155954291Y-93554867D01*
X155954291Y-93627602D01*
X155958062Y-93666916D01*
X155969033Y-93702005D01*
X155987166Y-93733754D01*
X156013056Y-93762766D01*
X156043784Y-93785565D01*
X156080394Y-93802399D01*
X156124045Y-93813083D01*
X156176210Y-93816890D01*
X156235720Y-93812284D01*
X156281674Y-93799793D01*
X156306189Y-93786088D01*
X156335212Y-93760617D01*
X156362518Y-93737756D01*
X156384989Y-93732480D01*
X156405823Y-93736663D01*
X156424312Y-93749528D01*
X156437068Y-93768193D01*
X156441262Y-93789682D01*
X156436137Y-93812256D01*
X156418303Y-93839214D01*
X156380790Y-93873175D01*
X156332525Y-93899737D01*
X156284680Y-93916023D01*
X156232963Y-93926010D01*
X156176747Y-93929437D01*
X156111455Y-93924698D01*
X156052017Y-93910908D01*
X155997473Y-93888356D01*
X155957482Y-93862898D01*
X155920947Y-93828704D01*
X155887613Y-93784601D01*
X155862356Y-93735701D01*
X155847340Y-93684417D01*
X155842281Y-93629849D01*
X155842281Y-93553743D01*
X155846849Y-93496345D01*
X155860381Y-93442108D01*
X155882972Y-93390296D01*
X155913924Y-93343206D01*
X155951382Y-93304493D01*
X155995861Y-93273352D01*
X156045266Y-93250407D01*
X156096042Y-93236818D01*
X156148904Y-93232271D01*
X156196513Y-93235238D01*
X156239860Y-93243848D01*
X156280810Y-93258478D01*
X156318848Y-93279165D01*
G37*
G36*
X156871618Y-93185376D02*
G01*
X156871618Y-93798132D01*
X156984751Y-93798132D01*
X157021507Y-93802632D01*
X157042393Y-93813715D01*
X157055196Y-93831437D01*
X157059587Y-93854406D01*
X157055198Y-93877384D01*
X157042393Y-93895146D01*
X157021512Y-93906192D01*
X156984751Y-93910680D01*
X156646475Y-93910680D01*
X156609707Y-93906194D01*
X156588785Y-93895146D01*
X156575980Y-93877384D01*
X156571590Y-93854406D01*
X156575982Y-93831437D01*
X156588785Y-93813715D01*
X156609712Y-93802630D01*
X156646475Y-93798132D01*
X156759560Y-93798132D01*
X156759560Y-93333436D01*
X156659566Y-93360058D01*
X156623516Y-93366702D01*
X156603854Y-93362499D01*
X156586636Y-93349507D01*
X156575022Y-93330567D01*
X156571053Y-93307351D01*
X156574126Y-93286434D01*
X156582532Y-93271594D01*
X156597852Y-93260528D01*
X156630599Y-93248586D01*
X156871618Y-93185376D01*
G37*
G36*
X164799120Y-106860449D02*
G01*
X164799120Y-107298132D01*
X164912253Y-107298132D01*
X164949009Y-107302632D01*
X164969894Y-107313715D01*
X164982736Y-107331441D01*
X164987138Y-107354406D01*
X164982737Y-107377380D01*
X164969894Y-107395146D01*
X164949014Y-107406192D01*
X164912253Y-107410680D01*
X164573977Y-107410680D01*
X164537216Y-107406192D01*
X164516336Y-107395146D01*
X164503531Y-107377384D01*
X164499141Y-107354406D01*
X164503532Y-107331437D01*
X164516336Y-107313715D01*
X164537221Y-107302632D01*
X164573977Y-107298132D01*
X164687110Y-107298132D01*
X164687110Y-106860449D01*
X164573977Y-106860449D01*
X164537216Y-106855962D01*
X164516336Y-106844915D01*
X164503531Y-106827154D01*
X164499141Y-106804176D01*
X164503532Y-106781206D01*
X164516336Y-106763485D01*
X164537221Y-106752402D01*
X164573977Y-106747902D01*
X164912253Y-106747902D01*
X164949009Y-106752402D01*
X164969894Y-106763485D01*
X164982736Y-106781210D01*
X164987138Y-106804176D01*
X164982737Y-106827150D01*
X164969894Y-106844915D01*
X164949014Y-106855962D01*
X164912253Y-106860449D01*
X164799120Y-106860449D01*
G37*
G36*
X165471618Y-106685376D02*
G01*
X165471618Y-107298132D01*
X165584751Y-107298132D01*
X165621507Y-107302632D01*
X165642393Y-107313715D01*
X165655196Y-107331437D01*
X165659587Y-107354406D01*
X165655198Y-107377384D01*
X165642393Y-107395146D01*
X165621512Y-107406192D01*
X165584751Y-107410680D01*
X165246475Y-107410680D01*
X165209707Y-107406194D01*
X165188785Y-107395146D01*
X165175980Y-107377384D01*
X165171590Y-107354406D01*
X165175982Y-107331437D01*
X165188785Y-107313715D01*
X165209712Y-107302630D01*
X165246475Y-107298132D01*
X165359560Y-107298132D01*
X165359560Y-106833436D01*
X165259566Y-106860058D01*
X165223516Y-106866702D01*
X165203854Y-106862499D01*
X165186636Y-106849507D01*
X165175022Y-106830567D01*
X165171053Y-106807351D01*
X165174126Y-106786434D01*
X165182532Y-106771594D01*
X165197852Y-106760528D01*
X165230599Y-106748586D01*
X165471618Y-106685376D01*
G37*
D13*
%TO.C,R4*%
X156716422Y-110601180D02*
X157190938Y-110601180D01*
X156716422Y-109556180D02*
X157190938Y-109556180D01*
%TO.C,R1*%
X157190938Y-105656180D02*
X156716422Y-105656180D01*
X157190938Y-106701180D02*
X156716422Y-106701180D01*
%TO.C,J2*%
X157948680Y-94348680D02*
X159278680Y-94348680D01*
X157948680Y-95678680D02*
X157948680Y-94348680D01*
X157948680Y-96948680D02*
X157948680Y-97008680D01*
X157948680Y-96948680D02*
X160608680Y-96948680D01*
X157948680Y-97008680D02*
X160608680Y-97008680D01*
X160608680Y-96948680D02*
X160608680Y-97008680D01*
%TO.C,J1*%
X151448680Y-93648680D02*
X152778680Y-93648680D01*
X151448680Y-94978680D02*
X151448680Y-93648680D01*
X151448680Y-96248680D02*
X151448680Y-114088680D01*
X151448680Y-96248680D02*
X154108680Y-96248680D01*
X151448680Y-114088680D02*
X154108680Y-114088680D01*
X154108680Y-96248680D02*
X154108680Y-114088680D01*
%TO.C,TP6*%
X167378680Y-100478680D02*
G75*
G02*
X165978680Y-100478680I-700000J0D01*
G01*
X165978680Y-100478680D02*
G75*
G02*
X167378680Y-100478680I700000J0D01*
G01*
%TO.C,R2*%
X157215938Y-103856180D02*
X156741422Y-103856180D01*
X157215938Y-104901180D02*
X156741422Y-104901180D01*
%TO.C,C2*%
X157439932Y-99513680D02*
X156917428Y-99513680D01*
X157439932Y-98043680D02*
X156917428Y-98043680D01*
%TO.C,D1*%
X155506180Y-112843680D02*
X155506180Y-114313680D01*
X155506180Y-114313680D02*
X157791180Y-114313680D01*
X157791180Y-112843680D02*
X155506180Y-112843680D01*
%TO.C,U1*%
X160306180Y-102568680D02*
X160481180Y-102568680D01*
X160306180Y-103243680D02*
X160306180Y-102568680D01*
X160306180Y-105113680D02*
X160306180Y-105488680D01*
X163026180Y-102568680D02*
X162851180Y-102568680D01*
X163026180Y-103243680D02*
X163026180Y-102568680D01*
X163026180Y-105113680D02*
X163026180Y-105788680D01*
X163026180Y-105788680D02*
X162851180Y-105788680D01*
X160306180Y-105788680D02*
X160116180Y-105928680D01*
X160116180Y-105648680D01*
X160306180Y-105788680D01*
G36*
X160306180Y-105788680D02*
G01*
X160116180Y-105928680D01*
X160116180Y-105648680D01*
X160306180Y-105788680D01*
G37*
%TO.C,R3*%
X156716422Y-107356180D02*
X157190938Y-107356180D01*
X156716422Y-108401180D02*
X157190938Y-108401180D01*
%TO.C,R5*%
X156716422Y-111356180D02*
X157190938Y-111356180D01*
X156716422Y-112401180D02*
X157190938Y-112401180D01*
%TO.C,TP1*%
X1725000Y-1025000D02*
G75*
G02*
X325000Y-1025000I-700000J0D01*
G01*
X325000Y-1025000D02*
G75*
G02*
X1725000Y-1025000I700000J0D01*
G01*
%TO.C,TP7*%
X167378680Y-102678680D02*
G75*
G02*
X165978680Y-102678680I-700000J0D01*
G01*
X165978680Y-102678680D02*
G75*
G02*
X167378680Y-102678680I700000J0D01*
G01*
%TO.C,TP8*%
X167378680Y-104878680D02*
G75*
G02*
X165978680Y-104878680I-700000J0D01*
G01*
X165978680Y-104878680D02*
G75*
G02*
X167378680Y-104878680I700000J0D01*
G01*
%TO.C,C3*%
X160988680Y-99838100D02*
X160988680Y-100119260D01*
X159968680Y-99838100D02*
X159968680Y-100119260D01*
%TO.C,U2*%
X157516180Y-100068680D02*
X156716180Y-100068680D01*
X157516180Y-100068680D02*
X158316180Y-100068680D01*
X157516180Y-103188680D02*
X156716180Y-103188680D01*
X157516180Y-103188680D02*
X158316180Y-103188680D01*
X156216180Y-100118680D02*
X155976180Y-99788680D01*
X156456180Y-99788680D01*
X156216180Y-100118680D01*
G36*
X156216180Y-100118680D02*
G01*
X155976180Y-99788680D01*
X156456180Y-99788680D01*
X156216180Y-100118680D01*
G37*
%TO.C,C1*%
X155643680Y-95517428D02*
X155643680Y-96039932D01*
X157113680Y-95517428D02*
X157113680Y-96039932D01*
%TO.C,TP5*%
X167378680Y-107078680D02*
G75*
G02*
X165978680Y-107078680I-700000J0D01*
G01*
X165978680Y-107078680D02*
G75*
G02*
X167378680Y-107078680I700000J0D01*
G01*
%TD*%
M02*
