%TF.GenerationSoftware,KiCad,Pcbnew,9.0.0*%
%TF.CreationDate,2025-04-11T10:11:51-04:00*%
%TF.ProjectId,lsm6dso_breakout,6c736d36-6473-46f5-9f62-7265616b6f75,rev?*%
%TF.SameCoordinates,Original*%
%TF.FileFunction,Soldermask,Top*%
%TF.FilePolarity,Negative*%
%FSLAX46Y46*%
G04 Gerber Fmt 4.6, Leading zero omitted, Abs format (unit mm)*
G04 Created by KiCad (PCBNEW 9.0.0) date 2025-04-11 10:11:51*
%MOMM*%
%LPD*%
G01*
G04 APERTURE LIST*
G04 Aperture macros list*
%AMRoundRect*
0 Rectangle with rounded corners*
0 $1 Rounding radius*
0 $2 $3 $4 $5 $6 $7 $8 $9 X,Y pos of 4 corners*
0 Add a 4 corners polygon primitive as box body*
4,1,4,$2,$3,$4,$5,$6,$7,$8,$9,$2,$3,0*
0 Add four circle primitives for the rounded corners*
1,1,$1+$1,$2,$3*
1,1,$1+$1,$4,$5*
1,1,$1+$1,$6,$7*
1,1,$1+$1,$8,$9*
0 Add four rect primitives between the rounded corners*
20,1,$1+$1,$2,$3,$4,$5,0*
20,1,$1+$1,$4,$5,$6,$7,0*
20,1,$1+$1,$6,$7,$8,$9,0*
20,1,$1+$1,$8,$9,$2,$3,0*%
G04 Aperture macros list end*
%ADD10RoundRect,0.200000X-0.200000X-0.275000X0.200000X-0.275000X0.200000X0.275000X-0.200000X0.275000X0*%
%ADD11RoundRect,0.200000X0.200000X0.275000X-0.200000X0.275000X-0.200000X-0.275000X0.200000X-0.275000X0*%
%ADD12R,1.700000X1.700000*%
%ADD13O,1.700000X1.700000*%
%ADD14C,1.000000*%
%ADD15C,3.200000*%
%ADD16RoundRect,0.250000X0.250000X0.475000X-0.250000X0.475000X-0.250000X-0.475000X0.250000X-0.475000X0*%
%ADD17RoundRect,0.218750X-0.218750X-0.256250X0.218750X-0.256250X0.218750X0.256250X-0.218750X0.256250X0*%
%ADD18RoundRect,0.087500X0.087500X-0.225000X0.087500X0.225000X-0.087500X0.225000X-0.087500X-0.225000X0*%
%ADD19RoundRect,0.087500X0.225000X-0.087500X0.225000X0.087500X-0.225000X0.087500X-0.225000X-0.087500X0*%
%ADD20RoundRect,0.225000X-0.250000X0.225000X-0.250000X-0.225000X0.250000X-0.225000X0.250000X0.225000X0*%
%ADD21RoundRect,0.150000X-0.512500X-0.150000X0.512500X-0.150000X0.512500X0.150000X-0.512500X0.150000X0*%
%ADD22RoundRect,0.250000X-0.475000X0.250000X-0.475000X-0.250000X0.475000X-0.250000X0.475000X0.250000X0*%
G04 APERTURE END LIST*
D10*
%TO.C,R4*%
X157778680Y-110078680D03*
X156128680Y-110078680D03*
%TD*%
D11*
%TO.C,R1*%
X156128680Y-106178680D03*
X157778680Y-106178680D03*
%TD*%
D12*
%TO.C,J2*%
X159278680Y-95678680D03*
%TD*%
%TO.C,J1*%
X152778680Y-94978680D03*
D13*
X152778680Y-97518680D03*
X152778680Y-100058680D03*
X152778680Y-102598680D03*
X152778680Y-105138680D03*
X152778680Y-107678680D03*
X152778680Y-110218680D03*
X152778680Y-112758680D03*
%TD*%
D14*
%TO.C,TP6*%
X166678680Y-100478680D03*
%TD*%
D11*
%TO.C,R2*%
X157803680Y-104378680D03*
X156153680Y-104378680D03*
%TD*%
D15*
%TO.C,H1*%
X164278680Y-96478680D03*
%TD*%
D16*
%TO.C,C2*%
X158128680Y-98778680D03*
X156228680Y-98778680D03*
%TD*%
D17*
%TO.C,D1*%
X156203680Y-113578680D03*
X157778680Y-113578680D03*
%TD*%
D18*
%TO.C,U1*%
X160916180Y-105341180D03*
X161416180Y-105341180D03*
X161916180Y-105341180D03*
X162416180Y-105341180D03*
D19*
X162578680Y-104678680D03*
X162578680Y-104178680D03*
X162578680Y-103678680D03*
D18*
X162416180Y-103016180D03*
X161916180Y-103016180D03*
X161416180Y-103016180D03*
X160916180Y-103016180D03*
D19*
X160753680Y-103678680D03*
X160753680Y-104178680D03*
X160753680Y-104678680D03*
%TD*%
D10*
%TO.C,R3*%
X156128680Y-107878680D03*
X157778680Y-107878680D03*
%TD*%
%TO.C,R5*%
X156128680Y-111878680D03*
X157778680Y-111878680D03*
%TD*%
D15*
%TO.C,H2*%
X164278680Y-111278680D03*
%TD*%
D14*
%TO.C,TP1*%
X1025000Y-1025000D03*
%TD*%
%TO.C,TP7*%
X166678680Y-102678680D03*
%TD*%
%TO.C,TP8*%
X166678680Y-104878680D03*
%TD*%
D20*
%TO.C,C3*%
X160478680Y-99203680D03*
X160478680Y-100753680D03*
%TD*%
D21*
%TO.C,U2*%
X156378680Y-100678680D03*
X156378680Y-101628680D03*
X156378680Y-102578680D03*
X158653680Y-102578680D03*
X158653680Y-100678680D03*
%TD*%
D22*
%TO.C,C1*%
X156378680Y-94828680D03*
X156378680Y-96728680D03*
%TD*%
D14*
%TO.C,TP5*%
X166678680Y-107078680D03*
%TD*%
M02*
