%TF.GenerationSoftware,KiCad,Pcbnew,9.0.0*%
%TF.CreationDate,2025-04-11T10:11:51-04:00*%
%TF.ProjectId,lsm6dso_breakout,6c736d36-6473-46f5-9f62-7265616b6f75,rev?*%
%TF.SameCoordinates,Original*%
%TF.FileFunction,Legend,Bot*%
%TF.FilePolarity,Positive*%
%FSLAX46Y46*%
G04 Gerber Fmt 4.6, Leading zero omitted, Abs format (unit mm)*
G04 Created by KiCad (PCBNEW 9.0.0) date 2025-04-11 10:11:51*
%MOMM*%
%LPD*%
G01*
G04 APERTURE LIST*
%ADD10C,0.200000*%
G04 APERTURE END LIST*
D10*
G36*
X155222282Y-102688126D02*
G01*
X154883121Y-102688126D01*
X155052198Y-102279721D01*
X155222282Y-102688126D01*
G37*
G36*
X156571236Y-103033974D02*
G01*
X156347845Y-103033974D01*
X156264549Y-103029173D01*
X156203355Y-103016542D01*
X156159351Y-102998162D01*
X156107425Y-102963041D01*
X156066164Y-102923224D01*
X156034329Y-102878452D01*
X156011969Y-102828287D01*
X155997518Y-102766384D01*
X155992288Y-102690141D01*
X155992288Y-102590856D01*
X156002172Y-102495946D01*
X156030207Y-102416925D01*
X156074785Y-102342649D01*
X156119310Y-102290813D01*
X156163930Y-102256823D01*
X156215205Y-102233466D01*
X156276480Y-102218617D01*
X156349860Y-102213318D01*
X156571236Y-102213318D01*
X156571236Y-103033974D01*
G37*
G36*
X158236516Y-103446837D02*
G01*
X154208215Y-103446837D01*
X154208215Y-103139487D01*
X154374882Y-103139487D01*
X154383012Y-103182609D01*
X154406664Y-103215874D01*
X154445353Y-103236564D01*
X154514192Y-103245000D01*
X154797025Y-103245000D01*
X154865966Y-103236589D01*
X154905194Y-103215874D01*
X154929203Y-103182570D01*
X154937434Y-103139487D01*
X154929200Y-103096419D01*
X154905194Y-103063191D01*
X154865956Y-103042407D01*
X154797025Y-103033974D01*
X154745826Y-103033974D01*
X154796017Y-102899152D01*
X155306271Y-102899152D01*
X155357562Y-103033974D01*
X155306271Y-103033974D01*
X155237355Y-103042411D01*
X155198194Y-103063191D01*
X155174116Y-103096427D01*
X155165862Y-103139487D01*
X155174113Y-103182563D01*
X155198194Y-103215874D01*
X155237345Y-103236586D01*
X155306271Y-103245000D01*
X155589105Y-103245000D01*
X155658031Y-103236586D01*
X155697182Y-103215874D01*
X155721263Y-103182563D01*
X155729514Y-103139487D01*
X155720921Y-103096557D01*
X155695625Y-103063191D01*
X155654916Y-103042408D01*
X155583975Y-103033974D01*
X155408121Y-102596535D01*
X155782270Y-102596535D01*
X155782270Y-102690141D01*
X155782270Y-102696919D01*
X155787591Y-102784788D01*
X155802876Y-102863053D01*
X155827424Y-102933040D01*
X155880544Y-103027952D01*
X155945760Y-103101110D01*
X156019643Y-103159524D01*
X156083513Y-103196823D01*
X156153551Y-103222250D01*
X156240832Y-103238923D01*
X156348944Y-103245000D01*
X156771087Y-103245000D01*
X156840028Y-103236589D01*
X156879256Y-103215874D01*
X156903265Y-103182570D01*
X156911496Y-103139487D01*
X156903262Y-103096419D01*
X156879256Y-103063191D01*
X156841242Y-103042091D01*
X156781345Y-103033974D01*
X156781345Y-102907486D01*
X157066743Y-102907486D01*
X157073979Y-102983540D01*
X157094733Y-103049209D01*
X157128568Y-103106560D01*
X157176378Y-103156980D01*
X157252140Y-103209754D01*
X157337916Y-103248039D01*
X157435535Y-103271847D01*
X157547322Y-103280170D01*
X157633480Y-103274649D01*
X157716948Y-103258189D01*
X157797782Y-103230897D01*
X157877233Y-103192243D01*
X157921837Y-103235566D01*
X157963328Y-103245000D01*
X158007193Y-103236707D01*
X158040631Y-103212668D01*
X158061439Y-103173527D01*
X158069849Y-103105323D01*
X158069849Y-102963632D01*
X158061410Y-102894539D01*
X158040631Y-102855280D01*
X158007180Y-102831244D01*
X157963237Y-102822948D01*
X157928785Y-102828052D01*
X157901321Y-102842640D01*
X157880222Y-102867108D01*
X157862944Y-102908311D01*
X157847896Y-102950066D01*
X157835192Y-102970867D01*
X157798359Y-103000441D01*
X157729679Y-103036080D01*
X157651127Y-103060702D01*
X157563625Y-103069145D01*
X157472132Y-103061210D01*
X157396296Y-103038920D01*
X157333090Y-103003474D01*
X157300210Y-102973530D01*
X157281837Y-102941168D01*
X157275754Y-102905013D01*
X157282452Y-102867813D01*
X157303415Y-102831741D01*
X157337386Y-102801814D01*
X157393540Y-102774771D01*
X157447252Y-102759521D01*
X157576997Y-102732731D01*
X157737684Y-102694718D01*
X157837207Y-102655794D01*
X157892172Y-102621341D01*
X157938366Y-102579097D01*
X157976609Y-102528483D01*
X158005166Y-102471937D01*
X158022112Y-102413034D01*
X158027808Y-102350796D01*
X158020111Y-102278484D01*
X157997252Y-102211253D01*
X157958504Y-102147582D01*
X157901779Y-102086464D01*
X157835831Y-102037883D01*
X157760461Y-102002641D01*
X157673906Y-101980683D01*
X157573883Y-101972983D01*
X157494679Y-101977473D01*
X157423765Y-101990385D01*
X157357308Y-102012492D01*
X157298285Y-102043325D01*
X157255446Y-102011633D01*
X157216311Y-102002292D01*
X157174189Y-102010513D01*
X157141024Y-102034715D01*
X157120217Y-102073955D01*
X157111806Y-102142335D01*
X157111806Y-102300879D01*
X157120247Y-102370148D01*
X157141024Y-102409506D01*
X157174189Y-102433708D01*
X157216311Y-102441929D01*
X157252907Y-102436017D01*
X157283997Y-102418573D01*
X157302270Y-102395563D01*
X157317794Y-102349605D01*
X157331800Y-102302095D01*
X157346462Y-102275416D01*
X157381926Y-102241119D01*
X157435580Y-102210478D01*
X157498084Y-102190927D01*
X157572875Y-102184009D01*
X157647022Y-102190550D01*
X157705922Y-102208606D01*
X157752760Y-102236857D01*
X157791672Y-102275348D01*
X157812335Y-102311569D01*
X157818797Y-102347041D01*
X157812278Y-102384690D01*
X157791687Y-102422512D01*
X157759292Y-102454148D01*
X157712277Y-102479390D01*
X157661927Y-102494239D01*
X157516089Y-102525552D01*
X157364599Y-102561386D01*
X157268060Y-102595344D01*
X157213888Y-102625284D01*
X157166127Y-102664715D01*
X157124171Y-102714504D01*
X157092689Y-102770971D01*
X157073427Y-102834711D01*
X157066743Y-102907486D01*
X156781345Y-102907486D01*
X156781345Y-102213318D01*
X156842048Y-102205169D01*
X156879714Y-102184192D01*
X156903366Y-102150927D01*
X156911496Y-102107805D01*
X156903262Y-102064737D01*
X156879256Y-102031509D01*
X156840018Y-102010725D01*
X156771087Y-102002292D01*
X156331542Y-102003299D01*
X156230502Y-102012726D01*
X156131232Y-102041218D01*
X156040626Y-102085667D01*
X155973879Y-102137480D01*
X155930194Y-102186819D01*
X155880181Y-102258381D01*
X155836894Y-102336239D01*
X155806908Y-102411063D01*
X155788957Y-102491479D01*
X155782631Y-102590856D01*
X155782270Y-102596535D01*
X155408121Y-102596535D01*
X155254064Y-102213318D01*
X155391359Y-102213318D01*
X155460286Y-102204904D01*
X155499437Y-102184192D01*
X155523446Y-102150889D01*
X155531677Y-102107805D01*
X155523443Y-102064737D01*
X155499437Y-102031509D01*
X155460276Y-102010729D01*
X155391359Y-102002292D01*
X154937434Y-102002292D01*
X154659484Y-102688126D01*
X154519321Y-103033974D01*
X154452511Y-103039941D01*
X154422051Y-103053025D01*
X154385860Y-103095808D01*
X154374882Y-103139487D01*
X154208215Y-103139487D01*
X154208215Y-101806316D01*
X158236516Y-101806316D01*
X158236516Y-103446837D01*
G37*
G36*
X155012965Y-109704739D02*
G01*
X155064095Y-109730097D01*
X155108910Y-109773659D01*
X155158689Y-109856234D01*
X155189377Y-109952178D01*
X155200135Y-110064827D01*
X155200135Y-110294537D01*
X155189072Y-110405694D01*
X155156934Y-110504234D01*
X155103781Y-110592849D01*
X155063707Y-110631579D01*
X155013851Y-110654996D01*
X154951099Y-110663283D01*
X154892003Y-110654657D01*
X154841192Y-110629331D01*
X154796401Y-110585705D01*
X154746622Y-110503130D01*
X154715935Y-110407186D01*
X154705177Y-110294537D01*
X154705177Y-110064827D01*
X154716095Y-109954259D01*
X154747878Y-109855680D01*
X154800523Y-109766515D01*
X154841175Y-109727694D01*
X154891087Y-109704315D01*
X154953205Y-109696081D01*
X155012965Y-109704739D01*
G37*
G36*
X156471236Y-110633974D02*
G01*
X156247845Y-110633974D01*
X156164549Y-110629173D01*
X156103355Y-110616542D01*
X156059351Y-110598162D01*
X156007425Y-110563041D01*
X155966164Y-110523224D01*
X155934329Y-110478452D01*
X155911969Y-110428287D01*
X155897518Y-110366384D01*
X155892288Y-110290141D01*
X155892288Y-110190856D01*
X155902172Y-110095946D01*
X155930207Y-110016925D01*
X155974785Y-109942649D01*
X156019310Y-109890813D01*
X156063930Y-109856823D01*
X156115205Y-109833466D01*
X156176480Y-109818617D01*
X156249860Y-109813318D01*
X156471236Y-109813318D01*
X156471236Y-110633974D01*
G37*
G36*
X158136516Y-111046837D02*
G01*
X154327484Y-111046837D01*
X154327484Y-110064552D01*
X154494151Y-110064552D01*
X154494151Y-110064827D01*
X154494151Y-110294537D01*
X154494151Y-110294812D01*
X154501402Y-110395140D01*
X154523157Y-110493333D01*
X154559850Y-110590345D01*
X154612486Y-110687005D01*
X154665137Y-110755766D01*
X154724262Y-110807440D01*
X154790561Y-110844078D01*
X154865483Y-110866517D01*
X154951099Y-110874309D01*
X155034212Y-110867645D01*
X155105047Y-110848747D01*
X155165788Y-110818530D01*
X155218430Y-110775664D01*
X155273621Y-110709267D01*
X155331751Y-110612816D01*
X155375424Y-110510457D01*
X155401427Y-110404892D01*
X155410153Y-110294812D01*
X155410153Y-110196535D01*
X155682270Y-110196535D01*
X155682270Y-110290141D01*
X155682270Y-110296919D01*
X155687591Y-110384788D01*
X155702876Y-110463053D01*
X155727424Y-110533040D01*
X155780544Y-110627952D01*
X155845760Y-110701110D01*
X155919643Y-110759524D01*
X155983513Y-110796823D01*
X156053551Y-110822250D01*
X156140832Y-110838923D01*
X156248944Y-110845000D01*
X156671087Y-110845000D01*
X156740028Y-110836589D01*
X156779256Y-110815874D01*
X156803265Y-110782570D01*
X156811496Y-110739487D01*
X156803262Y-110696419D01*
X156779256Y-110663191D01*
X156741242Y-110642091D01*
X156681345Y-110633974D01*
X156681345Y-110507486D01*
X156966743Y-110507486D01*
X156973979Y-110583540D01*
X156994733Y-110649209D01*
X157028568Y-110706560D01*
X157076378Y-110756980D01*
X157152140Y-110809754D01*
X157237916Y-110848039D01*
X157335535Y-110871847D01*
X157447322Y-110880170D01*
X157533480Y-110874649D01*
X157616948Y-110858189D01*
X157697782Y-110830897D01*
X157777233Y-110792243D01*
X157821837Y-110835566D01*
X157863328Y-110845000D01*
X157907193Y-110836707D01*
X157940631Y-110812668D01*
X157961439Y-110773527D01*
X157969849Y-110705323D01*
X157969849Y-110563632D01*
X157961410Y-110494539D01*
X157940631Y-110455280D01*
X157907180Y-110431244D01*
X157863237Y-110422948D01*
X157828785Y-110428052D01*
X157801321Y-110442640D01*
X157780222Y-110467108D01*
X157762944Y-110508311D01*
X157747896Y-110550066D01*
X157735192Y-110570867D01*
X157698359Y-110600441D01*
X157629679Y-110636080D01*
X157551127Y-110660702D01*
X157463625Y-110669145D01*
X157372132Y-110661210D01*
X157296296Y-110638920D01*
X157233090Y-110603474D01*
X157200210Y-110573530D01*
X157181837Y-110541168D01*
X157175754Y-110505013D01*
X157182452Y-110467813D01*
X157203415Y-110431741D01*
X157237386Y-110401814D01*
X157293540Y-110374771D01*
X157347252Y-110359521D01*
X157476997Y-110332731D01*
X157637684Y-110294718D01*
X157737207Y-110255794D01*
X157792172Y-110221341D01*
X157838366Y-110179097D01*
X157876609Y-110128483D01*
X157905166Y-110071937D01*
X157922112Y-110013034D01*
X157927808Y-109950796D01*
X157920111Y-109878484D01*
X157897252Y-109811253D01*
X157858504Y-109747582D01*
X157801779Y-109686464D01*
X157735831Y-109637883D01*
X157660461Y-109602641D01*
X157573906Y-109580683D01*
X157473883Y-109572983D01*
X157394679Y-109577473D01*
X157323765Y-109590385D01*
X157257308Y-109612492D01*
X157198285Y-109643325D01*
X157155446Y-109611633D01*
X157116311Y-109602292D01*
X157074189Y-109610513D01*
X157041024Y-109634715D01*
X157020217Y-109673955D01*
X157011806Y-109742335D01*
X157011806Y-109900879D01*
X157020247Y-109970148D01*
X157041024Y-110009506D01*
X157074189Y-110033708D01*
X157116311Y-110041929D01*
X157152907Y-110036017D01*
X157183997Y-110018573D01*
X157202270Y-109995563D01*
X157217794Y-109949605D01*
X157231800Y-109902095D01*
X157246462Y-109875416D01*
X157281926Y-109841119D01*
X157335580Y-109810478D01*
X157398084Y-109790927D01*
X157472875Y-109784009D01*
X157547022Y-109790550D01*
X157605922Y-109808606D01*
X157652760Y-109836857D01*
X157691672Y-109875348D01*
X157712335Y-109911569D01*
X157718797Y-109947041D01*
X157712278Y-109984690D01*
X157691687Y-110022512D01*
X157659292Y-110054148D01*
X157612277Y-110079390D01*
X157561927Y-110094239D01*
X157416089Y-110125552D01*
X157264599Y-110161386D01*
X157168060Y-110195344D01*
X157113888Y-110225284D01*
X157066127Y-110264715D01*
X157024171Y-110314504D01*
X156992689Y-110370971D01*
X156973427Y-110434711D01*
X156966743Y-110507486D01*
X156681345Y-110507486D01*
X156681345Y-109813318D01*
X156742048Y-109805169D01*
X156779714Y-109784192D01*
X156803366Y-109750927D01*
X156811496Y-109707805D01*
X156803262Y-109664737D01*
X156779256Y-109631509D01*
X156740018Y-109610725D01*
X156671087Y-109602292D01*
X156231542Y-109603299D01*
X156130502Y-109612726D01*
X156031232Y-109641218D01*
X155940626Y-109685667D01*
X155873879Y-109737480D01*
X155830194Y-109786819D01*
X155780181Y-109858381D01*
X155736894Y-109936239D01*
X155706908Y-110011063D01*
X155688957Y-110091479D01*
X155682631Y-110190856D01*
X155682270Y-110196535D01*
X155410153Y-110196535D01*
X155410153Y-110064552D01*
X155402950Y-109964737D01*
X155381321Y-109866800D01*
X155344801Y-109769798D01*
X155292367Y-109672909D01*
X155239865Y-109603924D01*
X155180861Y-109552102D01*
X155114658Y-109515367D01*
X155039803Y-109492869D01*
X154954213Y-109485055D01*
X154871754Y-109491653D01*
X154801263Y-109510387D01*
X154740622Y-109540376D01*
X154687894Y-109582911D01*
X154632355Y-109649124D01*
X154573560Y-109745632D01*
X154529346Y-109847995D01*
X154503000Y-109953852D01*
X154494151Y-110064552D01*
X154327484Y-110064552D01*
X154327484Y-109318388D01*
X158136516Y-109318388D01*
X158136516Y-111046837D01*
G37*
G36*
X165312863Y-105124187D02*
G01*
X165348433Y-105139171D01*
X165380928Y-105164731D01*
X165406217Y-105197410D01*
X165421131Y-105233521D01*
X165426210Y-105274298D01*
X165421131Y-105315076D01*
X165406217Y-105351186D01*
X165380928Y-105383866D01*
X165348433Y-105409425D01*
X165312863Y-105424410D01*
X165273021Y-105429490D01*
X165233525Y-105424430D01*
X165198043Y-105409463D01*
X165165408Y-105383866D01*
X165139943Y-105351166D01*
X165124939Y-105315056D01*
X165119832Y-105274298D01*
X165124939Y-105233540D01*
X165139943Y-105197431D01*
X165165408Y-105164731D01*
X165198043Y-105139133D01*
X165233525Y-105124167D01*
X165273021Y-105119106D01*
X165312863Y-105124187D01*
G37*
G36*
X166629703Y-104509368D02*
G01*
X166682258Y-104526508D01*
X166729519Y-104554856D01*
X166750175Y-104576229D01*
X166762664Y-104602819D01*
X166767084Y-104636287D01*
X166762484Y-104667804D01*
X166748976Y-104694904D01*
X166725709Y-104718792D01*
X166681669Y-104745341D01*
X166630499Y-104761708D01*
X166570420Y-104767445D01*
X166447907Y-104767445D01*
X166388938Y-104761622D01*
X166336363Y-104744671D01*
X166288808Y-104716594D01*
X166268103Y-104694913D01*
X166255635Y-104668293D01*
X166251243Y-104635163D01*
X166255861Y-104603292D01*
X166269385Y-104576022D01*
X166292618Y-104552121D01*
X166336658Y-104525572D01*
X166387828Y-104509205D01*
X166447907Y-104503468D01*
X166570420Y-104503468D01*
X166629703Y-104509368D01*
G37*
G36*
X165315934Y-103792543D02*
G01*
X165348074Y-103808880D01*
X165380830Y-103838639D01*
X165405836Y-103875108D01*
X165420966Y-103916714D01*
X165426210Y-103964912D01*
X165420952Y-104013468D01*
X165405810Y-104055224D01*
X165380830Y-104091674D01*
X165348063Y-104121423D01*
X165315744Y-104137794D01*
X165282742Y-104143063D01*
X165248241Y-104138858D01*
X165215544Y-104126195D01*
X165183824Y-104104277D01*
X165157232Y-104075742D01*
X165138446Y-104043554D01*
X165126953Y-104006975D01*
X165122958Y-103964912D01*
X165128537Y-103916211D01*
X165144627Y-103874470D01*
X165171318Y-103838101D01*
X165206074Y-103809360D01*
X165242992Y-103792823D01*
X165283279Y-103787299D01*
X165315934Y-103792543D01*
G37*
G36*
X163941703Y-103837993D02*
G01*
X163994258Y-103855133D01*
X164041519Y-103883482D01*
X164062175Y-103904855D01*
X164074664Y-103931444D01*
X164079084Y-103964912D01*
X164074484Y-103996430D01*
X164060976Y-104023529D01*
X164037709Y-104047418D01*
X163993669Y-104073966D01*
X163942499Y-104090333D01*
X163882420Y-104096071D01*
X163759907Y-104096071D01*
X163700938Y-104090247D01*
X163648363Y-104073296D01*
X163600808Y-104045219D01*
X163580103Y-104023538D01*
X163567635Y-103996918D01*
X163563243Y-103963789D01*
X163567861Y-103931917D01*
X163581385Y-103904648D01*
X163604618Y-103880746D01*
X163648658Y-103854197D01*
X163699828Y-103837831D01*
X163759907Y-103832093D01*
X163882420Y-103832093D01*
X163941703Y-103837993D01*
G37*
G36*
X164063452Y-102601939D02*
G01*
X164060892Y-102646364D01*
X164054156Y-102679001D01*
X164044353Y-102702470D01*
X164025622Y-102730163D01*
X164004386Y-102752169D01*
X163980508Y-102769148D01*
X163953753Y-102781073D01*
X163920738Y-102788781D01*
X163880075Y-102791570D01*
X163827123Y-102791570D01*
X163776504Y-102786298D01*
X163734360Y-102771346D01*
X163694746Y-102747572D01*
X163667100Y-102723825D01*
X163648972Y-102700027D01*
X163636515Y-102672681D01*
X163628595Y-102640001D01*
X163625769Y-102600865D01*
X163625769Y-102482798D01*
X164063452Y-102482798D01*
X164063452Y-102601939D01*
G37*
G36*
X165216748Y-101435680D02*
G01*
X165187375Y-101416319D01*
X165164136Y-101393973D01*
X165146308Y-101368464D01*
X165133637Y-101339916D01*
X165125731Y-101307215D01*
X165122958Y-101269546D01*
X165125720Y-101232272D01*
X165133616Y-101199738D01*
X165146308Y-101171165D01*
X165164117Y-101145619D01*
X165187356Y-101123091D01*
X165216748Y-101103412D01*
X165216748Y-101435680D01*
G37*
G36*
X166638636Y-100472859D02*
G01*
X166666955Y-100487901D01*
X166697133Y-100515959D01*
X166720123Y-100549884D01*
X166734090Y-100588855D01*
X166738947Y-100634270D01*
X166734101Y-100680057D01*
X166720210Y-100719092D01*
X166697426Y-100752826D01*
X166667404Y-100780586D01*
X166638615Y-100795630D01*
X166609987Y-100800404D01*
X166585778Y-100796415D01*
X166550880Y-100781793D01*
X166518390Y-100758647D01*
X166490992Y-100724689D01*
X166477850Y-100698095D01*
X166469766Y-100668195D01*
X166466958Y-100634270D01*
X166471022Y-100593720D01*
X166482694Y-100558770D01*
X166501804Y-100528261D01*
X166528996Y-100501451D01*
X166558705Y-100482080D01*
X166585788Y-100471473D01*
X166611062Y-100468136D01*
X166638636Y-100472859D01*
G37*
G36*
X166567000Y-100026252D02*
G01*
X166349184Y-99936078D01*
X166567000Y-99845366D01*
X166567000Y-100026252D01*
G37*
G36*
X167198473Y-108348883D02*
G01*
X163350696Y-108348883D01*
X163350696Y-107992037D01*
X165010411Y-107992037D01*
X165012173Y-108030394D01*
X165017348Y-108066629D01*
X165026165Y-108101756D01*
X165038646Y-108135212D01*
X165026873Y-108154605D01*
X165022916Y-108171311D01*
X165027244Y-108192336D01*
X165040258Y-108209560D01*
X165061229Y-108220420D01*
X165098290Y-108224849D01*
X165125743Y-108224849D01*
X165159446Y-108222143D01*
X165175812Y-108216106D01*
X165190018Y-108202862D01*
X165198278Y-108187291D01*
X165201116Y-108168576D01*
X165198017Y-108149511D01*
X165188806Y-108133014D01*
X165174604Y-108120534D01*
X165156127Y-108113377D01*
X165141570Y-108085292D01*
X165131263Y-108055980D01*
X165125060Y-108025439D01*
X165122958Y-107993112D01*
X165125665Y-107950067D01*
X165133020Y-107916233D01*
X165144159Y-107889846D01*
X165154615Y-107876471D01*
X165164235Y-107872896D01*
X165175338Y-107877509D01*
X165188709Y-107895854D01*
X165196076Y-107918832D01*
X165205561Y-107974012D01*
X165222477Y-108076799D01*
X165236092Y-108129204D01*
X165252336Y-108165656D01*
X165272345Y-108194800D01*
X165296078Y-108217718D01*
X165323843Y-108235402D01*
X165351626Y-108245549D01*
X165380048Y-108248883D01*
X165417484Y-108243117D01*
X165450468Y-108225950D01*
X165480383Y-108195882D01*
X165505077Y-108156740D01*
X165523266Y-108111568D01*
X165534719Y-108059301D01*
X165538757Y-107998632D01*
X165536691Y-107950979D01*
X165530795Y-107908702D01*
X165520858Y-107868669D01*
X165507494Y-107833035D01*
X165516775Y-107815547D01*
X165520000Y-107796399D01*
X165515562Y-107772495D01*
X165502805Y-107754584D01*
X165481872Y-107743501D01*
X165445066Y-107739002D01*
X165407355Y-107739002D01*
X165370556Y-107743503D01*
X165349665Y-107754584D01*
X165336822Y-107772350D01*
X165332421Y-107795324D01*
X165335316Y-107814194D01*
X165343607Y-107829176D01*
X165357625Y-107840678D01*
X165382051Y-107850523D01*
X165400956Y-107878374D01*
X165415024Y-107912267D01*
X165423254Y-107949885D01*
X165426210Y-107995310D01*
X165423091Y-108046469D01*
X165414730Y-108085537D01*
X165402274Y-108114989D01*
X165389042Y-108130957D01*
X165377313Y-108135212D01*
X165364455Y-108132378D01*
X165352663Y-108123427D01*
X165341409Y-108106245D01*
X165329957Y-108069392D01*
X165317522Y-107986566D01*
X165307047Y-107915439D01*
X165293823Y-107864557D01*
X165278913Y-107829438D01*
X165263007Y-107806266D01*
X165234015Y-107780800D01*
X165201709Y-107765938D01*
X165164822Y-107760886D01*
X165127221Y-107766475D01*
X165094402Y-107783003D01*
X165064975Y-107811688D01*
X165041896Y-107847262D01*
X165024900Y-107888463D01*
X165014192Y-107936305D01*
X165010411Y-107992037D01*
X163350696Y-107992037D01*
X163350696Y-107076371D01*
X165022916Y-107076371D01*
X165022916Y-107207529D01*
X165357187Y-107207529D01*
X165389439Y-107212294D01*
X165409504Y-107224724D01*
X165421588Y-107245175D01*
X165426210Y-107277480D01*
X165423018Y-107311753D01*
X165412777Y-107350411D01*
X165395446Y-107391036D01*
X165364270Y-107446887D01*
X165135464Y-107446887D01*
X165135464Y-107406489D01*
X165130978Y-107369721D01*
X165119930Y-107348799D01*
X165102168Y-107335994D01*
X165079190Y-107331605D01*
X165056221Y-107335996D01*
X165038499Y-107348799D01*
X165027414Y-107369726D01*
X165022916Y-107406489D01*
X165022916Y-107558946D01*
X165407452Y-107558946D01*
X165411810Y-107591316D01*
X165423035Y-107611409D01*
X165440736Y-107624022D01*
X165463726Y-107628360D01*
X165486700Y-107623959D01*
X165504466Y-107611116D01*
X165515512Y-107590235D01*
X165520000Y-107553475D01*
X165520000Y-107446887D01*
X165494989Y-107446887D01*
X165514474Y-107398964D01*
X165527815Y-107355101D01*
X165536114Y-107311764D01*
X165538757Y-107272009D01*
X165536013Y-107235824D01*
X165528157Y-107204196D01*
X165515505Y-107176364D01*
X165487809Y-107140253D01*
X165451074Y-107112470D01*
X165419022Y-107100047D01*
X165377117Y-107095519D01*
X165135464Y-107095519D01*
X165135464Y-107076371D01*
X165130976Y-107039610D01*
X165119930Y-107018729D01*
X165102168Y-107005925D01*
X165079190Y-107001535D01*
X165056221Y-107005926D01*
X165038499Y-107018729D01*
X165027416Y-107039615D01*
X165022916Y-107076371D01*
X163350696Y-107076371D01*
X163350696Y-106683726D01*
X165010411Y-106683726D01*
X165014584Y-106732741D01*
X165026437Y-106774478D01*
X165045469Y-106810278D01*
X165071863Y-106841116D01*
X165106952Y-106866141D01*
X165149093Y-106881576D01*
X165200237Y-106887034D01*
X165407452Y-106887034D01*
X165411810Y-106919404D01*
X165423035Y-106939497D01*
X165440736Y-106952110D01*
X165463726Y-106956448D01*
X165486700Y-106952047D01*
X165504466Y-106939204D01*
X165515512Y-106918323D01*
X165520000Y-106881563D01*
X165520000Y-106780446D01*
X165515514Y-106743678D01*
X165504466Y-106722756D01*
X165486704Y-106709951D01*
X165463726Y-106705561D01*
X165440736Y-106709899D01*
X165423035Y-106722512D01*
X165411810Y-106742605D01*
X165407452Y-106774975D01*
X165197745Y-106774975D01*
X165174386Y-106772483D01*
X165157200Y-106765757D01*
X165144647Y-106755289D01*
X165133281Y-106736888D01*
X165125766Y-106711879D01*
X165122958Y-106678255D01*
X165126708Y-106641068D01*
X165137320Y-106610160D01*
X165156996Y-106580329D01*
X165197990Y-106536154D01*
X165407452Y-106536154D01*
X165410761Y-106575183D01*
X165417808Y-106591891D01*
X165433050Y-106607511D01*
X165448160Y-106615993D01*
X165463726Y-106618709D01*
X165486700Y-106614308D01*
X165504466Y-106601465D01*
X165515512Y-106580584D01*
X165520000Y-106543824D01*
X165520000Y-106416475D01*
X165515512Y-106379715D01*
X165504466Y-106358834D01*
X165486704Y-106346029D01*
X165463726Y-106341639D01*
X165440514Y-106347699D01*
X165417613Y-106367871D01*
X165410683Y-106385016D01*
X165407452Y-106424145D01*
X165135464Y-106424145D01*
X165131118Y-106391770D01*
X165119930Y-106371681D01*
X165102188Y-106359067D01*
X165079190Y-106354731D01*
X165056221Y-106359122D01*
X165038499Y-106371926D01*
X165027414Y-106392853D01*
X165022916Y-106429616D01*
X165022916Y-106536154D01*
X165060432Y-106536154D01*
X165038513Y-106568408D01*
X165022916Y-106603663D01*
X165013617Y-106641612D01*
X165010411Y-106683726D01*
X163350696Y-106683726D01*
X163350696Y-106018360D01*
X164810327Y-106018360D01*
X164929127Y-106018360D01*
X164929127Y-105885003D01*
X164810327Y-105885003D01*
X164810327Y-106018360D01*
X163350696Y-106018360D01*
X163350696Y-105831465D01*
X165022916Y-105831465D01*
X165022916Y-106033649D01*
X165407452Y-106033649D01*
X165407452Y-106168080D01*
X165411952Y-106204836D01*
X165423035Y-106225722D01*
X165440761Y-106238563D01*
X165463726Y-106242965D01*
X165486700Y-106238565D01*
X165504466Y-106225722D01*
X165515512Y-106204841D01*
X165520000Y-106168080D01*
X165520000Y-105787208D01*
X165518129Y-105771870D01*
X166157454Y-105771870D01*
X166157454Y-106114542D01*
X166161979Y-106151287D01*
X166173134Y-106172184D01*
X166190954Y-106185024D01*
X166214020Y-106189427D01*
X166236591Y-106185052D01*
X166254369Y-106172184D01*
X166265489Y-106151293D01*
X166270001Y-106114542D01*
X166270001Y-105883928D01*
X166407558Y-105883928D01*
X166390782Y-105945261D01*
X166385674Y-105997062D01*
X166390228Y-106047479D01*
X166403411Y-106092192D01*
X166425037Y-106132308D01*
X166455625Y-106168618D01*
X166492571Y-106198150D01*
X166534305Y-106219325D01*
X166581753Y-106232398D01*
X166636170Y-106236957D01*
X166692392Y-106232226D01*
X166739916Y-106218836D01*
X166780348Y-106197422D01*
X166814858Y-106167836D01*
X166841435Y-106131792D01*
X166861628Y-106086041D01*
X166874818Y-106028381D01*
X166879631Y-105956078D01*
X166876137Y-105892267D01*
X166866393Y-105838867D01*
X166851276Y-105794289D01*
X166831320Y-105757166D01*
X166810419Y-105732130D01*
X166789436Y-105718772D01*
X166767475Y-105714521D01*
X166746241Y-105718644D01*
X166727761Y-105731179D01*
X166715010Y-105749500D01*
X166710810Y-105770795D01*
X166715048Y-105789573D01*
X166729861Y-105812316D01*
X166746214Y-105835681D01*
X166756288Y-105859357D01*
X166764090Y-105896885D01*
X166767084Y-105948995D01*
X166762510Y-106016702D01*
X166751063Y-106060649D01*
X166735186Y-106087773D01*
X166711410Y-106107663D01*
X166679609Y-106120306D01*
X166637196Y-106124947D01*
X166595326Y-106120597D01*
X166561971Y-106108480D01*
X166535249Y-106089141D01*
X166514830Y-106063258D01*
X166502513Y-106033004D01*
X166498221Y-105997062D01*
X166501952Y-105957353D01*
X166514034Y-105911680D01*
X166536177Y-105858771D01*
X166543111Y-105841564D01*
X166545116Y-105828143D01*
X166540722Y-105806065D01*
X166527579Y-105787990D01*
X166507902Y-105776069D01*
X166482053Y-105771870D01*
X166157454Y-105771870D01*
X165518129Y-105771870D01*
X165515514Y-105750440D01*
X165504466Y-105729518D01*
X165486704Y-105716713D01*
X165463726Y-105712323D01*
X165440757Y-105716715D01*
X165423035Y-105729518D01*
X165411950Y-105750445D01*
X165407452Y-105787208D01*
X165407452Y-105921639D01*
X165135464Y-105921639D01*
X165135464Y-105831465D01*
X165131003Y-105795132D01*
X165119930Y-105774068D01*
X165102143Y-105761034D01*
X165079190Y-105756580D01*
X165056221Y-105760972D01*
X165038499Y-105773775D01*
X165027414Y-105794702D01*
X165022916Y-105831465D01*
X163350696Y-105831465D01*
X163350696Y-105275422D01*
X165007285Y-105275422D01*
X165010413Y-105317254D01*
X165019644Y-105356559D01*
X165035092Y-105393922D01*
X165057306Y-105430076D01*
X165022916Y-105430076D01*
X165022916Y-105561235D01*
X165027415Y-105597947D01*
X165038499Y-105618827D01*
X165056225Y-105631669D01*
X165079190Y-105636071D01*
X165102164Y-105631670D01*
X165119930Y-105618827D01*
X165130978Y-105597952D01*
X165135464Y-105561235D01*
X165135464Y-105542086D01*
X165543740Y-105542086D01*
X165582494Y-105539165D01*
X165616628Y-105530775D01*
X165646908Y-105517222D01*
X165674188Y-105498309D01*
X165699419Y-105473186D01*
X165722721Y-105440969D01*
X165740245Y-105405583D01*
X165750847Y-105367208D01*
X165754473Y-105325101D01*
X165754473Y-105298869D01*
X166138696Y-105298869D01*
X166142976Y-105351124D01*
X166155253Y-105396781D01*
X166175123Y-105437006D01*
X166202785Y-105472672D01*
X166237024Y-105502694D01*
X166273817Y-105523591D01*
X166313794Y-105536141D01*
X166357879Y-105540425D01*
X166402799Y-105535515D01*
X166443755Y-105521032D01*
X166485090Y-105492900D01*
X166553323Y-105427829D01*
X166618754Y-105355811D01*
X166751452Y-105202149D01*
X166751452Y-105447564D01*
X166739380Y-105468110D01*
X166735821Y-105485812D01*
X166740212Y-105509166D01*
X166752820Y-105526503D01*
X166773517Y-105537160D01*
X166810852Y-105541549D01*
X166864000Y-105541549D01*
X166864000Y-105031130D01*
X166745200Y-105031130D01*
X166571414Y-105238096D01*
X166473267Y-105348052D01*
X166424265Y-105396713D01*
X166398568Y-105415345D01*
X166375752Y-105425328D01*
X166354949Y-105428415D01*
X166329213Y-105424590D01*
X166305390Y-105413026D01*
X166282653Y-105392609D01*
X166265674Y-105367074D01*
X166255042Y-105335802D01*
X166251243Y-105297257D01*
X166255295Y-105258462D01*
X166266882Y-105225530D01*
X166285828Y-105197215D01*
X166307516Y-105179209D01*
X166340392Y-105163900D01*
X166360638Y-105154288D01*
X166372827Y-105142847D01*
X166380009Y-105128251D01*
X166382548Y-105109776D01*
X166378485Y-105088432D01*
X166366233Y-105070160D01*
X166348348Y-105057590D01*
X166328131Y-105053503D01*
X166306996Y-105056247D01*
X166280302Y-105065621D01*
X166246456Y-105083838D01*
X166216475Y-105106689D01*
X166190413Y-105135905D01*
X166168103Y-105172351D01*
X166151838Y-105212062D01*
X166142025Y-105254052D01*
X166138696Y-105298869D01*
X165754473Y-105298869D01*
X165754473Y-105198339D01*
X165749950Y-105161586D01*
X165738792Y-105140648D01*
X165721058Y-105127820D01*
X165698492Y-105123454D01*
X165675413Y-105127845D01*
X165657557Y-105140648D01*
X165646436Y-105161581D01*
X165641926Y-105198339D01*
X165641926Y-105321828D01*
X165638544Y-105355017D01*
X165629190Y-105381093D01*
X165614375Y-105401646D01*
X165594490Y-105417382D01*
X165571583Y-105426812D01*
X165544717Y-105430076D01*
X165490690Y-105430076D01*
X165511923Y-105392133D01*
X165526741Y-105354361D01*
X165535751Y-105315394D01*
X165538757Y-105275422D01*
X165533790Y-105219602D01*
X165519382Y-105169832D01*
X165495723Y-105124939D01*
X165462260Y-105084082D01*
X165421613Y-105050289D01*
X165377171Y-105026478D01*
X165328120Y-105012021D01*
X165273314Y-105007048D01*
X165218196Y-105012032D01*
X165168962Y-105026505D01*
X165124449Y-105050319D01*
X165083831Y-105084082D01*
X165050345Y-105124942D01*
X165026671Y-105169836D01*
X165012255Y-105219605D01*
X165007385Y-105274298D01*
X165007285Y-105275422D01*
X163350696Y-105275422D01*
X163350696Y-104669602D01*
X165010411Y-104669602D01*
X165014584Y-104718617D01*
X165026437Y-104760353D01*
X165045469Y-104796154D01*
X165071863Y-104826992D01*
X165106952Y-104852017D01*
X165149093Y-104867452D01*
X165200237Y-104872909D01*
X165407452Y-104872909D01*
X165411810Y-104905279D01*
X165423035Y-104925373D01*
X165440736Y-104937986D01*
X165463726Y-104942323D01*
X165486700Y-104937923D01*
X165504466Y-104925080D01*
X165515512Y-104904199D01*
X165520000Y-104867438D01*
X165520000Y-104766322D01*
X165515514Y-104729553D01*
X165504466Y-104708632D01*
X165486704Y-104695827D01*
X165463726Y-104691437D01*
X165440736Y-104695775D01*
X165423035Y-104708387D01*
X165411810Y-104728481D01*
X165407452Y-104760851D01*
X165197745Y-104760851D01*
X165174386Y-104758359D01*
X165157200Y-104751633D01*
X165144647Y-104741165D01*
X165133281Y-104722763D01*
X165125766Y-104697755D01*
X165122958Y-104664131D01*
X165125933Y-104634626D01*
X166138696Y-104634626D01*
X166138739Y-104635163D01*
X166142215Y-104678604D01*
X166152206Y-104716199D01*
X166168200Y-104748541D01*
X166190886Y-104776663D01*
X166226199Y-104806284D01*
X166277670Y-104837641D01*
X166332264Y-104861222D01*
X166388721Y-104875273D01*
X166447761Y-104879993D01*
X166570566Y-104879993D01*
X166624075Y-104876125D01*
X166676444Y-104864523D01*
X166728184Y-104844953D01*
X166779736Y-104816880D01*
X166816408Y-104788800D01*
X166843968Y-104757267D01*
X166863508Y-104721907D01*
X166875475Y-104681949D01*
X166879631Y-104636287D01*
X166876077Y-104591960D01*
X166865998Y-104554181D01*
X166849882Y-104521786D01*
X166827020Y-104493710D01*
X166791609Y-104464275D01*
X166740168Y-104433272D01*
X166685577Y-104409980D01*
X166629275Y-104396112D01*
X166570566Y-104391458D01*
X166447761Y-104391458D01*
X166394526Y-104395299D01*
X166342293Y-104406835D01*
X166290559Y-104426313D01*
X166238884Y-104454277D01*
X166202093Y-104482278D01*
X166174454Y-104513747D01*
X166154862Y-104549055D01*
X166142863Y-104588978D01*
X166138696Y-104634626D01*
X165125933Y-104634626D01*
X165126708Y-104626944D01*
X165137320Y-104596036D01*
X165156996Y-104566205D01*
X165197990Y-104522030D01*
X165407452Y-104522030D01*
X165410761Y-104561059D01*
X165417808Y-104577766D01*
X165433050Y-104593387D01*
X165448160Y-104601869D01*
X165463726Y-104604584D01*
X165486700Y-104600184D01*
X165504466Y-104587341D01*
X165515512Y-104566460D01*
X165520000Y-104529699D01*
X165520000Y-104402351D01*
X165515512Y-104365591D01*
X165504466Y-104344710D01*
X165486704Y-104331905D01*
X165463726Y-104327515D01*
X165440514Y-104333575D01*
X165417613Y-104353747D01*
X165410683Y-104370891D01*
X165407452Y-104410020D01*
X165135464Y-104410020D01*
X165131118Y-104377646D01*
X165119930Y-104357557D01*
X165102188Y-104344943D01*
X165079190Y-104340607D01*
X165056221Y-104344998D01*
X165038499Y-104357801D01*
X165027414Y-104378728D01*
X165022916Y-104415491D01*
X165022916Y-104522030D01*
X165060432Y-104522030D01*
X165038513Y-104554284D01*
X165022916Y-104589539D01*
X165013617Y-104627488D01*
X165010411Y-104669602D01*
X163350696Y-104669602D01*
X163350696Y-103963251D01*
X163450696Y-103963251D01*
X163450739Y-103963789D01*
X163454215Y-104007230D01*
X163464206Y-104044825D01*
X163480200Y-104077166D01*
X163502886Y-104105288D01*
X163538199Y-104134909D01*
X163589670Y-104166266D01*
X163644264Y-104189847D01*
X163700721Y-104203898D01*
X163759761Y-104208618D01*
X163882566Y-104208618D01*
X163936075Y-104204750D01*
X163988444Y-104193148D01*
X164040184Y-104173578D01*
X164091736Y-104145505D01*
X164128408Y-104117425D01*
X164155968Y-104085892D01*
X164175508Y-104050532D01*
X164187475Y-104010574D01*
X164191631Y-103964912D01*
X165010415Y-103964912D01*
X165014581Y-104014970D01*
X165027113Y-104063858D01*
X165048367Y-104112142D01*
X165077095Y-104156157D01*
X165110994Y-104191447D01*
X165150411Y-104218974D01*
X165194268Y-104239288D01*
X165238000Y-104251153D01*
X165282205Y-104255073D01*
X165324222Y-104251185D01*
X165365604Y-104239423D01*
X165406964Y-104219267D01*
X165443815Y-104192064D01*
X165475749Y-104156903D01*
X165503000Y-104112679D01*
X165522968Y-104064503D01*
X165534805Y-104015418D01*
X165538757Y-103964863D01*
X165538079Y-103956120D01*
X166138696Y-103956120D01*
X166142976Y-104008375D01*
X166155253Y-104054032D01*
X166175123Y-104094257D01*
X166202785Y-104129923D01*
X166237024Y-104159944D01*
X166273817Y-104180841D01*
X166313794Y-104193391D01*
X166357879Y-104197676D01*
X166402799Y-104192766D01*
X166443755Y-104178283D01*
X166485090Y-104150150D01*
X166553323Y-104085080D01*
X166618754Y-104013062D01*
X166751452Y-103859399D01*
X166751452Y-104104815D01*
X166739380Y-104125361D01*
X166735821Y-104143063D01*
X166740212Y-104166417D01*
X166752820Y-104183754D01*
X166773517Y-104194411D01*
X166810852Y-104198799D01*
X166864000Y-104198799D01*
X166864000Y-103688381D01*
X166745200Y-103688381D01*
X166571414Y-103895347D01*
X166473267Y-104005302D01*
X166424265Y-104053963D01*
X166398568Y-104072596D01*
X166375752Y-104082578D01*
X166354949Y-104085666D01*
X166329213Y-104081841D01*
X166305390Y-104070276D01*
X166282653Y-104049860D01*
X166265674Y-104024324D01*
X166255042Y-103993053D01*
X166251243Y-103954508D01*
X166255295Y-103915713D01*
X166266882Y-103882780D01*
X166285828Y-103854466D01*
X166307516Y-103836459D01*
X166340392Y-103821151D01*
X166360638Y-103811538D01*
X166372827Y-103800097D01*
X166380009Y-103785502D01*
X166382548Y-103767027D01*
X166378485Y-103745683D01*
X166366233Y-103727411D01*
X166348348Y-103714841D01*
X166328131Y-103710753D01*
X166306996Y-103713498D01*
X166280302Y-103722872D01*
X166246456Y-103741088D01*
X166216475Y-103763940D01*
X166190413Y-103793155D01*
X166168103Y-103829602D01*
X166151838Y-103869312D01*
X166142025Y-103911302D01*
X166138696Y-103956120D01*
X165538079Y-103956120D01*
X165534864Y-103914684D01*
X165523215Y-103866052D01*
X165503586Y-103818415D01*
X165476717Y-103774714D01*
X165444876Y-103739513D01*
X165407794Y-103711828D01*
X165366188Y-103691272D01*
X165324179Y-103679234D01*
X165281130Y-103675240D01*
X165237318Y-103679248D01*
X165193596Y-103691434D01*
X165149337Y-103712414D01*
X165109521Y-103740598D01*
X165075723Y-103775940D01*
X165047536Y-103819246D01*
X165026772Y-103866788D01*
X165014502Y-103915127D01*
X165010415Y-103964912D01*
X164191631Y-103964912D01*
X164188077Y-103920585D01*
X164177998Y-103882806D01*
X164161882Y-103850411D01*
X164139020Y-103822335D01*
X164103609Y-103792900D01*
X164052168Y-103761898D01*
X163997577Y-103738605D01*
X163941275Y-103724737D01*
X163882566Y-103720083D01*
X163759761Y-103720083D01*
X163706526Y-103723925D01*
X163654293Y-103735460D01*
X163602559Y-103754938D01*
X163550884Y-103782903D01*
X163514093Y-103810904D01*
X163486454Y-103842373D01*
X163466862Y-103877681D01*
X163454863Y-103917603D01*
X163450696Y-103963251D01*
X163350696Y-103963251D01*
X163350696Y-103290802D01*
X163497591Y-103290802D01*
X163499985Y-103333044D01*
X163506872Y-103370865D01*
X163518662Y-103406309D01*
X163535106Y-103437787D01*
X163518204Y-103460635D01*
X163513222Y-103481507D01*
X163517606Y-103503972D01*
X163530515Y-103521660D01*
X163551442Y-103532757D01*
X163587912Y-103537243D01*
X163672468Y-103537243D01*
X163709412Y-103532741D01*
X163730403Y-103521660D01*
X163743311Y-103503972D01*
X163747695Y-103481507D01*
X163744542Y-103461989D01*
X163735239Y-103445408D01*
X163722967Y-103435662D01*
X163698456Y-103427383D01*
X163673117Y-103419913D01*
X163658889Y-103412093D01*
X163640597Y-103393179D01*
X163624255Y-103364563D01*
X163613828Y-103331228D01*
X163610138Y-103291339D01*
X163613626Y-103251795D01*
X163623256Y-103220381D01*
X163638323Y-103195401D01*
X163658852Y-103174648D01*
X163678170Y-103163627D01*
X163697088Y-103160181D01*
X163717168Y-103163658D01*
X163737339Y-103174640D01*
X163754212Y-103191917D01*
X163767674Y-103216992D01*
X163775594Y-103243845D01*
X163792294Y-103321625D01*
X163811406Y-103402420D01*
X163829517Y-103453907D01*
X163845485Y-103482799D01*
X163866514Y-103508272D01*
X163893069Y-103530648D01*
X163923184Y-103547439D01*
X163957179Y-103557712D01*
X163995993Y-103561277D01*
X164036554Y-103557418D01*
X164071578Y-103546349D01*
X164102165Y-103528303D01*
X164129056Y-103502805D01*
X164157202Y-103462399D01*
X164177620Y-103416651D01*
X164190318Y-103364588D01*
X164194757Y-103304968D01*
X164191813Y-103259017D01*
X164183034Y-103214501D01*
X164168478Y-103171389D01*
X164147863Y-103129016D01*
X164170968Y-103105226D01*
X164176000Y-103083098D01*
X164173313Y-103068883D01*
X164857222Y-103068883D01*
X164857222Y-103311563D01*
X164861722Y-103348318D01*
X164872805Y-103369204D01*
X164890526Y-103382007D01*
X164913496Y-103386399D01*
X164936474Y-103382009D01*
X164954235Y-103369204D01*
X164965282Y-103348323D01*
X164969769Y-103311563D01*
X164969769Y-103245959D01*
X165407452Y-103245959D01*
X165407452Y-103487515D01*
X165301158Y-103487515D01*
X165264273Y-103492019D01*
X165243370Y-103503098D01*
X165230525Y-103520857D01*
X165226127Y-103543789D01*
X165230502Y-103566300D01*
X165243370Y-103583991D01*
X165264273Y-103595070D01*
X165301158Y-103599574D01*
X165520000Y-103599574D01*
X165520000Y-103068883D01*
X165515516Y-103032158D01*
X165504466Y-103011242D01*
X165486704Y-102998437D01*
X165463726Y-102994047D01*
X165440757Y-102998438D01*
X165423035Y-103011242D01*
X165411949Y-103032163D01*
X165407452Y-103068883D01*
X165407452Y-103133949D01*
X164969769Y-103133949D01*
X164969769Y-103068883D01*
X164965285Y-103032158D01*
X164954235Y-103011242D01*
X164936474Y-102998437D01*
X164913496Y-102994047D01*
X164890526Y-102998438D01*
X164872805Y-103011242D01*
X164861719Y-103032163D01*
X164857222Y-103068883D01*
X164173313Y-103068883D01*
X164171577Y-103059703D01*
X164158756Y-103041870D01*
X164137881Y-103030772D01*
X164101505Y-103026287D01*
X164025937Y-103026287D01*
X163989087Y-103030788D01*
X163968149Y-103041870D01*
X163955330Y-103059710D01*
X163950905Y-103083147D01*
X163953627Y-103101521D01*
X163961408Y-103116168D01*
X163974457Y-103127421D01*
X163996432Y-103136636D01*
X164018702Y-103144662D01*
X164029796Y-103151437D01*
X164045568Y-103171082D01*
X164064576Y-103207711D01*
X164077708Y-103249605D01*
X164082210Y-103296273D01*
X164077979Y-103345069D01*
X164066090Y-103385515D01*
X164047186Y-103419225D01*
X164031216Y-103436761D01*
X164013956Y-103446560D01*
X163994674Y-103449804D01*
X163974833Y-103446232D01*
X163955595Y-103435052D01*
X163939634Y-103416934D01*
X163925211Y-103386985D01*
X163917078Y-103358338D01*
X163902789Y-103289141D01*
X163882516Y-103203441D01*
X163861757Y-103150362D01*
X163843381Y-103121048D01*
X163820851Y-103096411D01*
X163793857Y-103076015D01*
X163763699Y-103060784D01*
X163732285Y-103051746D01*
X163699091Y-103048709D01*
X163660524Y-103052814D01*
X163624668Y-103065005D01*
X163590710Y-103085671D01*
X163558114Y-103115924D01*
X163532204Y-103151096D01*
X163513408Y-103191294D01*
X163501697Y-103237456D01*
X163497591Y-103290802D01*
X163350696Y-103290802D01*
X163350696Y-102376210D01*
X163513222Y-102376210D01*
X163513466Y-102482798D01*
X163513737Y-102600865D01*
X163513759Y-102610635D01*
X163518787Y-102664522D01*
X163533983Y-102717466D01*
X163557689Y-102765790D01*
X163585323Y-102801388D01*
X163611637Y-102824687D01*
X163649803Y-102851360D01*
X163691327Y-102874447D01*
X163731233Y-102890439D01*
X163774122Y-102900013D01*
X163830152Y-102903579D01*
X163883690Y-102903579D01*
X163930554Y-102900742D01*
X163972294Y-102892589D01*
X164009621Y-102879497D01*
X164060241Y-102851167D01*
X164099258Y-102816385D01*
X164130413Y-102776980D01*
X164150305Y-102742916D01*
X164163866Y-102705563D01*
X164172759Y-102659013D01*
X164176000Y-102601353D01*
X164176000Y-102475129D01*
X166154327Y-102475129D01*
X166154327Y-102677313D01*
X166751452Y-102677313D01*
X166751452Y-102811793D01*
X166755951Y-102848505D01*
X166767035Y-102869385D01*
X166784761Y-102882227D01*
X166807726Y-102886629D01*
X166830700Y-102882228D01*
X166848466Y-102869385D01*
X166859514Y-102848510D01*
X166864000Y-102811793D01*
X166864000Y-102430872D01*
X166859514Y-102394103D01*
X166848466Y-102373182D01*
X166830704Y-102360377D01*
X166807726Y-102355987D01*
X166784757Y-102360378D01*
X166767035Y-102373182D01*
X166755950Y-102394109D01*
X166751452Y-102430872D01*
X166751452Y-102565303D01*
X166266875Y-102565303D01*
X166266875Y-102475129D01*
X166262414Y-102438796D01*
X166251341Y-102417732D01*
X166233554Y-102404698D01*
X166210601Y-102400244D01*
X166187632Y-102404635D01*
X166169910Y-102417438D01*
X166158825Y-102438365D01*
X166154327Y-102475129D01*
X164176000Y-102475129D01*
X164176000Y-102376210D01*
X164171514Y-102339442D01*
X164160466Y-102318520D01*
X164142704Y-102305715D01*
X164119726Y-102301325D01*
X164096757Y-102305717D01*
X164079035Y-102318520D01*
X164067782Y-102338794D01*
X164063452Y-102370739D01*
X163625769Y-102370739D01*
X163621423Y-102338364D01*
X163610235Y-102318276D01*
X163592494Y-102305661D01*
X163569496Y-102301325D01*
X163546526Y-102305717D01*
X163528805Y-102318520D01*
X163517720Y-102339447D01*
X163513222Y-102376210D01*
X163350696Y-102376210D01*
X163350696Y-101954598D01*
X163450696Y-101954598D01*
X163454729Y-102006055D01*
X163466192Y-102050189D01*
X163484540Y-102088272D01*
X163509803Y-102121270D01*
X163541434Y-102149187D01*
X163575268Y-102168570D01*
X163611877Y-102180182D01*
X163652099Y-102184138D01*
X163694058Y-102179449D01*
X163732845Y-102165526D01*
X163768209Y-102142852D01*
X163802064Y-102109790D01*
X163826533Y-102140980D01*
X163852561Y-102165487D01*
X163880270Y-102184089D01*
X163910704Y-102197648D01*
X163943655Y-102205888D01*
X163979677Y-102208709D01*
X164018328Y-102205084D01*
X164054717Y-102194316D01*
X164089489Y-102176175D01*
X164119914Y-102151692D01*
X164145263Y-102120596D01*
X164148680Y-102114138D01*
X165010411Y-102114138D01*
X165014663Y-102149282D01*
X165027732Y-102184360D01*
X165050760Y-102220188D01*
X165070693Y-102240973D01*
X165088941Y-102251823D01*
X165106350Y-102255163D01*
X165128546Y-102250969D01*
X165146992Y-102238457D01*
X165159449Y-102220087D01*
X165163600Y-102198304D01*
X165159030Y-102178119D01*
X165143279Y-102154584D01*
X165127342Y-102131446D01*
X165122958Y-102113649D01*
X165128728Y-102088247D01*
X165152316Y-102043405D01*
X165186277Y-101994512D01*
X165240439Y-101926706D01*
X165407452Y-101926706D01*
X165407452Y-102086294D01*
X165411952Y-102123049D01*
X165423035Y-102143935D01*
X165440761Y-102156777D01*
X165463726Y-102161179D01*
X165486700Y-102156778D01*
X165504466Y-102143935D01*
X165515512Y-102123055D01*
X165520000Y-102086294D01*
X165520000Y-101990111D01*
X166154327Y-101990111D01*
X166273127Y-101990111D01*
X166273127Y-101856755D01*
X166154327Y-101856755D01*
X166154327Y-101990111D01*
X165520000Y-101990111D01*
X165520000Y-101803217D01*
X166366916Y-101803217D01*
X166366916Y-102005401D01*
X166751452Y-102005401D01*
X166751452Y-102139832D01*
X166755952Y-102176587D01*
X166767035Y-102197473D01*
X166784761Y-102210315D01*
X166807726Y-102214717D01*
X166830700Y-102210316D01*
X166848466Y-102197473D01*
X166859512Y-102176593D01*
X166864000Y-102139832D01*
X166864000Y-101758960D01*
X166859514Y-101722191D01*
X166848466Y-101701270D01*
X166830704Y-101688465D01*
X166807726Y-101684075D01*
X166784757Y-101688466D01*
X166767035Y-101701270D01*
X166755950Y-101722197D01*
X166751452Y-101758960D01*
X166751452Y-101893391D01*
X166479464Y-101893391D01*
X166479464Y-101803217D01*
X166475003Y-101766884D01*
X166463930Y-101745819D01*
X166446143Y-101732786D01*
X166423190Y-101728332D01*
X166400221Y-101732723D01*
X166382499Y-101745526D01*
X166371414Y-101766453D01*
X166366916Y-101803217D01*
X165520000Y-101803217D01*
X165520000Y-101748018D01*
X165515514Y-101711249D01*
X165504466Y-101690327D01*
X165486704Y-101677523D01*
X165463726Y-101673133D01*
X165440757Y-101677524D01*
X165423035Y-101690327D01*
X165411950Y-101711254D01*
X165407452Y-101748018D01*
X165407452Y-101814696D01*
X165135464Y-101814696D01*
X165135464Y-101774249D01*
X165130978Y-101737481D01*
X165119930Y-101716559D01*
X165102168Y-101703754D01*
X165079190Y-101699364D01*
X165056221Y-101703756D01*
X165038499Y-101716559D01*
X165027414Y-101737486D01*
X165022916Y-101774249D01*
X165022916Y-101926706D01*
X165094870Y-101926706D01*
X165049812Y-101994467D01*
X165027313Y-102037885D01*
X165014407Y-102078366D01*
X165010411Y-102114138D01*
X164148680Y-102114138D01*
X164165741Y-102081898D01*
X164179317Y-102039889D01*
X164188324Y-101986749D01*
X164191631Y-101920160D01*
X164188506Y-101852978D01*
X164180007Y-101799480D01*
X164167241Y-101757341D01*
X164150989Y-101724521D01*
X164133494Y-101703111D01*
X164115450Y-101691590D01*
X164096083Y-101687885D01*
X164073698Y-101691954D01*
X164055197Y-101704005D01*
X164042617Y-101721867D01*
X164038442Y-101743084D01*
X164041025Y-101758717D01*
X164049433Y-101775861D01*
X164063559Y-101800079D01*
X164071415Y-101821242D01*
X164076893Y-101857089D01*
X164079084Y-101911416D01*
X164075569Y-101976945D01*
X164066557Y-102022471D01*
X164053878Y-102052979D01*
X164034139Y-102077797D01*
X164010799Y-102091900D01*
X163982559Y-102096699D01*
X163949716Y-102090614D01*
X163916662Y-102071249D01*
X163888890Y-102042068D01*
X163867570Y-102003251D01*
X163859995Y-101974303D01*
X163853990Y-101920160D01*
X163848570Y-101894766D01*
X163836795Y-101877222D01*
X163819516Y-101866033D01*
X163798254Y-101862226D01*
X163776039Y-101866357D01*
X163757856Y-101878590D01*
X163745632Y-101896973D01*
X163741443Y-101920160D01*
X163740905Y-101979706D01*
X163736373Y-102001243D01*
X163726739Y-102023426D01*
X163712479Y-102043194D01*
X163693766Y-102058695D01*
X163672136Y-102068824D01*
X163650438Y-102072079D01*
X163628253Y-102068707D01*
X163608069Y-102058560D01*
X163589133Y-102040669D01*
X163575592Y-102018225D01*
X163566607Y-101987625D01*
X163563243Y-101946392D01*
X163566590Y-101906307D01*
X163575971Y-101873185D01*
X163590817Y-101845704D01*
X163611163Y-101822903D01*
X163628993Y-101802679D01*
X163633576Y-101790654D01*
X163635148Y-101776985D01*
X163631014Y-101755705D01*
X163618540Y-101737613D01*
X163600107Y-101725387D01*
X163577556Y-101721249D01*
X163554276Y-101725989D01*
X163529923Y-101741485D01*
X163503306Y-101771514D01*
X163480912Y-101809125D01*
X163464518Y-101851601D01*
X163454278Y-101899762D01*
X163450696Y-101954598D01*
X163350696Y-101954598D01*
X163350696Y-101006692D01*
X163513222Y-101006692D01*
X163513222Y-101129644D01*
X163850863Y-101282100D01*
X163513222Y-101431870D01*
X163513222Y-101555896D01*
X163517722Y-101592652D01*
X163528805Y-101613538D01*
X163546530Y-101626379D01*
X163569496Y-101630781D01*
X163592632Y-101626817D01*
X163610235Y-101615491D01*
X163621589Y-101597606D01*
X163625769Y-101571235D01*
X164063452Y-101571235D01*
X164067812Y-101603597D01*
X164079035Y-101623649D01*
X164096736Y-101636262D01*
X164119726Y-101640600D01*
X164142704Y-101636210D01*
X164160466Y-101623405D01*
X164171512Y-101602524D01*
X164176000Y-101565764D01*
X164176000Y-101418192D01*
X164171528Y-101381906D01*
X164160466Y-101361088D01*
X164142704Y-101348283D01*
X164119726Y-101343893D01*
X164096757Y-101348285D01*
X164079035Y-101361088D01*
X164067937Y-101381911D01*
X164063452Y-101418192D01*
X164063452Y-101459176D01*
X163729914Y-101459176D01*
X164018609Y-101330753D01*
X164018609Y-101266810D01*
X165010411Y-101266810D01*
X165010579Y-101269546D01*
X165013170Y-101311875D01*
X165021228Y-101353529D01*
X165034396Y-101392254D01*
X165060892Y-101444582D01*
X165086175Y-101477250D01*
X165130431Y-101512606D01*
X165185924Y-101542267D01*
X165229459Y-101555169D01*
X165281863Y-101559755D01*
X165329295Y-101559755D01*
X165329295Y-101100139D01*
X165356136Y-101114575D01*
X165379432Y-101134993D01*
X165399539Y-101162177D01*
X165413593Y-101193055D01*
X165422822Y-101232532D01*
X165426210Y-101282686D01*
X165420454Y-101349467D01*
X165399588Y-101448234D01*
X165390796Y-101487813D01*
X165388695Y-101507292D01*
X165392679Y-101527930D01*
X165404570Y-101544954D01*
X165422281Y-101556369D01*
X165444577Y-101560293D01*
X165464762Y-101556217D01*
X165481800Y-101543879D01*
X165492708Y-101527301D01*
X165505590Y-101494521D01*
X165518987Y-101442763D01*
X166354411Y-101442763D01*
X166358663Y-101477907D01*
X166371732Y-101512986D01*
X166394760Y-101548813D01*
X166414693Y-101569598D01*
X166432941Y-101580448D01*
X166450350Y-101583789D01*
X166472546Y-101579594D01*
X166490992Y-101567083D01*
X166503449Y-101548713D01*
X166507600Y-101526929D01*
X166503030Y-101506744D01*
X166487279Y-101483210D01*
X166471342Y-101460072D01*
X166466958Y-101442274D01*
X166472728Y-101416872D01*
X166496316Y-101372030D01*
X166530277Y-101323138D01*
X166584439Y-101255331D01*
X166751452Y-101255331D01*
X166751452Y-101414919D01*
X166755952Y-101451675D01*
X166767035Y-101472561D01*
X166784761Y-101485402D01*
X166807726Y-101489804D01*
X166830700Y-101485404D01*
X166848466Y-101472561D01*
X166859512Y-101451680D01*
X166864000Y-101414919D01*
X166864000Y-101076643D01*
X166859514Y-101039874D01*
X166848466Y-101018953D01*
X166830704Y-101006148D01*
X166807726Y-101001758D01*
X166784757Y-101006150D01*
X166767035Y-101018953D01*
X166755950Y-101039880D01*
X166751452Y-101076643D01*
X166751452Y-101143321D01*
X166479464Y-101143321D01*
X166479464Y-101102875D01*
X166474978Y-101066106D01*
X166463930Y-101045184D01*
X166446168Y-101032380D01*
X166423190Y-101027990D01*
X166400221Y-101032381D01*
X166382499Y-101045184D01*
X166371414Y-101066111D01*
X166366916Y-101102875D01*
X166366916Y-101255331D01*
X166438870Y-101255331D01*
X166393812Y-101323092D01*
X166371313Y-101366510D01*
X166358407Y-101406991D01*
X166354411Y-101442763D01*
X165518987Y-101442763D01*
X165520390Y-101437341D01*
X165534283Y-101353228D01*
X165538757Y-101274480D01*
X165533563Y-101207790D01*
X165518823Y-101150764D01*
X165495269Y-101101728D01*
X165462896Y-101059399D01*
X165422346Y-101023826D01*
X165378313Y-100998954D01*
X165330000Y-100983945D01*
X165276245Y-100978799D01*
X165219070Y-100984444D01*
X165168923Y-101000765D01*
X165124342Y-101027628D01*
X165084368Y-101065945D01*
X165051769Y-101111609D01*
X165028873Y-101159833D01*
X165015094Y-101211278D01*
X165010411Y-101266810D01*
X164018609Y-101266810D01*
X164018609Y-101233496D01*
X163729914Y-101103412D01*
X164063452Y-101103412D01*
X164063452Y-101143859D01*
X164067952Y-101180614D01*
X164079035Y-101201500D01*
X164096761Y-101214341D01*
X164119726Y-101218743D01*
X164142700Y-101214343D01*
X164160466Y-101201500D01*
X164171512Y-101180619D01*
X164176000Y-101143859D01*
X164176000Y-100996873D01*
X164171512Y-100960113D01*
X164160466Y-100939232D01*
X164142700Y-100926389D01*
X164119726Y-100921988D01*
X164096736Y-100926326D01*
X164079035Y-100938939D01*
X164067810Y-100959032D01*
X164063452Y-100991402D01*
X163625769Y-100991402D01*
X163621560Y-100964604D01*
X163610235Y-100946852D01*
X163592652Y-100935715D01*
X163569496Y-100931807D01*
X163546526Y-100936198D01*
X163528805Y-100949002D01*
X163517720Y-100969929D01*
X163513222Y-101006692D01*
X163350696Y-101006692D01*
X163350696Y-100605303D01*
X163497591Y-100605303D01*
X163499985Y-100647545D01*
X163506872Y-100685366D01*
X163518662Y-100720810D01*
X163535106Y-100752288D01*
X163518204Y-100775136D01*
X163513222Y-100796008D01*
X163517606Y-100818473D01*
X163530515Y-100836161D01*
X163551442Y-100847258D01*
X163587912Y-100851744D01*
X163672468Y-100851744D01*
X163709412Y-100847242D01*
X163730403Y-100836161D01*
X163743311Y-100818473D01*
X163747695Y-100796008D01*
X163744542Y-100776490D01*
X163735239Y-100759909D01*
X163722967Y-100750163D01*
X163698456Y-100741884D01*
X163673117Y-100734414D01*
X163658889Y-100726594D01*
X163640597Y-100707680D01*
X163624255Y-100679064D01*
X163613828Y-100645729D01*
X163610138Y-100605840D01*
X163613626Y-100566296D01*
X163623256Y-100534882D01*
X163638323Y-100509902D01*
X163658852Y-100489149D01*
X163678170Y-100478128D01*
X163697088Y-100474682D01*
X163717168Y-100478159D01*
X163737339Y-100489141D01*
X163754212Y-100506418D01*
X163767674Y-100531493D01*
X163775594Y-100558346D01*
X163792294Y-100636127D01*
X163811406Y-100716921D01*
X163829517Y-100768408D01*
X163845485Y-100797300D01*
X163866514Y-100822773D01*
X163893069Y-100845150D01*
X163923184Y-100861940D01*
X163957179Y-100872213D01*
X163995993Y-100875778D01*
X164036554Y-100871919D01*
X164071578Y-100860850D01*
X164102165Y-100842804D01*
X164129056Y-100817306D01*
X164157202Y-100776900D01*
X164177620Y-100731152D01*
X164190318Y-100679089D01*
X164194757Y-100619469D01*
X164191813Y-100573518D01*
X164183034Y-100529002D01*
X164168478Y-100485890D01*
X164147863Y-100443517D01*
X164170968Y-100419727D01*
X164176000Y-100397599D01*
X164172592Y-100379574D01*
X165022916Y-100379574D01*
X165022916Y-100843000D01*
X165114898Y-100843000D01*
X165407452Y-100546831D01*
X165407452Y-100743545D01*
X165370565Y-100749341D01*
X165349665Y-100760739D01*
X165336718Y-100778197D01*
X165332421Y-100799281D01*
X165336823Y-100822246D01*
X165349665Y-100839972D01*
X165370568Y-100851050D01*
X165407452Y-100855554D01*
X165520000Y-100855554D01*
X165520000Y-100635882D01*
X166354411Y-100635882D01*
X166359390Y-100691866D01*
X166373911Y-100742464D01*
X166397885Y-100788754D01*
X166431934Y-100831521D01*
X166473419Y-100867879D01*
X166516362Y-100892778D01*
X166561409Y-100907474D01*
X166609498Y-100912414D01*
X166652146Y-100908582D01*
X166691002Y-100897364D01*
X166726864Y-100878767D01*
X166760310Y-100852250D01*
X166791655Y-100816769D01*
X166817966Y-100775371D01*
X166836524Y-100731974D01*
X166847703Y-100686065D01*
X166851494Y-100637006D01*
X166848381Y-100594180D01*
X166838989Y-100551716D01*
X166823587Y-100510304D01*
X166801473Y-100468136D01*
X166985926Y-100468136D01*
X166985926Y-100535352D01*
X166990411Y-100572069D01*
X167001459Y-100592944D01*
X167019225Y-100605787D01*
X167042199Y-100610188D01*
X167065164Y-100605786D01*
X167082890Y-100592944D01*
X167093974Y-100572064D01*
X167098473Y-100535352D01*
X167098473Y-100336978D01*
X167093975Y-100300215D01*
X167082890Y-100279288D01*
X167065168Y-100266484D01*
X167042199Y-100262093D01*
X167019246Y-100266547D01*
X167001459Y-100279581D01*
X166990386Y-100300645D01*
X166985926Y-100336978D01*
X166985926Y-100356078D01*
X166479464Y-100356078D01*
X166479464Y-100336978D01*
X166474978Y-100300209D01*
X166463930Y-100279288D01*
X166446168Y-100266483D01*
X166423190Y-100262093D01*
X166400221Y-100266484D01*
X166382499Y-100279288D01*
X166371414Y-100300215D01*
X166366916Y-100336978D01*
X166366916Y-100468136D01*
X166404432Y-100468136D01*
X166382256Y-100508459D01*
X166366819Y-100549518D01*
X166357519Y-100592121D01*
X166354525Y-100634270D01*
X166354411Y-100635882D01*
X165520000Y-100635882D01*
X165520000Y-100368094D01*
X165426943Y-100368094D01*
X165135464Y-100663189D01*
X165135464Y-100491632D01*
X165147969Y-100491632D01*
X165184861Y-100487130D01*
X165205806Y-100476050D01*
X165218610Y-100458288D01*
X165223000Y-100435310D01*
X165218613Y-100412374D01*
X165205806Y-100394619D01*
X165184861Y-100383539D01*
X165147969Y-100379036D01*
X165022916Y-100379574D01*
X164172592Y-100379574D01*
X164171577Y-100374204D01*
X164158756Y-100356371D01*
X164137881Y-100345273D01*
X164101505Y-100340788D01*
X164025937Y-100340788D01*
X163989087Y-100345289D01*
X163968149Y-100356371D01*
X163955330Y-100374211D01*
X163950905Y-100397648D01*
X163953627Y-100416022D01*
X163961408Y-100430669D01*
X163974457Y-100441922D01*
X163996432Y-100451137D01*
X164018702Y-100459163D01*
X164029796Y-100465938D01*
X164045568Y-100485583D01*
X164064576Y-100522212D01*
X164077708Y-100564106D01*
X164082210Y-100610774D01*
X164077979Y-100659570D01*
X164066090Y-100700016D01*
X164047186Y-100733726D01*
X164031216Y-100751262D01*
X164013956Y-100761061D01*
X163994674Y-100764305D01*
X163974833Y-100760733D01*
X163955595Y-100749553D01*
X163939634Y-100731435D01*
X163925211Y-100701486D01*
X163917078Y-100672839D01*
X163902789Y-100603642D01*
X163882516Y-100517942D01*
X163861757Y-100464863D01*
X163843381Y-100435549D01*
X163820851Y-100410912D01*
X163793857Y-100390516D01*
X163763699Y-100375285D01*
X163732285Y-100366247D01*
X163699091Y-100363210D01*
X163660524Y-100367315D01*
X163624668Y-100379506D01*
X163590710Y-100400172D01*
X163558114Y-100430425D01*
X163532204Y-100465597D01*
X163513408Y-100505795D01*
X163501697Y-100551957D01*
X163497591Y-100605303D01*
X163350696Y-100605303D01*
X163350696Y-99712009D01*
X163513222Y-99712009D01*
X163513222Y-99954689D01*
X163517722Y-99991444D01*
X163528805Y-100012330D01*
X163546526Y-100025134D01*
X163569496Y-100029525D01*
X163592474Y-100025135D01*
X163610235Y-100012330D01*
X163621282Y-99991450D01*
X163625769Y-99954689D01*
X163625769Y-99889085D01*
X164063452Y-99889085D01*
X164063452Y-100130642D01*
X163957158Y-100130642D01*
X163920273Y-100135146D01*
X163899370Y-100146224D01*
X163886525Y-100163983D01*
X163882127Y-100186915D01*
X163886502Y-100209427D01*
X163899370Y-100227117D01*
X163920273Y-100238196D01*
X163957158Y-100242700D01*
X164176000Y-100242700D01*
X164176000Y-99712009D01*
X164173465Y-99691249D01*
X164857222Y-99691249D01*
X164857759Y-100194047D01*
X165029169Y-100194047D01*
X165066088Y-100189608D01*
X165087006Y-100178709D01*
X165099803Y-100161195D01*
X165104200Y-100138311D01*
X165099811Y-100115333D01*
X165087006Y-100097571D01*
X165066062Y-100086490D01*
X165029169Y-100081988D01*
X164969769Y-100081988D01*
X164969769Y-99820795D01*
X165132337Y-99820795D01*
X165132337Y-99919176D01*
X165095612Y-99921856D01*
X165080753Y-99927383D01*
X165067777Y-99940166D01*
X165060027Y-99955871D01*
X165057306Y-99975450D01*
X165061680Y-99997919D01*
X165074549Y-100015603D01*
X165095453Y-100026682D01*
X165132337Y-100031186D01*
X165244884Y-100031186D01*
X165281606Y-100028355D01*
X165296810Y-100022442D01*
X165309697Y-100009378D01*
X165317290Y-99993976D01*
X165319916Y-99975450D01*
X165317195Y-99955871D01*
X165309444Y-99940166D01*
X165296468Y-99927383D01*
X165281610Y-99921856D01*
X165244884Y-99919176D01*
X165244884Y-99820795D01*
X165407452Y-99820795D01*
X165407452Y-100106608D01*
X165348053Y-100106608D01*
X165311168Y-100111112D01*
X165290265Y-100122191D01*
X165277419Y-100139950D01*
X165273021Y-100162882D01*
X165277399Y-100185384D01*
X165290265Y-100203035D01*
X165311168Y-100214114D01*
X165348053Y-100218618D01*
X165520000Y-100218618D01*
X165520000Y-99755191D01*
X166201222Y-99755191D01*
X166201222Y-99936078D01*
X166201222Y-99997285D01*
X166751452Y-100220279D01*
X166754635Y-100255911D01*
X166761613Y-100272156D01*
X166784431Y-100291458D01*
X166807726Y-100297313D01*
X166830724Y-100292977D01*
X166848466Y-100280362D01*
X166859501Y-100259728D01*
X166864000Y-100223014D01*
X166864000Y-100072170D01*
X166859514Y-100035401D01*
X166848466Y-100014480D01*
X166830704Y-100001675D01*
X166807726Y-99997285D01*
X166784757Y-100001676D01*
X166767035Y-100014480D01*
X166755950Y-100035407D01*
X166751452Y-100072170D01*
X166751452Y-100099476D01*
X166679547Y-100072707D01*
X166679547Y-99800572D01*
X166751452Y-99773217D01*
X166751452Y-99800572D01*
X166755952Y-99837327D01*
X166767035Y-99858213D01*
X166784761Y-99871054D01*
X166807726Y-99875457D01*
X166830700Y-99871056D01*
X166848466Y-99858213D01*
X166859512Y-99837332D01*
X166864000Y-99800572D01*
X166864000Y-99649727D01*
X166859512Y-99612967D01*
X166848466Y-99592086D01*
X166830700Y-99579243D01*
X166807726Y-99574842D01*
X166784830Y-99579425D01*
X166767035Y-99592916D01*
X166755951Y-99614628D01*
X166751452Y-99652463D01*
X166313769Y-99828415D01*
X166313769Y-99755191D01*
X166309282Y-99718431D01*
X166298235Y-99697550D01*
X166280474Y-99684745D01*
X166257496Y-99680355D01*
X166234526Y-99684747D01*
X166216805Y-99697550D01*
X166205722Y-99718436D01*
X166201222Y-99755191D01*
X165520000Y-99755191D01*
X165520000Y-99691249D01*
X165515512Y-99654488D01*
X165504466Y-99633607D01*
X165486704Y-99620802D01*
X165463726Y-99616413D01*
X165440781Y-99620868D01*
X165423035Y-99633900D01*
X165411924Y-99654964D01*
X165407452Y-99691249D01*
X165407452Y-99708736D01*
X164969769Y-99708736D01*
X164969769Y-99691249D01*
X164965282Y-99654488D01*
X164954235Y-99633607D01*
X164936474Y-99620802D01*
X164913496Y-99616413D01*
X164890526Y-99620804D01*
X164872805Y-99633607D01*
X164861722Y-99654493D01*
X164857222Y-99691249D01*
X164173465Y-99691249D01*
X164171516Y-99675284D01*
X164160466Y-99654368D01*
X164142704Y-99641563D01*
X164119726Y-99637173D01*
X164096757Y-99641565D01*
X164079035Y-99654368D01*
X164067949Y-99675289D01*
X164063452Y-99712009D01*
X164063452Y-99777076D01*
X163625769Y-99777076D01*
X163625769Y-99712009D01*
X163621285Y-99675284D01*
X163610235Y-99654368D01*
X163592474Y-99641563D01*
X163569496Y-99637173D01*
X163546526Y-99641565D01*
X163528805Y-99654368D01*
X163517719Y-99675289D01*
X163513222Y-99712009D01*
X163350696Y-99712009D01*
X163350696Y-99474842D01*
X167198473Y-99474842D01*
X167198473Y-108348883D01*
G37*
G36*
X158414843Y-95746837D02*
G01*
X154327008Y-95746837D01*
X154327008Y-95318128D01*
X154493675Y-95318128D01*
X154503285Y-95360456D01*
X154536723Y-95411002D01*
X154607061Y-95474678D01*
X154697557Y-95524483D01*
X154787266Y-95555018D01*
X154884236Y-95573744D01*
X154989641Y-95580170D01*
X155112064Y-95571285D01*
X155223511Y-95545428D01*
X155325780Y-95503142D01*
X155400763Y-95455409D01*
X155469267Y-95391296D01*
X155524570Y-95318128D01*
X155752503Y-95318128D01*
X155762113Y-95360456D01*
X155795551Y-95411002D01*
X155865888Y-95474678D01*
X155956385Y-95524483D01*
X156046094Y-95555018D01*
X156143064Y-95573744D01*
X156248469Y-95580170D01*
X156370891Y-95571285D01*
X156482338Y-95545428D01*
X156584608Y-95503142D01*
X156659591Y-95455409D01*
X156728095Y-95391296D01*
X156790596Y-95308603D01*
X156837953Y-95216916D01*
X156866106Y-95120758D01*
X156875593Y-95018442D01*
X156875593Y-94875744D01*
X156867027Y-94768122D01*
X156841656Y-94666428D01*
X156799297Y-94569280D01*
X156741261Y-94480987D01*
X156671029Y-94408400D01*
X156670179Y-94407805D01*
X156892537Y-94407805D01*
X156903910Y-94451263D01*
X156941721Y-94493900D01*
X156972105Y-94507264D01*
X157037984Y-94513318D01*
X157469378Y-95545000D01*
X157671244Y-95545000D01*
X158101631Y-94513318D01*
X158168366Y-94507117D01*
X158198992Y-94493442D01*
X158227566Y-94465228D01*
X158243162Y-94437041D01*
X158248176Y-94407805D01*
X158239922Y-94364745D01*
X158215845Y-94331509D01*
X158176684Y-94310729D01*
X158107767Y-94302292D01*
X157823927Y-94302292D01*
X157755899Y-94310700D01*
X157716857Y-94331509D01*
X157692851Y-94364737D01*
X157684617Y-94407805D01*
X157692747Y-94450927D01*
X157716399Y-94484192D01*
X157755088Y-94504883D01*
X157823927Y-94513318D01*
X157873111Y-94513318D01*
X157570860Y-95238444D01*
X157266503Y-94513318D01*
X157314680Y-94513318D01*
X157383621Y-94504908D01*
X157422849Y-94484192D01*
X157446858Y-94450889D01*
X157455089Y-94407805D01*
X157446855Y-94364737D01*
X157422849Y-94331509D01*
X157383611Y-94310725D01*
X157314680Y-94302292D01*
X157032855Y-94302292D01*
X156964019Y-94310726D01*
X156924869Y-94331509D01*
X156900791Y-94364745D01*
X156892537Y-94407805D01*
X156670179Y-94407805D01*
X156587630Y-94350011D01*
X156494995Y-94306989D01*
X156399790Y-94281510D01*
X156300676Y-94272983D01*
X156211407Y-94278546D01*
X156130133Y-94294690D01*
X156053352Y-94322121D01*
X155982030Y-94360910D01*
X155960954Y-94334548D01*
X155939532Y-94316946D01*
X155915480Y-94305932D01*
X155889798Y-94302292D01*
X155847615Y-94310352D01*
X155814510Y-94333982D01*
X155793748Y-94372671D01*
X155785293Y-94441419D01*
X155785293Y-94619380D01*
X155793724Y-94688135D01*
X155814510Y-94727274D01*
X155847660Y-94751334D01*
X155889798Y-94759515D01*
X155928593Y-94753425D01*
X155957484Y-94736342D01*
X155978170Y-94706579D01*
X155995403Y-94649514D01*
X156006717Y-94610620D01*
X156024071Y-94583934D01*
X156072516Y-94544266D01*
X156141490Y-94511303D01*
X156217414Y-94490742D01*
X156292616Y-94484009D01*
X156383650Y-94494412D01*
X156465814Y-94525041D01*
X156514692Y-94556786D01*
X156561047Y-94600603D01*
X156605124Y-94658398D01*
X156638153Y-94722393D01*
X156658493Y-94794907D01*
X156665574Y-94877850D01*
X156665574Y-95014229D01*
X156658503Y-95087943D01*
X156637933Y-95153735D01*
X156603934Y-95213264D01*
X156555390Y-95267662D01*
X156497775Y-95310410D01*
X156429130Y-95341973D01*
X156347286Y-95362005D01*
X156249476Y-95369145D01*
X156137895Y-95360508D01*
X156051731Y-95337088D01*
X156005766Y-95311391D01*
X155951347Y-95263632D01*
X155900148Y-95220767D01*
X155858016Y-95210875D01*
X155818952Y-95218719D01*
X155784285Y-95242841D01*
X155760367Y-95277838D01*
X155752503Y-95318128D01*
X155524570Y-95318128D01*
X155531769Y-95308603D01*
X155579125Y-95216916D01*
X155607279Y-95120758D01*
X155616765Y-95018442D01*
X155616765Y-94875744D01*
X155608200Y-94768122D01*
X155582828Y-94666428D01*
X155540470Y-94569280D01*
X155482434Y-94480987D01*
X155412201Y-94408400D01*
X155328803Y-94350011D01*
X155236168Y-94306989D01*
X155140963Y-94281510D01*
X155041848Y-94272983D01*
X154952579Y-94278546D01*
X154871305Y-94294690D01*
X154794524Y-94322121D01*
X154723203Y-94360910D01*
X154702126Y-94334548D01*
X154680704Y-94316946D01*
X154656652Y-94305932D01*
X154630970Y-94302292D01*
X154588787Y-94310352D01*
X154555683Y-94333982D01*
X154534921Y-94372671D01*
X154526465Y-94441419D01*
X154526465Y-94619380D01*
X154534897Y-94688135D01*
X154555683Y-94727274D01*
X154588833Y-94751334D01*
X154630970Y-94759515D01*
X154669765Y-94753425D01*
X154698656Y-94736342D01*
X154719342Y-94706579D01*
X154736575Y-94649514D01*
X154747889Y-94610620D01*
X154765243Y-94583934D01*
X154813688Y-94544266D01*
X154882663Y-94511303D01*
X154958587Y-94490742D01*
X155033788Y-94484009D01*
X155124822Y-94494412D01*
X155206987Y-94525041D01*
X155255865Y-94556786D01*
X155302219Y-94600603D01*
X155346297Y-94658398D01*
X155379325Y-94722393D01*
X155399666Y-94794907D01*
X155406747Y-94877850D01*
X155406747Y-95014229D01*
X155399675Y-95087943D01*
X155379106Y-95153735D01*
X155345106Y-95213264D01*
X155296563Y-95267662D01*
X155238947Y-95310410D01*
X155170303Y-95341973D01*
X155088458Y-95362005D01*
X154990648Y-95369145D01*
X154879067Y-95360508D01*
X154792903Y-95337088D01*
X154746938Y-95311391D01*
X154692520Y-95263632D01*
X154641320Y-95220767D01*
X154599188Y-95210875D01*
X154560124Y-95218719D01*
X154525457Y-95242841D01*
X154501540Y-95277838D01*
X154493675Y-95318128D01*
X154327008Y-95318128D01*
X154327008Y-94106316D01*
X158414843Y-94106316D01*
X158414843Y-95746837D01*
G37*
G36*
X156571236Y-105633974D02*
G01*
X156347845Y-105633974D01*
X156264549Y-105629173D01*
X156203355Y-105616542D01*
X156159351Y-105598162D01*
X156107425Y-105563041D01*
X156066164Y-105523224D01*
X156034329Y-105478452D01*
X156011969Y-105428287D01*
X155997518Y-105366384D01*
X155992288Y-105290141D01*
X155992288Y-105190856D01*
X156002172Y-105095946D01*
X156030207Y-105016925D01*
X156074785Y-104942649D01*
X156119310Y-104890813D01*
X156163930Y-104856823D01*
X156215205Y-104833466D01*
X156276480Y-104818617D01*
X156349860Y-104813318D01*
X156571236Y-104813318D01*
X156571236Y-105633974D01*
G37*
G36*
X158236516Y-106046837D02*
G01*
X154272786Y-106046837D01*
X154272786Y-105739487D01*
X154439453Y-105739487D01*
X154447684Y-105782570D01*
X154471693Y-105815874D01*
X154510845Y-105836586D01*
X154579771Y-105845000D01*
X154816534Y-105845000D01*
X154884505Y-105836621D01*
X154923604Y-105815874D01*
X154947613Y-105782570D01*
X154955844Y-105739487D01*
X154948180Y-105696205D01*
X154926168Y-105663191D01*
X154891058Y-105641979D01*
X154836959Y-105633974D01*
X155050183Y-105377152D01*
X155261209Y-105633974D01*
X155208005Y-105641947D01*
X155173098Y-105663191D01*
X155151015Y-105696213D01*
X155143331Y-105739487D01*
X155151582Y-105782563D01*
X155175662Y-105815874D01*
X155214814Y-105836586D01*
X155283740Y-105845000D01*
X155519404Y-105845000D01*
X155588345Y-105836589D01*
X155627573Y-105815874D01*
X155651582Y-105782570D01*
X155659813Y-105739487D01*
X155651680Y-105696381D01*
X155628031Y-105663191D01*
X155590985Y-105641974D01*
X155534791Y-105633974D01*
X155187203Y-105212197D01*
X155200207Y-105196535D01*
X155782270Y-105196535D01*
X155782270Y-105290141D01*
X155782270Y-105296919D01*
X155787591Y-105384788D01*
X155802876Y-105463053D01*
X155827424Y-105533040D01*
X155880544Y-105627952D01*
X155945760Y-105701110D01*
X156019643Y-105759524D01*
X156083513Y-105796823D01*
X156153551Y-105822250D01*
X156240832Y-105838923D01*
X156348944Y-105845000D01*
X156771087Y-105845000D01*
X156840028Y-105836589D01*
X156879256Y-105815874D01*
X156903265Y-105782570D01*
X156911496Y-105739487D01*
X156903262Y-105696419D01*
X156879256Y-105663191D01*
X156841242Y-105642091D01*
X156781345Y-105633974D01*
X156781345Y-105507486D01*
X157066743Y-105507486D01*
X157073979Y-105583540D01*
X157094733Y-105649209D01*
X157128568Y-105706560D01*
X157176378Y-105756980D01*
X157252140Y-105809754D01*
X157337916Y-105848039D01*
X157435535Y-105871847D01*
X157547322Y-105880170D01*
X157633480Y-105874649D01*
X157716948Y-105858189D01*
X157797782Y-105830897D01*
X157877233Y-105792243D01*
X157921837Y-105835566D01*
X157963328Y-105845000D01*
X158007193Y-105836707D01*
X158040631Y-105812668D01*
X158061439Y-105773527D01*
X158069849Y-105705323D01*
X158069849Y-105563632D01*
X158061410Y-105494539D01*
X158040631Y-105455280D01*
X158007180Y-105431244D01*
X157963237Y-105422948D01*
X157928785Y-105428052D01*
X157901321Y-105442640D01*
X157880222Y-105467108D01*
X157862944Y-105508311D01*
X157847896Y-105550066D01*
X157835192Y-105570867D01*
X157798359Y-105600441D01*
X157729679Y-105636080D01*
X157651127Y-105660702D01*
X157563625Y-105669145D01*
X157472132Y-105661210D01*
X157396296Y-105638920D01*
X157333090Y-105603474D01*
X157300210Y-105573530D01*
X157281837Y-105541168D01*
X157275754Y-105505013D01*
X157282452Y-105467813D01*
X157303415Y-105431741D01*
X157337386Y-105401814D01*
X157393540Y-105374771D01*
X157447252Y-105359521D01*
X157576997Y-105332731D01*
X157737684Y-105294718D01*
X157837207Y-105255794D01*
X157892172Y-105221341D01*
X157938366Y-105179097D01*
X157976609Y-105128483D01*
X158005166Y-105071937D01*
X158022112Y-105013034D01*
X158027808Y-104950796D01*
X158020111Y-104878484D01*
X157997252Y-104811253D01*
X157958504Y-104747582D01*
X157901779Y-104686464D01*
X157835831Y-104637883D01*
X157760461Y-104602641D01*
X157673906Y-104580683D01*
X157573883Y-104572983D01*
X157494679Y-104577473D01*
X157423765Y-104590385D01*
X157357308Y-104612492D01*
X157298285Y-104643325D01*
X157255446Y-104611633D01*
X157216311Y-104602292D01*
X157174189Y-104610513D01*
X157141024Y-104634715D01*
X157120217Y-104673955D01*
X157111806Y-104742335D01*
X157111806Y-104900879D01*
X157120247Y-104970148D01*
X157141024Y-105009506D01*
X157174189Y-105033708D01*
X157216311Y-105041929D01*
X157252907Y-105036017D01*
X157283997Y-105018573D01*
X157302270Y-104995563D01*
X157317794Y-104949605D01*
X157331800Y-104902095D01*
X157346462Y-104875416D01*
X157381926Y-104841119D01*
X157435580Y-104810478D01*
X157498084Y-104790927D01*
X157572875Y-104784009D01*
X157647022Y-104790550D01*
X157705922Y-104808606D01*
X157752760Y-104836857D01*
X157791672Y-104875348D01*
X157812335Y-104911569D01*
X157818797Y-104947041D01*
X157812278Y-104984690D01*
X157791687Y-105022512D01*
X157759292Y-105054148D01*
X157712277Y-105079390D01*
X157661927Y-105094239D01*
X157516089Y-105125552D01*
X157364599Y-105161386D01*
X157268060Y-105195344D01*
X157213888Y-105225284D01*
X157166127Y-105264715D01*
X157124171Y-105314504D01*
X157092689Y-105370971D01*
X157073427Y-105434711D01*
X157066743Y-105507486D01*
X156781345Y-105507486D01*
X156781345Y-104813318D01*
X156842048Y-104805169D01*
X156879714Y-104784192D01*
X156903366Y-104750927D01*
X156911496Y-104707805D01*
X156903262Y-104664737D01*
X156879256Y-104631509D01*
X156840018Y-104610725D01*
X156771087Y-104602292D01*
X156331542Y-104603299D01*
X156230502Y-104612726D01*
X156131232Y-104641218D01*
X156040626Y-104685667D01*
X155973879Y-104737480D01*
X155930194Y-104786819D01*
X155880181Y-104858381D01*
X155836894Y-104936239D01*
X155806908Y-105011063D01*
X155788957Y-105091479D01*
X155782631Y-105190856D01*
X155782270Y-105196535D01*
X155200207Y-105196535D01*
X155518396Y-104813318D01*
X155574344Y-104805281D01*
X155610079Y-104784192D01*
X155632520Y-104751057D01*
X155640304Y-104707805D01*
X155632070Y-104664737D01*
X155608064Y-104631509D01*
X155568837Y-104610723D01*
X155499986Y-104602292D01*
X155306271Y-104602292D01*
X155237355Y-104610729D01*
X155198194Y-104631509D01*
X155174116Y-104664745D01*
X155165862Y-104707805D01*
X155171151Y-104752892D01*
X155186379Y-104791244D01*
X155205566Y-104806867D01*
X155245821Y-104813318D01*
X155051465Y-105047424D01*
X154858483Y-104813318D01*
X154898800Y-104806860D01*
X154917925Y-104791244D01*
X154933153Y-104752892D01*
X154938442Y-104707805D01*
X154930208Y-104664737D01*
X154906202Y-104631509D01*
X154866963Y-104610725D01*
X154798032Y-104602292D01*
X154605416Y-104602292D01*
X154536500Y-104610729D01*
X154497339Y-104631509D01*
X154473261Y-104664745D01*
X154465007Y-104707805D01*
X154473036Y-104750965D01*
X154496331Y-104784192D01*
X154532657Y-104805389D01*
X154587007Y-104813318D01*
X154914628Y-105212105D01*
X154564384Y-105633974D01*
X154507397Y-105642029D01*
X154470686Y-105663191D01*
X154447465Y-105696335D01*
X154439453Y-105739487D01*
X154272786Y-105739487D01*
X154272786Y-104406316D01*
X158236516Y-104406316D01*
X158236516Y-106046837D01*
G37*
G36*
X158236516Y-100946837D02*
G01*
X154310614Y-100946837D01*
X154310614Y-100334672D01*
X154477281Y-100334672D01*
X154477281Y-100745000D01*
X155472326Y-100745000D01*
X155541186Y-100736592D01*
X155580403Y-100715874D01*
X155604413Y-100682570D01*
X155612643Y-100639487D01*
X155604409Y-100596419D01*
X155580403Y-100563191D01*
X155541176Y-100542405D01*
X155472326Y-100533974D01*
X155350327Y-100533974D01*
X155350327Y-100518128D01*
X155752503Y-100518128D01*
X155762113Y-100560456D01*
X155795551Y-100611002D01*
X155865888Y-100674678D01*
X155956385Y-100724483D01*
X156046094Y-100755018D01*
X156143064Y-100773744D01*
X156248469Y-100780170D01*
X156370891Y-100771285D01*
X156482338Y-100745428D01*
X156584608Y-100703142D01*
X156659591Y-100655409D01*
X156728095Y-100591296D01*
X156790596Y-100508603D01*
X156837953Y-100416916D01*
X156840714Y-100407486D01*
X157066743Y-100407486D01*
X157073979Y-100483540D01*
X157094733Y-100549209D01*
X157128568Y-100606560D01*
X157176378Y-100656980D01*
X157252140Y-100709754D01*
X157337916Y-100748039D01*
X157435535Y-100771847D01*
X157547322Y-100780170D01*
X157633480Y-100774649D01*
X157716948Y-100758189D01*
X157797782Y-100730897D01*
X157877233Y-100692243D01*
X157921837Y-100735566D01*
X157963328Y-100745000D01*
X158007193Y-100736707D01*
X158040631Y-100712668D01*
X158061439Y-100673527D01*
X158069849Y-100605323D01*
X158069849Y-100463632D01*
X158061410Y-100394539D01*
X158040631Y-100355280D01*
X158007180Y-100331244D01*
X157963237Y-100322948D01*
X157928785Y-100328052D01*
X157901321Y-100342640D01*
X157880222Y-100367108D01*
X157862944Y-100408311D01*
X157847896Y-100450066D01*
X157835192Y-100470867D01*
X157798359Y-100500441D01*
X157729679Y-100536080D01*
X157651127Y-100560702D01*
X157563625Y-100569145D01*
X157472132Y-100561210D01*
X157396296Y-100538920D01*
X157333090Y-100503474D01*
X157300210Y-100473530D01*
X157281837Y-100441168D01*
X157275754Y-100405013D01*
X157282452Y-100367813D01*
X157303415Y-100331741D01*
X157337386Y-100301814D01*
X157393540Y-100274771D01*
X157447252Y-100259521D01*
X157576997Y-100232731D01*
X157737684Y-100194718D01*
X157837207Y-100155794D01*
X157892172Y-100121341D01*
X157938366Y-100079097D01*
X157976609Y-100028483D01*
X158005166Y-99971937D01*
X158022112Y-99913034D01*
X158027808Y-99850796D01*
X158020111Y-99778484D01*
X157997252Y-99711253D01*
X157958504Y-99647582D01*
X157901779Y-99586464D01*
X157835831Y-99537883D01*
X157760461Y-99502641D01*
X157673906Y-99480683D01*
X157573883Y-99472983D01*
X157494679Y-99477473D01*
X157423765Y-99490385D01*
X157357308Y-99512492D01*
X157298285Y-99543325D01*
X157255446Y-99511633D01*
X157216311Y-99502292D01*
X157174189Y-99510513D01*
X157141024Y-99534715D01*
X157120217Y-99573955D01*
X157111806Y-99642335D01*
X157111806Y-99800879D01*
X157120247Y-99870148D01*
X157141024Y-99909506D01*
X157174189Y-99933708D01*
X157216311Y-99941929D01*
X157252907Y-99936017D01*
X157283997Y-99918573D01*
X157302270Y-99895563D01*
X157317794Y-99849605D01*
X157331800Y-99802095D01*
X157346462Y-99775416D01*
X157381926Y-99741119D01*
X157435580Y-99710478D01*
X157498084Y-99690927D01*
X157572875Y-99684009D01*
X157647022Y-99690550D01*
X157705922Y-99708606D01*
X157752760Y-99736857D01*
X157791672Y-99775348D01*
X157812335Y-99811569D01*
X157818797Y-99847041D01*
X157812278Y-99884690D01*
X157791687Y-99922512D01*
X157759292Y-99954148D01*
X157712277Y-99979390D01*
X157661927Y-99994239D01*
X157516089Y-100025552D01*
X157364599Y-100061386D01*
X157268060Y-100095344D01*
X157213888Y-100125284D01*
X157166127Y-100164715D01*
X157124171Y-100214504D01*
X157092689Y-100270971D01*
X157073427Y-100334711D01*
X157066743Y-100407486D01*
X156840714Y-100407486D01*
X156866106Y-100320758D01*
X156875593Y-100218442D01*
X156875593Y-100075744D01*
X156867027Y-99968122D01*
X156841656Y-99866428D01*
X156799297Y-99769280D01*
X156741261Y-99680987D01*
X156671029Y-99608400D01*
X156587630Y-99550011D01*
X156494995Y-99506989D01*
X156399790Y-99481510D01*
X156300676Y-99472983D01*
X156211407Y-99478546D01*
X156130133Y-99494690D01*
X156053352Y-99522121D01*
X155982030Y-99560910D01*
X155960954Y-99534548D01*
X155939532Y-99516946D01*
X155915480Y-99505932D01*
X155889798Y-99502292D01*
X155847615Y-99510352D01*
X155814510Y-99533982D01*
X155793748Y-99572671D01*
X155785293Y-99641419D01*
X155785293Y-99819380D01*
X155793724Y-99888135D01*
X155814510Y-99927274D01*
X155847660Y-99951334D01*
X155889798Y-99959515D01*
X155928593Y-99953425D01*
X155957484Y-99936342D01*
X155978170Y-99906579D01*
X155995403Y-99849514D01*
X156006717Y-99810620D01*
X156024071Y-99783934D01*
X156072516Y-99744266D01*
X156141490Y-99711303D01*
X156217414Y-99690742D01*
X156292616Y-99684009D01*
X156383650Y-99694412D01*
X156465814Y-99725041D01*
X156514692Y-99756786D01*
X156561047Y-99800603D01*
X156605124Y-99858398D01*
X156638153Y-99922393D01*
X156658493Y-99994907D01*
X156665574Y-100077850D01*
X156665574Y-100214229D01*
X156658503Y-100287943D01*
X156637933Y-100353735D01*
X156603934Y-100413264D01*
X156555390Y-100467662D01*
X156497775Y-100510410D01*
X156429130Y-100541973D01*
X156347286Y-100562005D01*
X156249476Y-100569145D01*
X156137895Y-100560508D01*
X156051731Y-100537088D01*
X156005766Y-100511391D01*
X155951347Y-100463632D01*
X155900148Y-100420767D01*
X155858016Y-100410875D01*
X155818952Y-100418719D01*
X155784285Y-100442841D01*
X155760367Y-100477838D01*
X155752503Y-100518128D01*
X155350327Y-100518128D01*
X155350327Y-99713318D01*
X155472326Y-99713318D01*
X155541186Y-99704910D01*
X155580403Y-99684192D01*
X155604413Y-99650889D01*
X155612643Y-99607805D01*
X155604409Y-99564737D01*
X155580403Y-99531509D01*
X155541176Y-99510723D01*
X155472326Y-99502292D01*
X155017301Y-99502292D01*
X154948385Y-99510729D01*
X154909224Y-99531509D01*
X154885218Y-99564737D01*
X154876984Y-99607805D01*
X154885215Y-99650889D01*
X154909224Y-99684192D01*
X154948375Y-99704904D01*
X155017301Y-99713318D01*
X155140308Y-99713318D01*
X155140308Y-100533974D01*
X154687390Y-100533974D01*
X154687390Y-100334672D01*
X154678945Y-100265513D01*
X154658173Y-100226319D01*
X154624875Y-100202234D01*
X154581878Y-100193988D01*
X154539669Y-100202193D01*
X154506498Y-100226319D01*
X154485726Y-100265513D01*
X154477281Y-100334672D01*
X154310614Y-100334672D01*
X154310614Y-99306316D01*
X158236516Y-99306316D01*
X158236516Y-100946837D01*
G37*
G36*
X159294475Y-113711667D02*
G01*
X154267649Y-113711667D01*
X154267649Y-113439487D01*
X154434316Y-113439487D01*
X154442547Y-113482570D01*
X154466556Y-113515874D01*
X154505707Y-113536586D01*
X154574633Y-113545000D01*
X155208901Y-113545000D01*
X155277842Y-113536589D01*
X155317070Y-113515874D01*
X155341079Y-113482570D01*
X155349310Y-113439487D01*
X155341076Y-113396419D01*
X155317070Y-113363191D01*
X155277832Y-113342407D01*
X155208901Y-113333974D01*
X154996868Y-113333974D01*
X154996868Y-112712620D01*
X155610070Y-112712620D01*
X155618512Y-112781793D01*
X155639288Y-112821064D01*
X155672591Y-112845073D01*
X155715675Y-112853304D01*
X155757812Y-112845123D01*
X155790963Y-112821064D01*
X155811739Y-112781793D01*
X155820180Y-112712620D01*
X155820180Y-112513318D01*
X156050715Y-112513318D01*
X156050715Y-113333974D01*
X155909298Y-113333974D01*
X155840382Y-113342411D01*
X155801221Y-113363191D01*
X155777215Y-113396419D01*
X155768981Y-113439487D01*
X155777212Y-113482570D01*
X155801221Y-113515874D01*
X155840372Y-113536586D01*
X155909298Y-113545000D01*
X156401142Y-113545000D01*
X156470083Y-113536589D01*
X156509311Y-113515874D01*
X156533320Y-113482570D01*
X156541551Y-113439487D01*
X156533317Y-113396419D01*
X156509311Y-113363191D01*
X156470073Y-113342407D01*
X156401142Y-113333974D01*
X156260825Y-113333974D01*
X156260825Y-112513318D01*
X156488245Y-112513318D01*
X156488245Y-112712620D01*
X156496687Y-112781793D01*
X156517463Y-112821064D01*
X156550753Y-112845077D01*
X156593758Y-112853304D01*
X156635975Y-112845119D01*
X156669138Y-112821064D01*
X156689914Y-112781793D01*
X156698355Y-112712620D01*
X156698355Y-112407805D01*
X156797182Y-112407805D01*
X156805312Y-112450927D01*
X156828964Y-112484192D01*
X156866508Y-112505202D01*
X156926325Y-112513318D01*
X156926325Y-113545000D01*
X157134329Y-113545000D01*
X157674350Y-112699064D01*
X157674350Y-113333974D01*
X157598512Y-113333974D01*
X157529596Y-113342411D01*
X157490435Y-113363191D01*
X157466357Y-113396427D01*
X157458103Y-113439487D01*
X157466354Y-113482563D01*
X157490435Y-113515874D01*
X157529586Y-113536586D01*
X157598512Y-113545000D01*
X157874110Y-113545000D01*
X157943051Y-113536589D01*
X157982279Y-113515874D01*
X158006288Y-113482570D01*
X158014519Y-113439487D01*
X158006386Y-113396381D01*
X157982737Y-113363191D01*
X157945062Y-113342145D01*
X157884368Y-113333974D01*
X157884368Y-112513318D01*
X157917158Y-112513318D01*
X157986098Y-112504908D01*
X158025327Y-112484192D01*
X158049336Y-112450889D01*
X158057567Y-112407805D01*
X158212814Y-112407805D01*
X158221065Y-112450881D01*
X158245145Y-112484192D01*
X158284296Y-112504904D01*
X158353223Y-112513318D01*
X158565348Y-112513318D01*
X158565348Y-113333974D01*
X158353223Y-113333974D01*
X158284306Y-113342411D01*
X158245145Y-113363191D01*
X158221068Y-113396427D01*
X158212814Y-113439487D01*
X158221065Y-113482563D01*
X158245145Y-113515874D01*
X158284296Y-113536586D01*
X158353223Y-113545000D01*
X158987491Y-113545000D01*
X159056417Y-113536586D01*
X159095568Y-113515874D01*
X159119577Y-113482570D01*
X159127808Y-113439487D01*
X159119574Y-113396419D01*
X159095568Y-113363191D01*
X159056407Y-113342411D01*
X158987491Y-113333974D01*
X158775366Y-113333974D01*
X158775366Y-112513318D01*
X158987491Y-112513318D01*
X159056417Y-112504904D01*
X159095568Y-112484192D01*
X159119577Y-112450889D01*
X159127808Y-112407805D01*
X159119574Y-112364737D01*
X159095568Y-112331509D01*
X159056407Y-112310729D01*
X158987491Y-112302292D01*
X158353223Y-112302292D01*
X158284306Y-112310729D01*
X158245145Y-112331509D01*
X158221068Y-112364745D01*
X158212814Y-112407805D01*
X158057567Y-112407805D01*
X158049333Y-112364737D01*
X158025327Y-112331509D01*
X157986088Y-112310725D01*
X157917158Y-112302292D01*
X157674350Y-112302292D01*
X157137443Y-113145113D01*
X157137443Y-112513318D01*
X157213189Y-112513318D01*
X157282129Y-112504908D01*
X157321358Y-112484192D01*
X157345367Y-112450889D01*
X157353598Y-112407805D01*
X157345364Y-112364737D01*
X157321358Y-112331509D01*
X157282120Y-112310725D01*
X157213189Y-112302292D01*
X156937591Y-112302292D01*
X156868675Y-112310729D01*
X156829514Y-112331509D01*
X156805436Y-112364745D01*
X156797182Y-112407805D01*
X156698355Y-112407805D01*
X156698355Y-112302292D01*
X155610070Y-112302292D01*
X155610070Y-112712620D01*
X154996868Y-112712620D01*
X154996868Y-112462668D01*
X155184355Y-112512585D01*
X155251949Y-112525041D01*
X155288816Y-112517161D01*
X155321100Y-112492801D01*
X155342877Y-112457289D01*
X155350318Y-112413758D01*
X155344555Y-112374539D01*
X155328794Y-112346714D01*
X155300070Y-112325965D01*
X155238668Y-112303574D01*
X154786758Y-112185055D01*
X154786758Y-113333974D01*
X154574633Y-113333974D01*
X154505717Y-113342411D01*
X154466556Y-113363191D01*
X154442550Y-113396419D01*
X154434316Y-113439487D01*
X154267649Y-113439487D01*
X154267649Y-112018388D01*
X159294475Y-112018388D01*
X159294475Y-113711667D01*
G37*
G36*
X155312408Y-97833974D02*
G01*
X155089017Y-97833974D01*
X155005722Y-97829173D01*
X154944527Y-97816542D01*
X154900523Y-97798162D01*
X154848597Y-97763041D01*
X154807336Y-97723224D01*
X154775501Y-97678452D01*
X154753142Y-97628287D01*
X154738690Y-97566384D01*
X154733461Y-97490141D01*
X154733461Y-97390856D01*
X154743344Y-97295946D01*
X154771379Y-97216925D01*
X154815957Y-97142649D01*
X154860483Y-97090813D01*
X154905102Y-97056823D01*
X154956378Y-97033466D01*
X155017652Y-97018617D01*
X155091032Y-97013318D01*
X155312408Y-97013318D01*
X155312408Y-97833974D01*
G37*
G36*
X158300080Y-98246837D02*
G01*
X154356775Y-98246837D01*
X154356775Y-97396535D01*
X154523442Y-97396535D01*
X154523442Y-97490141D01*
X154523442Y-97496919D01*
X154528763Y-97584788D01*
X154544049Y-97663053D01*
X154568597Y-97733040D01*
X154621716Y-97827952D01*
X154686933Y-97901110D01*
X154760816Y-97959524D01*
X154824685Y-97996823D01*
X154894724Y-98022250D01*
X154982004Y-98038923D01*
X155090116Y-98045000D01*
X155512260Y-98045000D01*
X155581200Y-98036589D01*
X155620429Y-98015874D01*
X155644438Y-97982570D01*
X155652669Y-97939487D01*
X155644435Y-97896419D01*
X155620429Y-97863191D01*
X155582415Y-97842091D01*
X155522518Y-97833974D01*
X155522518Y-97013318D01*
X155583221Y-97005169D01*
X155620887Y-96984192D01*
X155644539Y-96950927D01*
X155652669Y-96907805D01*
X155697182Y-96907805D01*
X155705312Y-96950927D01*
X155728964Y-96984192D01*
X155766508Y-97005202D01*
X155826325Y-97013318D01*
X155826325Y-98045000D01*
X156034329Y-98045000D01*
X156574350Y-97199064D01*
X156574350Y-97833974D01*
X156498512Y-97833974D01*
X156429596Y-97842411D01*
X156390435Y-97863191D01*
X156366357Y-97896427D01*
X156358103Y-97939487D01*
X156366354Y-97982563D01*
X156390435Y-98015874D01*
X156429586Y-98036586D01*
X156498512Y-98045000D01*
X156774110Y-98045000D01*
X156843051Y-98036589D01*
X156882279Y-98015874D01*
X156906288Y-97982570D01*
X156914519Y-97939487D01*
X156906386Y-97896381D01*
X156882737Y-97863191D01*
X156845062Y-97842145D01*
X156784368Y-97833974D01*
X156784368Y-97558468D01*
X156951980Y-97558468D01*
X156957863Y-97602389D01*
X156974053Y-97634855D01*
X157000861Y-97656281D01*
X157041098Y-97663981D01*
X157041098Y-97946539D01*
X157179910Y-98014454D01*
X157283448Y-98051869D01*
X157385891Y-98072904D01*
X157499145Y-98080170D01*
X157605523Y-98074619D01*
X157704606Y-98058389D01*
X157797274Y-98031902D01*
X157896838Y-97988183D01*
X157966900Y-97938479D01*
X158023647Y-97872599D01*
X158081206Y-97771600D01*
X158109823Y-97696430D01*
X158127375Y-97614521D01*
X158133413Y-97524671D01*
X158133413Y-97372629D01*
X158125283Y-97269425D01*
X158101349Y-97173288D01*
X158061650Y-97082798D01*
X158005368Y-96996831D01*
X157930970Y-96915732D01*
X157848362Y-96853916D01*
X157756462Y-96809653D01*
X157653484Y-96782428D01*
X157537063Y-96772983D01*
X157452340Y-96777468D01*
X157373665Y-96790568D01*
X157298049Y-96812602D01*
X157226570Y-96843325D01*
X157182956Y-96811525D01*
X157144596Y-96802292D01*
X157102555Y-96810491D01*
X157069857Y-96834532D01*
X157049448Y-96873772D01*
X157041098Y-96943709D01*
X157041098Y-97081919D01*
X157049545Y-97151893D01*
X157070315Y-97191646D01*
X157103503Y-97216063D01*
X157145603Y-97224344D01*
X157180155Y-97218568D01*
X157209167Y-97201537D01*
X157226233Y-97180031D01*
X157243514Y-97132752D01*
X157259840Y-97084445D01*
X157274747Y-97060670D01*
X157309239Y-97034447D01*
X157372657Y-97007364D01*
X157445426Y-96990088D01*
X157529828Y-96984009D01*
X157611863Y-96990063D01*
X157683727Y-97007398D01*
X157747082Y-97035300D01*
X157787115Y-97064560D01*
X157827345Y-97107641D01*
X157867982Y-97167649D01*
X157898728Y-97232396D01*
X157917100Y-97300399D01*
X157923303Y-97372721D01*
X157923303Y-97524487D01*
X157916418Y-97608560D01*
X157897183Y-97677649D01*
X157866860Y-97734596D01*
X157825484Y-97781492D01*
X157774808Y-97816926D01*
X157708699Y-97844307D01*
X157623422Y-97862453D01*
X157514440Y-97869145D01*
X157419346Y-97862910D01*
X157331957Y-97844730D01*
X157251116Y-97815014D01*
X157251116Y-97663981D01*
X157465348Y-97663981D01*
X157534207Y-97655573D01*
X157573425Y-97634855D01*
X157597434Y-97601551D01*
X157605665Y-97558468D01*
X157597431Y-97515400D01*
X157573425Y-97482172D01*
X157534198Y-97461386D01*
X157465348Y-97452955D01*
X157092297Y-97452955D01*
X157023381Y-97461392D01*
X156984220Y-97482172D01*
X156960214Y-97515400D01*
X156951980Y-97558468D01*
X156784368Y-97558468D01*
X156784368Y-97013318D01*
X156817158Y-97013318D01*
X156886098Y-97004908D01*
X156925327Y-96984192D01*
X156949336Y-96950889D01*
X156957567Y-96907805D01*
X156949333Y-96864737D01*
X156925327Y-96831509D01*
X156886088Y-96810725D01*
X156817158Y-96802292D01*
X156574350Y-96802292D01*
X156037443Y-97645113D01*
X156037443Y-97013318D01*
X156113189Y-97013318D01*
X156182129Y-97004908D01*
X156221358Y-96984192D01*
X156245367Y-96950889D01*
X156253598Y-96907805D01*
X156245364Y-96864737D01*
X156221358Y-96831509D01*
X156182120Y-96810725D01*
X156113189Y-96802292D01*
X155837591Y-96802292D01*
X155768675Y-96810729D01*
X155729514Y-96831509D01*
X155705436Y-96864745D01*
X155697182Y-96907805D01*
X155652669Y-96907805D01*
X155644435Y-96864737D01*
X155620429Y-96831509D01*
X155581191Y-96810725D01*
X155512260Y-96802292D01*
X155072714Y-96803299D01*
X154971674Y-96812726D01*
X154872404Y-96841218D01*
X154781798Y-96885667D01*
X154715051Y-96937480D01*
X154671366Y-96986819D01*
X154621353Y-97058381D01*
X154578066Y-97136239D01*
X154548080Y-97211063D01*
X154530129Y-97291479D01*
X154523803Y-97390856D01*
X154523442Y-97396535D01*
X154356775Y-97396535D01*
X154356775Y-96606316D01*
X158300080Y-96606316D01*
X158300080Y-98246837D01*
G37*
G36*
X158236516Y-108546837D02*
G01*
X154272786Y-108546837D01*
X154272786Y-108239487D01*
X154439453Y-108239487D01*
X154447684Y-108282570D01*
X154471693Y-108315874D01*
X154510845Y-108336586D01*
X154579771Y-108345000D01*
X154816534Y-108345000D01*
X154884505Y-108336621D01*
X154923604Y-108315874D01*
X154947613Y-108282570D01*
X154955844Y-108239487D01*
X154948180Y-108196205D01*
X154926168Y-108163191D01*
X154891058Y-108141979D01*
X154836959Y-108133974D01*
X155050183Y-107877152D01*
X155261209Y-108133974D01*
X155208005Y-108141947D01*
X155173098Y-108163191D01*
X155151015Y-108196213D01*
X155143331Y-108239487D01*
X155151582Y-108282563D01*
X155175662Y-108315874D01*
X155214814Y-108336586D01*
X155283740Y-108345000D01*
X155519404Y-108345000D01*
X155588345Y-108336589D01*
X155627573Y-108315874D01*
X155651582Y-108282570D01*
X155659813Y-108239487D01*
X155651680Y-108196381D01*
X155628031Y-108163191D01*
X155590985Y-108141974D01*
X155534791Y-108133974D01*
X155521732Y-108118128D01*
X155752503Y-108118128D01*
X155762113Y-108160456D01*
X155795551Y-108211002D01*
X155865888Y-108274678D01*
X155956385Y-108324483D01*
X156046094Y-108355018D01*
X156143064Y-108373744D01*
X156248469Y-108380170D01*
X156370891Y-108371285D01*
X156482338Y-108345428D01*
X156584608Y-108303142D01*
X156659591Y-108255409D01*
X156728095Y-108191296D01*
X156790596Y-108108603D01*
X156837953Y-108016916D01*
X156840714Y-108007486D01*
X157066743Y-108007486D01*
X157073979Y-108083540D01*
X157094733Y-108149209D01*
X157128568Y-108206560D01*
X157176378Y-108256980D01*
X157252140Y-108309754D01*
X157337916Y-108348039D01*
X157435535Y-108371847D01*
X157547322Y-108380170D01*
X157633480Y-108374649D01*
X157716948Y-108358189D01*
X157797782Y-108330897D01*
X157877233Y-108292243D01*
X157921837Y-108335566D01*
X157963328Y-108345000D01*
X158007193Y-108336707D01*
X158040631Y-108312668D01*
X158061439Y-108273527D01*
X158069849Y-108205323D01*
X158069849Y-108063632D01*
X158061410Y-107994539D01*
X158040631Y-107955280D01*
X158007180Y-107931244D01*
X157963237Y-107922948D01*
X157928785Y-107928052D01*
X157901321Y-107942640D01*
X157880222Y-107967108D01*
X157862944Y-108008311D01*
X157847896Y-108050066D01*
X157835192Y-108070867D01*
X157798359Y-108100441D01*
X157729679Y-108136080D01*
X157651127Y-108160702D01*
X157563625Y-108169145D01*
X157472132Y-108161210D01*
X157396296Y-108138920D01*
X157333090Y-108103474D01*
X157300210Y-108073530D01*
X157281837Y-108041168D01*
X157275754Y-108005013D01*
X157282452Y-107967813D01*
X157303415Y-107931741D01*
X157337386Y-107901814D01*
X157393540Y-107874771D01*
X157447252Y-107859521D01*
X157576997Y-107832731D01*
X157737684Y-107794718D01*
X157837207Y-107755794D01*
X157892172Y-107721341D01*
X157938366Y-107679097D01*
X157976609Y-107628483D01*
X158005166Y-107571937D01*
X158022112Y-107513034D01*
X158027808Y-107450796D01*
X158020111Y-107378484D01*
X157997252Y-107311253D01*
X157958504Y-107247582D01*
X157901779Y-107186464D01*
X157835831Y-107137883D01*
X157760461Y-107102641D01*
X157673906Y-107080683D01*
X157573883Y-107072983D01*
X157494679Y-107077473D01*
X157423765Y-107090385D01*
X157357308Y-107112492D01*
X157298285Y-107143325D01*
X157255446Y-107111633D01*
X157216311Y-107102292D01*
X157174189Y-107110513D01*
X157141024Y-107134715D01*
X157120217Y-107173955D01*
X157111806Y-107242335D01*
X157111806Y-107400879D01*
X157120247Y-107470148D01*
X157141024Y-107509506D01*
X157174189Y-107533708D01*
X157216311Y-107541929D01*
X157252907Y-107536017D01*
X157283997Y-107518573D01*
X157302270Y-107495563D01*
X157317794Y-107449605D01*
X157331800Y-107402095D01*
X157346462Y-107375416D01*
X157381926Y-107341119D01*
X157435580Y-107310478D01*
X157498084Y-107290927D01*
X157572875Y-107284009D01*
X157647022Y-107290550D01*
X157705922Y-107308606D01*
X157752760Y-107336857D01*
X157791672Y-107375348D01*
X157812335Y-107411569D01*
X157818797Y-107447041D01*
X157812278Y-107484690D01*
X157791687Y-107522512D01*
X157759292Y-107554148D01*
X157712277Y-107579390D01*
X157661927Y-107594239D01*
X157516089Y-107625552D01*
X157364599Y-107661386D01*
X157268060Y-107695344D01*
X157213888Y-107725284D01*
X157166127Y-107764715D01*
X157124171Y-107814504D01*
X157092689Y-107870971D01*
X157073427Y-107934711D01*
X157066743Y-108007486D01*
X156840714Y-108007486D01*
X156866106Y-107920758D01*
X156875593Y-107818442D01*
X156875593Y-107675744D01*
X156867027Y-107568122D01*
X156841656Y-107466428D01*
X156799297Y-107369280D01*
X156741261Y-107280987D01*
X156671029Y-107208400D01*
X156587630Y-107150011D01*
X156494995Y-107106989D01*
X156399790Y-107081510D01*
X156300676Y-107072983D01*
X156211407Y-107078546D01*
X156130133Y-107094690D01*
X156053352Y-107122121D01*
X155982030Y-107160910D01*
X155960954Y-107134548D01*
X155939532Y-107116946D01*
X155915480Y-107105932D01*
X155889798Y-107102292D01*
X155847615Y-107110352D01*
X155814510Y-107133982D01*
X155793748Y-107172671D01*
X155785293Y-107241419D01*
X155785293Y-107419380D01*
X155793724Y-107488135D01*
X155814510Y-107527274D01*
X155847660Y-107551334D01*
X155889798Y-107559515D01*
X155928593Y-107553425D01*
X155957484Y-107536342D01*
X155978170Y-107506579D01*
X155995403Y-107449514D01*
X156006717Y-107410620D01*
X156024071Y-107383934D01*
X156072516Y-107344266D01*
X156141490Y-107311303D01*
X156217414Y-107290742D01*
X156292616Y-107284009D01*
X156383650Y-107294412D01*
X156465814Y-107325041D01*
X156514692Y-107356786D01*
X156561047Y-107400603D01*
X156605124Y-107458398D01*
X156638153Y-107522393D01*
X156658493Y-107594907D01*
X156665574Y-107677850D01*
X156665574Y-107814229D01*
X156658503Y-107887943D01*
X156637933Y-107953735D01*
X156603934Y-108013264D01*
X156555390Y-108067662D01*
X156497775Y-108110410D01*
X156429130Y-108141973D01*
X156347286Y-108162005D01*
X156249476Y-108169145D01*
X156137895Y-108160508D01*
X156051731Y-108137088D01*
X156005766Y-108111391D01*
X155951347Y-108063632D01*
X155900148Y-108020767D01*
X155858016Y-108010875D01*
X155818952Y-108018719D01*
X155784285Y-108042841D01*
X155760367Y-108077838D01*
X155752503Y-108118128D01*
X155521732Y-108118128D01*
X155187203Y-107712197D01*
X155518396Y-107313318D01*
X155574344Y-107305281D01*
X155610079Y-107284192D01*
X155632520Y-107251057D01*
X155640304Y-107207805D01*
X155632070Y-107164737D01*
X155608064Y-107131509D01*
X155568837Y-107110723D01*
X155499986Y-107102292D01*
X155306271Y-107102292D01*
X155237355Y-107110729D01*
X155198194Y-107131509D01*
X155174116Y-107164745D01*
X155165862Y-107207805D01*
X155171151Y-107252892D01*
X155186379Y-107291244D01*
X155205566Y-107306867D01*
X155245821Y-107313318D01*
X155051465Y-107547424D01*
X154858483Y-107313318D01*
X154898800Y-107306860D01*
X154917925Y-107291244D01*
X154933153Y-107252892D01*
X154938442Y-107207805D01*
X154930208Y-107164737D01*
X154906202Y-107131509D01*
X154866963Y-107110725D01*
X154798032Y-107102292D01*
X154605416Y-107102292D01*
X154536500Y-107110729D01*
X154497339Y-107131509D01*
X154473261Y-107164745D01*
X154465007Y-107207805D01*
X154473036Y-107250965D01*
X154496331Y-107284192D01*
X154532657Y-107305389D01*
X154587007Y-107313318D01*
X154914628Y-107712105D01*
X154564384Y-108133974D01*
X154507397Y-108142029D01*
X154470686Y-108163191D01*
X154447465Y-108196335D01*
X154439453Y-108239487D01*
X154272786Y-108239487D01*
X154272786Y-106906316D01*
X158236516Y-106906316D01*
X158236516Y-108546837D01*
G37*
M02*
